<svg width="32" height="32" viewBox="0 0 32 32" fill="none" xmlns="http://www.w3.org/2000/svg">
<g id="account">
<path id="Vector" d="M16 2.667C13.067 2.667 10.667 5.067 10.667 8C10.667 10.933 13.067 13.333 16 13.333C18.933 13.333 21.333 10.933 21.333 8C21.333 5.067 18.933 2.667 16 2.667V2.667ZM16 12C13.733 12 12 10.133 12 8C12 5.733 13.733 4 16 4C18.267 4 20 5.733 20 8C20 10.133 18.267 12 16 12Z" fill="#444444"/>
<path id="Vector_2" d="M23.6 17.733L20.933 15.066C20.8 14.799 20.4 14.666 20 14.666H18.667V15.999H20.134L22.667 18.666V27.999H9.33399V18.666L12.134 15.999H13.334V14.666H12.001C11.601 14.666 11.334 14.799 11.068 15.066L8.26799 17.866C8.13499 17.999 8.00099 18.399 8.00099 18.666V27.999C8.00099 28.666 8.53399 29.332 9.33399 29.332H22.667C23.334 29.332 24 28.665 24 27.999V18.666C24 18.266 23.867 17.866 23.6 17.733V17.733Z" fill="#444444"/>
</g>
</svg>
