<svg width="32" height="32" viewBox="0 0 32 32" fill="none" xmlns="http://www.w3.org/2000/svg">
<g id="add">
<path id="Vector" d="M23.333 15.333H16.666V9.333C16.666 8.933 16.399 8.666 15.999 8.666C15.599 8.666 15.332 8.933 15.332 9.333V15.333H8.665C8.265 15.333 7.998 15.6 7.998 16C7.998 16.4 8.265 16.667 8.665 16.667H15.332V24C15.332 24.4 15.599 24.667 15.999 24.667C16.399 24.667 16.666 24.4 16.666 24V16.667H23.333C23.733 16.667 24 16.4 24 16C24 15.6 23.733 15.333 23.333 15.333Z" fill="#444444"/>
</g>
</svg>
