<svg width="32" height="32" viewBox="0 0 32 32" fill="none" xmlns="http://www.w3.org/2000/svg">
<g id="email">
<path id="Vector" d="M28.933 7.333C28.8 6.933 28.4 6.666 28 6.4C27.6 6.134 27.067 6 26.667 6H5.33403C4.80103 6 4.40103 6.133 4.00103 6.4C3.60103 6.667 3.20103 6.933 3.06803 7.333C2.80103 7.733 2.66803 8.133 2.66803 8.666V23.333C2.66803 23.866 2.80103 24.533 3.20103 24.933C3.46803 25.333 3.86803 25.6 4.26803 25.733C4.53503 25.866 4.93503 26 5.33503 26H26.668C27.068 26 27.468 25.867 27.735 25.733C28.135 25.6 28.535 25.2 28.802 24.933C29.069 24.533 29.335 24 29.335 23.333V8.666C29.335 8.133 29.202 7.733 28.935 7.333H28.933ZM27.067 7.333L16 18.4L4.93303 7.333H27.066H27.067ZM4.00003 8.267L11.867 16.134L4.00003 24.134V8.267ZM5.33303 24.667L12.933 17.067L16.133 20.267L19.333 17.067L26.933 24.667H5.33303ZM20.133 16.133L28 8.266V24.133L20.133 16.133Z" fill="#444444"/>
</g>
</svg>
