<svg width="32" height="32" viewBox="0 0 32 32" fill="none" xmlns="http://www.w3.org/2000/svg">
<g id="facebook">
<path id="Vector" d="M29.333 16.133C29.333 22.8 24.4 28.266 18.133 29.333C18.133 26.266 18.133 23.2 18.133 20.266C18.133 20.133 18.133 19.999 18.4 19.999C19.333 19.999 20.267 19.999 21.067 19.999C21.2 19.999 21.334 19.999 21.334 19.866C21.467 18.799 21.734 17.599 21.867 16.533C21.867 16.266 21.867 16.266 21.6 16.266C20.533 16.266 19.467 16.266 18.4 16.266C18.267 16.266 18.133 16.266 18.133 16.133C18.133 15.333 18.133 14.4 18.133 13.6C18.133 12.533 18.8 11.867 19.866 11.733C20.533 11.6 21.199 11.733 21.733 11.733C21.866 11.733 22 11.733 22 11.466C22 10.666 22 9.73299 22 8.93299C22 8.39999 22 8.39999 21.467 8.26599C20.267 7.99899 19.2 7.86599 18 7.99899C16.8 8.13199 15.867 8.66599 15.067 9.46599C14.267 10.399 14 11.599 13.867 12.799C13.867 13.732 13.867 14.799 13.867 15.732C13.867 15.999 13.867 15.999 13.6 15.999C12.667 15.999 11.733 15.999 10.667 15.999C10.534 15.999 10.4 15.999 10.4 16.266C10.4 17.333 10.4 18.533 10.4 19.599C10.4 19.732 10.4 19.866 10.667 19.866C11.6 19.866 12.667 19.866 13.6 19.866C13.733 19.866 13.867 19.866 13.867 20.133C13.867 23.2 13.867 26.266 13.867 29.2C7.6 28.267 2.667 22.8 2.667 16.133C2.667 8.79999 8.667 2.79999 16 2.79999C23.333 2.79999 29.333 8.66699 29.333 16.133V16.133Z" fill="#444444"/>
</g>
</svg>
