<svg width="32" height="32" viewBox="0 0 32 32" fill="none" xmlns="http://www.w3.org/2000/svg">
<g id="google-inverted">
<path id="Vector" d="M16 3C8.77778 3 3 8.90909 3 16C3 23.0909 8.77778 29 16 29C23.2222 29 29 23.0909 29 16C29 8.90909 23.2222 3 16 3ZM24.9293 19.4141C24.404 21.1212 23.3535 22.5657 22.0404 23.7475C21.1212 24.404 20.0707 24.9293 19.1515 25.1919C18.6263 25.3232 17.9697 25.4545 17.1818 25.4545C16.6566 25.4545 16.2626 25.5859 15.7374 25.4545C14.5556 25.4545 13.5051 25.1919 12.4545 24.6667C11.6667 24.404 10.8788 23.8788 10.2222 23.3535C9.43434 22.8283 8.77778 22.0404 8.25253 21.2525C7.72727 20.3333 7.20202 19.2828 6.93939 18.2323C6.67677 17.3131 6.67677 16.6566 6.67677 15.7374C6.80808 14.2929 7.07071 12.9798 7.72727 11.6667C8.64646 10.0909 9.69697 8.77778 11.404 7.85859C12.3232 7.33333 13.2424 6.93939 14.1616 6.80808C14.6869 6.67677 15.0808 6.54545 15.4747 6.54545C16 6.54545 16.3939 6.41414 17.0505 6.54545C18.3636 6.67677 19.6768 6.93939 20.7273 7.59596C21.3838 7.9899 22.0404 8.38384 22.5657 8.90909C22.697 9.0404 22.697 9.0404 22.5657 9.17172C21.7778 9.9596 20.9899 10.7475 20.3333 11.404C20.202 11.6667 20.202 11.6667 20.0707 11.404C19.2828 10.7475 18.4949 10.2222 17.4444 10.2222C17.1818 10.2222 16.9192 10.2222 16.6566 10.2222C16.5253 10.2222 16.3939 10.2222 16.3939 10.2222C14.9495 10.2222 13.6364 10.7475 12.4545 11.798C11.404 12.4545 10.7475 13.5051 10.4848 14.6869C10.3535 15.6061 10.3535 16.3939 10.4848 17.3131C10.7475 18.8889 11.6667 20.0707 12.8485 20.9899C13.6364 21.5152 14.4242 21.7778 15.2121 22.0404C15.8687 22.1717 16.3939 22.1717 17.1818 22.0404C17.9697 21.9091 18.6263 21.7778 19.2828 21.3838C20.0707 20.9899 20.596 20.3333 21.1212 19.6768C21.3838 19.1515 21.6465 18.7576 21.6465 18.2323C21.6465 18.101 21.6465 18.101 21.5152 18.101H16.3939C16.2626 18.101 16.2626 18.101 16.2626 17.8384V14.8182C16.2626 14.6869 16.2626 14.6869 16.3939 14.6869H25.0606C25.1919 14.6869 25.3232 14.6869 25.3232 14.8182C25.4545 15.7374 25.4545 16.5253 25.4545 17.4444C25.3232 18.101 25.1919 18.7576 24.9293 19.4141Z" fill="#444444"/>
</g>
</svg>
