<svg width="32" height="32" viewBox="0 0 32 32" fill="none" xmlns="http://www.w3.org/2000/svg">
<g id="google">
<path id="Vector" d="M16.267 18.667C16.267 18.534 16.267 18.534 16.267 18.534C16.267 17.201 16.267 15.734 16.267 14.401C16.267 14.268 16.267 14.134 16.534 14.134C20.534 14.134 24.667 14.134 28.667 14.134C28.8 14.134 28.934 14.134 28.934 14.401C29.067 15.601 29.201 16.801 29.067 18.001C28.934 19.068 28.8 20.001 28.534 20.934C27.734 23.334 26.401 25.334 24.401 26.934C23.201 27.867 21.734 28.534 20.268 28.934C19.468 29.201 18.535 29.334 17.601 29.334C16.934 29.334 16.268 29.467 15.601 29.334C14.001 29.334 12.534 28.934 11.068 28.267C10.001 27.867 8.935 27.2 8.001 26.534C6.801 25.601 5.86799 24.534 5.06799 23.334C4.26799 22.001 3.60099 20.667 3.20099 19.067C2.93399 17.867 2.80099 16.8 2.80099 15.6C2.93399 13.6 3.33399 11.733 4.268 9.86699C5.468 7.59999 7.068 5.73399 9.335 4.53399C10.668 3.86699 11.868 3.33399 13.202 3.06699C13.869 2.93399 14.535 2.79999 15.069 2.79999C15.736 2.79999 16.402 2.66699 17.202 2.79999C19.069 2.93299 20.802 3.33299 22.402 4.26699C23.335 4.79999 24.269 5.33399 25.069 6.13399C25.202 6.26699 25.202 6.26699 25.069 6.53399C24.002 7.60099 22.936 8.66699 21.869 9.60099C21.602 9.86799 21.736 9.86799 21.469 9.60099C20.402 8.66799 19.202 8.00099 17.736 7.86799C15.069 7.46799 12.803 8.13499 10.803 9.86799C9.47 11.068 8.67 12.535 8.27 14.268C8.003 15.468 8.003 16.668 8.27 17.868C8.67 20.001 9.87 21.735 11.603 23.068C12.67 23.735 13.736 24.268 14.936 24.535C15.869 24.668 16.669 24.668 17.603 24.535C18.67 24.402 19.603 24.135 20.536 23.602C21.603 23.069 22.403 22.135 23.069 21.202C23.469 20.535 23.736 19.869 23.869 19.202C23.869 18.935 23.869 18.935 23.736 18.935C21.336 18.935 18.936 18.935 16.669 18.935C16.402 18.668 16.402 18.668 16.269 18.668L16.267 18.667Z" fill="#444444"/>
</g>
</svg>
