<svg width="32" height="32" viewBox="0 0 32 32" fill="none" xmlns="http://www.w3.org/2000/svg">
<g id="heart-o">
<path id="Vector" d="M21.8667 3.46667C20.6667 3.46667 19.4667 3.73333 18.4 4.4C17.4667 4.8 16.6667 5.6 16 6.53333C15.3333 5.6 14.5333 4.93333 13.6 4.4C12.5333 3.73333 11.3333 3.46667 10.1333 3.46667C6.4 3.46667 2.66666 6.26667 2.66666 10.8C2.66666 13.6 3.73333 16.2667 5.73333 18.2667L16 28.5333L26.2667 18.2667C28.2667 16.2667 29.3333 13.6 29.3333 10.8C29.3333 6.26667 25.6 3.46667 21.8667 3.46667ZM25.3333 17.4667L16 26.8L6.66666 17.4667C4.93333 15.6 4 13.3333 4 10.8C4 6.93333 7.06666 4.66667 10.1333 4.66667C11.2 4.66667 12.1333 4.93333 12.9333 5.33333C13.7333 5.73333 14.4 6.26667 14.9333 7.06667L16 8.66667L17.0667 7.2C17.6 6.4 18.2667 5.86667 19.0667 5.46667C20 4.93333 20.9333 4.8 21.8667 4.8C24.9333 4.8 28 7.06667 28 10.9333C28 13.3333 27.0667 15.6 25.3333 17.4667Z" fill="#444444"/>
</g>
</svg>
