<svg width="32" height="32" viewBox="0 0 32 32" fill="none" xmlns="http://www.w3.org/2000/svg">
<g id="instagram">
<path id="Vector" d="M20.4 16C20.4 13.6 18.4 11.6 16 11.6C13.6 11.6 11.6 13.6 11.6 16C11.6 18.4 13.6 20.4 16 20.4C18.4 20.4 20.4 18.4 20.4 16V16ZM22.8 16C22.8 19.733 19.733 22.8 16 22.8C12.267 22.8 9.20001 19.733 9.20001 16C9.20001 12.267 12.267 9.2 16 9.2C19.733 9.2 22.8 12.267 22.8 16ZM24.667 8.933C24.667 9.866 24 10.533 23.067 10.533C22.134 10.533 21.467 9.866 21.467 8.933C21.467 8 22.134 7.333 23.067 7.333C24 7.333 24.667 8 24.667 8.933ZM16 5.067C14 5.067 9.86701 4.934 8.13301 5.6C7.46601 5.867 7.06601 6.133 6.66601 6.667C6.13301 7.067 5.86601 7.467 5.59901 8.134C4.93201 9.867 5.06601 14.001 5.06601 16.001C5.06601 18.001 4.93301 22.134 5.59901 23.868C5.86601 24.535 6.13201 24.935 6.66601 25.335C7.19901 25.868 7.59901 26.135 8.13301 26.402C9.86601 27.069 14 26.935 16 26.935C18 26.935 22.133 27.068 23.867 26.402C24.534 26.135 24.934 25.869 25.334 25.335C25.867 24.802 26.134 24.402 26.401 23.868C27.068 22.135 26.934 18.001 26.934 16.001C26.934 14.001 27.067 9.868 26.401 8.134C26.134 7.467 25.868 7.067 25.334 6.667C24.801 6.134 24.401 5.867 23.867 5.6C22.134 4.933 18 5.067 16 5.067V5.067ZM29.333 16C29.333 17.867 29.333 19.6 29.2 21.467C29.067 23.6 28.667 25.467 27.067 27.067C25.467 28.667 23.6 29.067 21.467 29.2C19.6 29.333 17.867 29.333 16 29.333C14.133 29.333 12.4 29.333 10.533 29.2C8.40001 29.067 6.53301 28.667 4.93301 27.067C3.33301 25.467 2.93301 23.6 2.80001 21.467C2.66701 19.6 2.66701 17.867 2.66701 16C2.66701 14.133 2.66701 12.4 2.80001 10.533C2.93301 8.4 3.33301 6.533 4.93301 4.933C6.53301 3.333 8.40001 2.933 10.533 2.8C12.4 2.667 14.133 2.667 16 2.667C17.867 2.667 19.6 2.667 21.467 2.8C23.6 2.933 25.467 3.333 27.067 4.933C28.667 6.533 29.067 8.4 29.2 10.533C29.333 12.4 29.333 14.133 29.333 16Z" fill="#444444"/>
</g>
</svg>
