<svg width="32" height="32" viewBox="0 0 32 32" fill="none" xmlns="http://www.w3.org/2000/svg">
<g id="instagram-inverted">
<g id="Group 1">
<path id="Vector" d="M28.87 10.67C28.74 8.59 28.35 6.77 26.79 5.21C25.23 3.65 23.41 3.26 21.33 3.13C19.51 3 17.82 3 16 3C14.18 3 12.49 3 10.67 3.13C8.59 3.26 6.77 3.65 5.21 5.21C3.65 6.77 3.26 8.59 3.13 10.67C3 12.49 3 14.18 3 16C3 17.82 3 19.51 3.13 21.33C3.26 23.41 3.65 25.23 5.21 26.79C6.77 28.35 8.59 28.74 10.67 28.87C12.49 29 14.18 29 16 29C17.82 29 19.51 29 21.33 28.87C23.41 28.74 25.23 28.35 26.79 26.79C28.35 25.23 28.74 23.41 28.87 21.33C29 19.51 29 17.82 29 16C29 14.18 29 12.49 28.87 10.67ZM16 22.63C12.36 22.63 9.37 19.64 9.37 16C9.37 12.36 12.36 9.37 16 9.37C19.64 9.37 22.63 12.36 22.63 16C22.63 19.64 19.64 22.63 16 22.63ZM22.89 10.67C21.98 10.67 21.33 10.02 21.33 9.11C21.33 8.2 21.98 7.55 22.89 7.55C23.8 7.55 24.45 8.2 24.45 9.11C24.45 10.02 23.8 10.67 22.89 10.67Z" fill="#444444"/>
<path id="Vector_2" d="M16 20.29C18.3693 20.29 20.29 18.3693 20.29 16C20.29 13.6307 18.3693 11.71 16 11.71C13.6307 11.71 11.71 13.6307 11.71 16C11.71 18.3693 13.6307 20.29 16 20.29Z" fill="#444444"/>
</g>
</g>
</svg>
