<svg width="32" height="32" viewBox="0 0 32 32" fill="none" xmlns="http://www.w3.org/2000/svg">
<g id="left-chevron">
<path id="Vector" d="M23.333 15.067C23.866 15.6 23.866 16.534 23.333 17.067L9.60001 29.334H14.933L28.666 16.934C29.199 16.401 29.199 15.467 28.666 14.934L14.933 2.667H9.60001L23.333 15.067ZM25.333 16.933C25.866 16.4 25.866 15.466 25.333 14.933L13.066 4H14.399L26.666 15.067C27.199 15.6 27.199 16.534 26.666 17.067L14.399 28H13.066L25.333 16.933Z" fill="#444444"/>
<path id="Vector_2" d="M16.667 15.067C17.2 15.6 17.2 16.534 16.667 17.067L2.93399 29.334H8.26699L22 16.934C22.533 16.401 22.533 15.467 22 14.934L8.26699 2.667H2.93399L16.667 15.067ZM18.667 16.933C19.2 16.4 19.2 15.466 18.667 14.933L6.39999 4H7.73299L20 15.067C20.533 15.6 20.533 16.534 20 17.067L7.73299 28H6.39999L18.667 16.933Z" fill="#444444"/>
</g>
</svg>
