<svg width="32" height="32" viewBox="0 0 32 32" fill="none" xmlns="http://www.w3.org/2000/svg">
<g id="linkedin">
<path id="Vector" d="M26.933 2.667H5.06599C3.73299 2.667 2.66599 3.734 2.66599 5.067V26.8C2.66599 28.133 3.73299 29.333 5.06599 29.333H26.799C28.132 29.333 29.199 28.266 29.199 26.8V5.067C29.332 3.734 28.266 2.667 26.932 2.667H26.933ZM10.933 25.733C10.933 26.133 10.666 26.4 10.266 26.4H7.19899C6.79899 26.4 6.53199 26.133 6.53199 25.733V13.2C6.53199 12.8 6.79899 12.533 7.19899 12.533H10.132C10.532 12.533 10.799 12.8 10.799 13.2V25.733H10.933ZM8.66699 11.333C7.06699 11.333 5.86699 10.133 5.86699 8.533C5.86699 6.933 7.19999 5.733 8.66699 5.733C10.267 5.733 11.467 7.066 11.467 8.533C11.6 10 10.267 11.333 8.66699 11.333V11.333ZM25.733 26.4C24.8 26.4 23.866 26.4 22.8 26.4C22.267 26.4 22 26.133 22 25.6V19.067C22 18.534 21.867 18 21.733 17.467C21.466 16.667 20.8 16.134 20 16.134C18.933 16.001 18.267 16.401 17.733 17.334C17.333 18.001 17.2 18.667 17.2 19.334V25.601C17.2 26.268 16.933 26.401 16.4 26.401C15.467 26.401 14.533 26.401 13.6 26.401C13.067 26.401 12.8 26.134 12.8 25.601V13.334C12.8 12.801 13.067 12.534 13.6 12.534H16.4C16.933 12.534 17.2 12.801 17.2 13.334V14.134C17.333 14.001 17.333 13.867 17.467 13.867C18.134 13.067 18.934 12.667 19.867 12.534C20.8 12.401 21.734 12.267 22.8 12.534C24.267 12.801 25.333 13.867 25.867 15.201C26.267 16.401 26.4 17.601 26.4 18.801C26.4 21.068 26.4 23.334 26.4 25.734C26.533 26.134 26.267 26.401 25.733 26.401V26.4Z" fill="#444444"/>
</g>
</svg>
