<svg width="60" height="32" viewBox="0 0 60 32" fill="none" xmlns="http://www.w3.org/2000/svg">
<g id="logo">
<path id="Vector" d="M1.92499 24.89H1.12299C1.01499 24.89 0.919991 24.986 0.919991 25.093V28.766C0.919991 28.874 1.01599 28.969 1.12299 28.969H1.92499C2.03299 28.969 2.12799 28.873 2.12799 28.766V25.093C2.11599 24.985 2.03199 24.89 1.92499 24.89V24.89Z" fill="#444444"/>
<path id="Vector_2" d="M5.227 26.146L3.672 27.701H4.749L6.304 26.146H5.227Z" fill="#444444"/>
<path id="Vector_3" d="M7.02199 26.146L5.46699 27.701H6.54399L8.09899 26.146H7.02199Z" fill="#444444"/>
<path id="Vector_4" d="M8.81601 26.146L7.24901 27.701H8.33801L9.89301 26.146H8.81601Z" fill="#444444"/>
<path id="Vector_5" d="M12.202 26.84L10.575 26.17L9.044 27.701H10.468C10.504 27.701 10.528 27.689 10.564 27.689L12.203 27.019C12.299 26.971 12.299 26.887 12.203 26.84H12.202Z" fill="#444444"/>
<path id="Vector_6" d="M2.117 26.146V27.701H2.954L4.509 26.146H2.117Z" fill="#444444"/>
<path id="Vector_7" d="M58.763 24.89H57.961C57.853 24.89 57.758 24.986 57.758 25.093V26.146H55.365L56.92 27.701H57.757V28.754C57.757 28.862 57.853 28.957 57.96 28.957H58.762C58.87 28.957 58.965 28.861 58.965 28.754V25.081C58.953 24.985 58.869 24.89 58.762 24.89H58.763Z" fill="#444444"/>
<path id="Vector_8" d="M51.777 26.146L53.332 27.701H54.409L52.854 26.146H51.777Z" fill="#444444"/>
<path id="Vector_9" d="M49.982 26.146L51.537 27.701H52.614L51.059 26.146H49.982Z" fill="#444444"/>
<path id="Vector_10" d="M53.571 26.146L55.126 27.701H56.203L54.648 26.146H53.571Z" fill="#444444"/>
<path id="Vector_11" d="M47.673 26.84C47.577 26.876 47.577 26.972 47.673 27.008L49.312 27.678C49.336 27.69 49.372 27.69 49.408 27.69H50.832L49.289 26.171L47.674 26.841L47.673 26.84Z" fill="#444444"/>
<path id="Vector_12" d="M58.919 9.003V9.805C58.919 9.913 58.835 10.008 58.716 10.008H55.043C54.935 10.008 54.852 9.924 54.852 9.817V9.004C54.852 8.896 54.936 8.813 55.043 8.813H55.426C55.534 8.813 55.617 8.729 55.617 8.622V5.524C55.617 5.428 55.545 5.356 55.45 5.356C55.45 5.356 43.343 3.215 30.578 3.215C17.359 3.215 4.36599 5.356 4.36599 5.356C4.29399 5.356 4.23399 5.404 4.20999 5.464V8.634C4.20999 8.742 4.29399 8.825 4.40099 8.825H4.78399C4.89199 8.825 4.97499 8.909 4.97499 9.016V9.829C4.97499 9.937 4.89099 10.02 4.78399 10.02H1.11099C1.00299 10.02 0.919991 9.936 0.919991 9.829V9.004C0.919991 8.896 1.00399 8.813 1.11099 8.813H1.49399C1.60199 8.813 1.68499 8.729 1.68499 8.622V3.37C1.68499 3.274 1.75699 3.203 1.85199 3.203C1.85199 3.203 16.1 1.062 30.564 1.062C44.597 1.062 57.96 3.203 57.96 3.203C58.056 3.203 58.127 3.275 58.127 3.37V8.61C58.127 8.718 58.211 8.801 58.318 8.801H58.701C58.821 8.801 58.916 8.897 58.916 9.004L58.919 9.003Z" fill="#444444"/>
<path id="Vector_13" d="M3.61202 15.451H6.24402C6.35202 15.451 6.43502 15.367 6.43502 15.26V12.054C6.43502 11.946 6.51902 11.863 6.62602 11.863H8.74302C8.85102 11.863 8.93402 11.947 8.93402 12.054V21.302C8.93402 21.41 8.85002 21.493 8.74302 21.493H6.62602C6.51802 21.493 6.43502 21.409 6.43502 21.302V17.797C6.43502 17.689 6.35102 17.606 6.24402 17.606H3.61202C3.50402 17.606 3.42102 17.69 3.42102 17.797V21.302C3.42102 21.41 3.33702 21.493 3.23002 21.493H1.11202C1.00402 21.493 0.921017 21.409 0.921017 21.302V12.054C0.921017 11.946 1.00502 11.863 1.11202 11.863H3.21802C3.32602 11.863 3.40902 11.947 3.40902 12.054V15.26C3.40902 15.356 3.50502 15.451 3.61202 15.451V15.451Z" fill="#444444"/>
<path id="Vector_14" d="M15.899 19.866H12.669C12.585 19.866 12.513 19.914 12.49 19.986L11.94 21.362C11.904 21.434 11.832 21.482 11.761 21.482H9.53599C9.39199 21.482 9.30899 21.338 9.35699 21.219L12.91 11.971C12.934 11.899 13.018 11.839 13.089 11.839H15.553C15.637 11.839 15.709 11.887 15.732 11.971L19.213 21.219C19.261 21.351 19.165 21.482 19.034 21.482H16.785C16.701 21.482 16.629 21.434 16.606 21.35L16.104 19.986C16.056 19.926 15.984 19.866 15.901 19.866H15.899ZM15.276 17.7L14.474 15.379C14.414 15.2 14.163 15.2 14.103 15.379L13.325 17.7C13.277 17.832 13.373 17.963 13.516 17.963H15.107C15.227 17.963 15.322 17.831 15.275 17.7H15.276Z" fill="#444444"/>
<path id="Vector_15" d="M19.607 21.289V12.041C19.607 11.933 19.691 11.85 19.798 11.85H22.011C22.071 11.85 22.131 11.874 22.167 11.922L26.366 17.294C26.486 17.438 26.713 17.366 26.713 17.174V12.042C26.713 11.934 26.797 11.851 26.904 11.851H29.01C29.118 11.851 29.201 11.935 29.201 12.042V21.29C29.201 21.398 29.117 21.481 29.01 21.481H26.797C26.737 21.481 26.677 21.457 26.641 21.409L22.442 16.037C22.322 15.893 22.095 15.965 22.095 16.157V21.289C22.095 21.397 22.011 21.48 21.904 21.48H19.798C19.69 21.492 19.607 21.396 19.607 21.289V21.289Z" fill="#444444"/>
<path id="Vector_16" d="M30.578 21.301V12.053C30.578 11.945 30.662 11.862 30.769 11.862L33.868 11.85C34.837 11.85 36.452 11.982 37.696 13.178C38.821 14.267 39.036 15.654 39.036 16.683C39.036 17.951 38.713 19.076 37.78 20.021C37.014 20.787 35.722 21.481 34.083 21.481L30.769 21.493C30.673 21.505 30.578 21.409 30.578 21.302V21.301ZM33.078 19.172C33.078 19.28 33.174 19.375 33.281 19.363L33.592 19.351C34.202 19.351 35.052 19.291 35.698 18.657C36.021 18.358 36.44 17.748 36.44 16.683C36.44 15.786 36.165 15.02 35.686 14.577C35.088 14.027 34.31 13.967 33.688 13.967L33.257 13.979C33.149 13.979 33.066 14.063 33.066 14.17V19.171L33.078 19.172Z" fill="#444444"/>
<path id="Vector_17" d="M42.433 12.042V19.172C42.433 19.28 42.517 19.363 42.624 19.363H45.232C45.34 19.363 45.423 19.447 45.423 19.554V21.289C45.423 21.397 45.339 21.48 45.232 21.48H40.124C40.016 21.48 39.933 21.396 39.933 21.289V12.041C39.933 11.933 40.017 11.85 40.124 11.85H42.23C42.35 11.85 42.433 11.934 42.433 12.041V12.042Z" fill="#444444"/>
<path id="Vector_18" d="M51.095 13.98H48.511C48.403 13.98 48.32 14.064 48.32 14.171V15.379C48.32 15.487 48.404 15.57 48.511 15.57H50.94C51.048 15.57 51.131 15.654 51.131 15.761V17.496C51.131 17.604 51.047 17.687 50.94 17.687H48.511C48.403 17.687 48.32 17.771 48.32 17.878V19.17C48.32 19.278 48.404 19.361 48.511 19.361H51.095C51.203 19.361 51.286 19.445 51.286 19.552V21.287C51.286 21.395 51.202 21.478 51.095 21.478H46.011C45.903 21.478 45.82 21.394 45.82 21.287V12.039C45.82 11.931 45.904 11.848 46.011 11.848H51.095C51.203 11.848 51.286 11.932 51.286 12.039V13.774C51.286 13.882 51.202 13.977 51.095 13.977V13.98Z" fill="#444444"/>
<path id="Vector_19" d="M52.805 18.825C52.865 18.717 53.008 18.681 53.104 18.765C53.63 19.208 54.36 19.59 55.138 19.59C55.64 19.59 55.951 19.434 56.107 19.255C56.251 19.111 56.358 18.896 56.358 18.645C56.358 18.454 56.286 18.238 56.083 18.071C55.832 17.856 55.461 17.748 54.839 17.569L54.193 17.366C53.786 17.234 53.2 17.019 52.805 16.588C52.315 16.05 52.255 15.38 52.255 14.877C52.255 13.693 52.722 12.975 53.14 12.556C53.63 12.065 54.444 11.647 55.616 11.647C56.513 11.647 57.542 11.91 58.415 12.341C58.511 12.389 58.547 12.509 58.499 12.604L57.697 14.171C57.637 14.279 57.506 14.315 57.41 14.243C56.752 13.776 56.25 13.729 55.95 13.729C55.699 13.729 55.376 13.789 55.125 14.016C54.981 14.16 54.874 14.315 54.874 14.53C54.874 14.698 54.898 14.829 55.006 14.961C55.078 15.045 55.257 15.224 55.843 15.392L56.609 15.619C57.219 15.81 57.853 16.026 58.356 16.576C58.846 17.09 58.978 17.629 58.978 18.299C58.978 19.184 58.763 20.034 58.069 20.728C57.244 21.553 56.251 21.709 55.222 21.709C54.612 21.709 54.038 21.649 53.332 21.386C53.188 21.338 52.65 21.135 52.016 20.716C51.932 20.656 51.908 20.548 51.956 20.465L52.805 18.826V18.825Z" fill="#444444"/>
<path id="Vector_20" d="M19.069 27.666C19.141 27.738 19.141 27.857 19.081 27.929C18.758 28.324 18.638 28.443 18.459 28.611L18.303 28.767L19.392 29.999C19.5 30.131 19.416 30.322 19.248 30.322H18.135C18.075 30.322 18.027 30.298 17.991 30.25L17.512 29.7C17.44 29.616 17.321 29.604 17.237 29.676C16.854 29.987 16.136 30.466 15.191 30.466C13.791 30.466 13.062 29.497 13.062 28.528C13.062 27.523 13.84 26.997 14.151 26.805L14.474 26.614C14.582 26.554 14.606 26.411 14.522 26.315C14.283 26.04 13.996 25.597 13.996 25.059C13.996 24.21 14.606 23.372 15.862 23.372C17.046 23.372 17.68 24.15 17.68 24.987C17.68 25.478 17.441 26.052 16.723 26.494L16.639 26.542C16.531 26.602 16.507 26.745 16.591 26.841L17.416 27.786C17.488 27.87 17.619 27.87 17.703 27.798C17.954 27.535 18.134 27.343 18.265 27.188C18.337 27.092 18.468 27.092 18.552 27.176L19.066 27.667L19.069 27.666ZM15.456 27.367C15.396 27.295 15.288 27.283 15.205 27.331C14.75 27.594 14.38 27.953 14.38 28.42C14.38 28.934 14.811 29.317 15.373 29.317C15.816 29.317 16.222 29.078 16.474 28.862C16.558 28.79 16.57 28.659 16.498 28.575L15.457 27.367H15.456ZM15.707 25.835C15.767 25.919 15.886 25.931 15.97 25.871L16.126 25.763C16.497 25.512 16.593 25.237 16.593 25.009C16.593 24.674 16.39 24.339 15.935 24.339C15.456 24.339 15.241 24.662 15.241 24.973C15.241 25.224 15.385 25.44 15.528 25.619L15.707 25.834V25.835Z" fill="#444444"/>
<path id="Vector_21" d="M22.454 23.538H23.112C23.196 23.538 23.268 23.586 23.291 23.658L24.858 27.426C24.93 27.582 25.145 27.594 25.217 27.426L26.868 23.658C26.904 23.586 26.976 23.538 27.047 23.538H27.705C27.801 23.538 27.884 23.61 27.896 23.706L28.973 30.094C28.997 30.214 28.901 30.321 28.782 30.321H27.837C27.741 30.321 27.658 30.249 27.646 30.153L27.155 26.827C27.131 26.636 26.856 26.6 26.784 26.779L25.289 30.212C25.253 30.284 25.181 30.332 25.11 30.332H24.919C24.835 30.332 24.763 30.284 24.74 30.212L23.328 26.767C23.256 26.588 22.981 26.611 22.957 26.815L22.407 30.153C22.395 30.249 22.311 30.321 22.216 30.321H21.271C21.151 30.321 21.056 30.213 21.08 30.094L22.264 23.706C22.288 23.598 22.36 23.538 22.455 23.538H22.454Z" fill="#444444"/>
<path id="Vector_22" d="M36.428 26.936C36.428 29.006 34.945 30.477 32.803 30.477C30.661 30.477 29.178 29.006 29.178 26.936C29.178 24.866 30.661 23.383 32.803 23.383C34.945 23.383 36.428 24.866 36.428 26.936ZM35.064 26.936C35.064 25.56 34.131 24.591 32.803 24.591C31.475 24.591 30.542 25.572 30.542 26.936C30.542 28.312 31.475 29.281 32.803 29.281C34.131 29.269 35.064 28.312 35.064 26.936Z" fill="#444444"/>
<path id="Vector_23" d="M39.036 23.538C39.969 23.538 40.448 23.777 40.771 24.052C41.285 24.495 41.441 25.069 41.441 25.583C41.441 26.241 41.178 26.827 40.651 27.186C40.531 27.27 40.376 27.354 40.172 27.413C40.04 27.449 39.993 27.604 40.076 27.712L41.787 30.021C41.883 30.153 41.787 30.332 41.631 30.332H40.483C40.411 30.332 40.351 30.296 40.316 30.248L38.557 27.604H38.401V30.128C38.401 30.236 38.317 30.319 38.21 30.319H37.277C37.169 30.319 37.086 30.235 37.086 30.128V23.74C37.086 23.632 37.17 23.549 37.277 23.549H39.036V23.538ZM38.402 26.458C38.402 26.566 38.486 26.649 38.593 26.649H38.772C39.023 26.649 40.076 26.613 40.076 25.62C40.076 24.615 39.035 24.603 38.796 24.603H38.593C38.485 24.603 38.402 24.687 38.402 24.794V26.457V26.458Z" fill="#444444"/>
<path id="Vector_24" d="M45.843 24.675H43.785C43.677 24.675 43.594 24.759 43.594 24.866V25.991C43.594 26.099 43.678 26.182 43.785 26.182H45.735C45.843 26.182 45.926 26.266 45.926 26.373V27.115C45.926 27.223 45.842 27.306 45.735 27.306H43.785C43.677 27.306 43.594 27.39 43.594 27.497V28.98C43.594 29.088 43.678 29.171 43.785 29.171H45.831C45.939 29.171 46.022 29.255 46.022 29.362V30.104C46.022 30.212 45.938 30.295 45.831 30.295H42.469C42.361 30.295 42.278 30.211 42.278 30.104V23.716C42.278 23.608 42.362 23.525 42.469 23.525H45.843C45.951 23.525 46.034 23.609 46.034 23.716V24.458C46.034 24.59 45.95 24.673 45.843 24.673V24.675Z" fill="#444444"/>
</g>
</svg>
