<svg width="32" height="32" viewBox="0 0 32 32" fill="none" xmlns="http://www.w3.org/2000/svg">
<g id="logo-responsive">
<path id="Vector" d="M30.0757 22.3254C30.2132 22.4662 30.2259 22.6972 30.1004 22.8633C29.3246 23.8496 29.0242 24.1313 28.6116 24.5544L28.4741 24.6952C28.3492 24.823 28.3492 25.0157 28.4614 25.1436L30.9015 27.9747C31.1265 28.231 30.9389 28.6412 30.6137 28.6412H27.8112C27.6983 28.6412 27.5862 28.5899 27.5234 28.5003L26.3471 27.1169C26.2096 26.9501 25.9719 26.9248 25.809 27.0656C24.9331 27.8086 23.2188 29 20.9796 29C17.7137 29 16 26.6815 16 24.337C16 21.9159 17.8392 20.6473 18.5522 20.2119L19.3781 19.7122C19.591 19.5844 19.6284 19.3021 19.4782 19.11C18.9154 18.4566 18.2018 17.3548 18.2018 16.0485C18.2018 14.0246 19.6284 12 22.5812 12C25.3464 12 26.8478 13.8831 26.8478 15.8817C26.8478 17.0478 26.297 18.4436 24.608 19.4942L24.333 19.661C24.1327 19.7888 24.0826 20.0711 24.2455 20.2631L26.285 22.6589C26.4352 22.838 26.6976 22.838 26.8605 22.6719C27.5234 21.9931 27.974 21.4675 28.2744 21.0704C28.412 20.8913 28.687 20.8783 28.8499 21.0451L30.0763 22.326L30.0757 22.3254ZM21.5424 21.5311C21.4176 21.3903 21.2173 21.352 21.0544 21.4416C19.9656 22.082 19.065 22.9405 19.065 24.0936C19.065 25.3103 20.0657 26.246 21.4049 26.246C22.4937 26.246 23.4691 25.6186 24.0573 25.0929C24.2201 24.9521 24.2322 24.6958 24.0947 24.529L21.5424 21.5311V21.5311ZM22.206 17.9446C22.3308 18.1114 22.5691 18.1367 22.7314 18.0212L23.144 17.7266C24.0072 17.1114 24.2449 16.4586 24.2449 15.92C24.2449 15.1128 23.7695 14.3062 22.6934 14.3062C21.5798 14.3062 21.0791 15.0875 21.0791 15.8182C21.0791 16.4333 21.4169 16.9453 21.7421 17.3554L22.2047 17.9446H22.206Z" fill="#444444"/>
<path id="Vector_2" d="M5.69595 18.3488H10.2784C10.4682 18.3488 10.6202 18.1951 10.6202 18.0032V12.3579C10.6202 12.166 10.7721 12.0123 10.9619 12.0123H14.6583C14.848 12.0123 15 12.166 15 12.3579V28.6544C15 28.8463 14.848 29 14.6583 29H10.9619C10.7721 29 10.6202 28.8463 10.6202 28.6544V22.4716C10.6202 22.2796 10.4682 22.1259 10.2784 22.1259H5.69595C5.50616 22.1259 5.3542 22.2796 5.3542 22.4716V28.6544C5.3542 28.8463 5.20224 29 5.01246 29H1.34174C1.15196 29 1 28.8463 1 28.6544V12.3456C1 12.1537 1.15196 12 1.34174 12H5.01246C5.20224 12 5.3542 12.1537 5.3542 12.3456V17.9909C5.34138 18.1958 5.50616 18.3495 5.69595 18.3495V18.3488Z" fill="#444444"/>
</g>
</svg>
