<svg width="54" height="32" viewBox="0 0 54 32" fill="none" xmlns="http://www.w3.org/2000/svg">
<g id="logo-responsive">
<path id="Vector" d="M49.086 18.386C49.303 18.603 49.323 18.959 49.125 19.215C47.901 20.735 47.427 21.169 46.776 21.821L46.559 22.038C46.362 22.235 46.362 22.532 46.539 22.729L50.389 27.092C50.744 27.487 50.448 28.119 49.935 28.119H45.513C45.335 28.119 45.158 28.04 45.059 27.902L43.203 25.77C42.986 25.513 42.611 25.474 42.354 25.691C40.972 26.836 38.267 28.672 34.734 28.672C29.581 28.672 26.877 25.099 26.877 21.486C26.877 17.755 29.779 15.8 30.904 15.129L32.207 14.359C32.543 14.162 32.602 13.727 32.365 13.431C31.477 12.424 30.351 10.726 30.351 8.713C30.351 5.594 32.602 2.474 37.261 2.474C41.624 2.474 43.993 5.376 43.993 8.456C43.993 10.253 43.124 12.404 40.459 14.023L40.025 14.28C39.709 14.477 39.63 14.912 39.887 15.208L43.105 18.9C43.342 19.176 43.756 19.176 44.013 18.92C45.059 17.874 45.77 17.064 46.244 16.452C46.461 16.176 46.895 16.156 47.152 16.413L49.087 18.387L49.086 18.386ZM35.622 17.162C35.425 16.945 35.109 16.886 34.852 17.024C33.134 18.011 31.713 19.334 31.713 21.111C31.713 22.986 33.292 24.428 35.405 24.428C37.123 24.428 38.662 23.461 39.59 22.651C39.847 22.434 39.866 22.039 39.649 21.782L35.622 17.162V17.162ZM36.669 11.635C36.866 11.892 37.242 11.931 37.498 11.753L38.149 11.299C39.511 10.351 39.886 9.345 39.886 8.515C39.886 7.271 39.136 6.028 37.438 6.028C35.681 6.028 34.891 7.232 34.891 8.358C34.891 9.306 35.424 10.095 35.937 10.727L36.667 11.635H36.669Z" fill="#444444"/>
<path id="Vector_2" d="M9.958 12.286H17.105C17.401 12.286 17.638 12.049 17.638 11.753V3.047C17.638 2.751 17.875 2.514 18.171 2.514H23.936C24.232 2.514 24.469 2.751 24.469 3.047V28.179C24.469 28.475 24.232 28.712 23.936 28.712H18.171C17.875 28.712 17.638 28.475 17.638 28.179V18.644C17.638 18.348 17.401 18.111 17.105 18.111H9.958C9.662 18.111 9.425 18.348 9.425 18.644V28.179C9.425 28.475 9.188 28.712 8.892 28.712H3.167C2.871 28.712 2.634 28.475 2.634 28.179V3.028C2.634 2.732 2.871 2.495 3.167 2.495H8.892C9.188 2.495 9.425 2.732 9.425 3.028V11.734C9.405 12.05 9.662 12.287 9.958 12.287V12.286Z" fill="#444444"/>
</g>
</svg>
