<svg width="32" height="32" viewBox="0 0 32 32" fill="none" xmlns="http://www.w3.org/2000/svg">
<g id="logo">
<path id="Vector" d="M1.02666 26.2228H0.598928C0.541328 26.2228 0.490662 26.2738 0.490662 26.3307V28.2819C0.490662 28.3393 0.541862 28.3898 0.598928 28.3898H1.02666C1.08426 28.3898 1.13493 28.3388 1.13493 28.2819V26.3307C1.12853 26.2733 1.08373 26.2228 1.02666 26.2228V26.2228Z" fill="#444444"/>
<path id="Vector_2" d="M2.78774 26.8901L1.9584 27.7162H2.5328L3.36214 26.8901H2.78774Z" fill="#444444"/>
<path id="Vector_3" d="M3.74506 26.8901L2.91573 27.7162H3.49013L4.31946 26.8901H3.74506Z" fill="#444444"/>
<path id="Vector_4" d="M4.70187 26.8901L3.86613 27.7162H4.44693L5.27627 26.8901H4.70187Z" fill="#444444"/>
<path id="Vector_5" d="M6.50774 27.2588L5.64 26.9028L4.82347 27.7162H5.58294C5.60214 27.7162 5.61494 27.7098 5.63414 27.7098L6.50827 27.3538C6.55947 27.3283 6.55947 27.2837 6.50827 27.2588H6.50774Z" fill="#444444"/>
<path id="Vector_6" d="M1.12906 26.8901V27.7162H1.57546L2.40479 26.8901H1.12906Z" fill="#444444"/>
<path id="Vector_7" d="M31.3403 26.2228H30.9125C30.8549 26.2228 30.8043 26.2738 30.8043 26.3307V26.8901H29.528L30.3573 27.7162H30.8037V28.2756C30.8037 28.3329 30.8549 28.3834 30.912 28.3834H31.3397C31.3973 28.3834 31.448 28.3324 31.448 28.2756V26.3243C31.4416 26.2733 31.3968 26.2228 31.3397 26.2228H31.3403Z" fill="#444444"/>
<path id="Vector_8" d="M27.6144 26.8901L28.4437 27.7162H29.0181L28.1888 26.8901H27.6144Z" fill="#444444"/>
<path id="Vector_9" d="M26.6571 26.8901L27.4864 27.7162H28.0608L27.2315 26.8901H26.6571Z" fill="#444444"/>
<path id="Vector_10" d="M28.5712 26.8901L29.4005 27.7162H29.9749L29.1456 26.8901H28.5712Z" fill="#444444"/>
<path id="Vector_11" d="M25.4256 27.2588C25.3744 27.2779 25.3744 27.3289 25.4256 27.348L26.2997 27.7039C26.3125 27.7103 26.3317 27.7103 26.3509 27.7103H27.1104L26.2875 26.9034L25.4261 27.2593L25.4256 27.2588Z" fill="#444444"/>
<path id="Vector_12" d="M31.4235 17.7828V18.2089C31.4235 18.2663 31.3787 18.3168 31.3152 18.3168H29.3563C29.2987 18.3168 29.2544 18.2721 29.2544 18.2153V17.7834C29.2544 17.726 29.2992 17.6819 29.3563 17.6819H29.5605C29.6181 17.6819 29.6624 17.6373 29.6624 17.5804V15.9346C29.6624 15.8836 29.624 15.8454 29.5733 15.8454C29.5733 15.8454 23.1163 14.708 16.3083 14.708C9.25813 14.708 2.32853 15.8454 2.32853 15.8454C2.29013 15.8454 2.25813 15.8709 2.24533 15.9028V17.5868C2.24533 17.6442 2.29013 17.6883 2.3472 17.6883H2.55146C2.60906 17.6883 2.65333 17.7329 2.65333 17.7898V18.2217C2.65333 18.279 2.60853 18.3231 2.55146 18.3231H0.592528C0.534928 18.3231 0.490662 18.2785 0.490662 18.2217V17.7834C0.490662 17.726 0.535462 17.6819 0.592528 17.6819H0.796795C0.854395 17.6819 0.898662 17.6373 0.898662 17.5804V14.7903C0.898662 14.7393 0.937062 14.7016 0.987728 14.7016C0.987728 14.7016 8.58666 13.5642 16.3008 13.5642C23.7851 13.5642 30.912 14.7016 30.912 14.7016C30.9632 14.7016 31.0011 14.7398 31.0011 14.7903V17.5741C31.0011 17.6314 31.0459 17.6755 31.1029 17.6755H31.3072C31.3712 17.6755 31.4219 17.7265 31.4219 17.7834L31.4235 17.7828Z" fill="#444444"/>
<path id="Vector_13" d="M1.92641 21.2083H3.33014C3.38774 21.2083 3.43201 21.1637 3.43201 21.1069V19.4037C3.43201 19.3463 3.47681 19.3022 3.53388 19.3022H4.66294C4.72054 19.3022 4.76481 19.3468 4.76481 19.4037V24.3167C4.76481 24.3741 4.72001 24.4182 4.66294 24.4182H3.53388C3.47628 24.4182 3.43201 24.3735 3.43201 24.3167V22.4547C3.43201 22.3973 3.38721 22.3532 3.33014 22.3532H1.92641C1.86881 22.3532 1.82454 22.3978 1.82454 22.4547V24.3167C1.82454 24.3741 1.77974 24.4182 1.72268 24.4182H0.593078C0.535478 24.4182 0.491211 24.3735 0.491211 24.3167V19.4037C0.491211 19.3463 0.536011 19.3022 0.593078 19.3022H1.71628C1.77388 19.3022 1.81814 19.3468 1.81814 19.4037V21.1069C1.81814 21.1579 1.86934 21.2083 1.92641 21.2083V21.2083Z" fill="#444444"/>
<path id="Vector_14" d="M8.47946 23.5538H6.75679C6.71199 23.5538 6.67359 23.5793 6.66132 23.6176L6.36799 24.3486C6.34879 24.3868 6.31039 24.4123 6.27252 24.4123H5.08586C5.00906 24.4123 4.96479 24.3358 4.99039 24.2726L6.88532 19.3596C6.89812 19.3213 6.94292 19.2895 6.98079 19.2895H8.29492C8.33972 19.2895 8.37812 19.315 8.39039 19.3596L10.2469 24.2726C10.2725 24.3427 10.2213 24.4123 10.1515 24.4123H8.95199C8.90719 24.4123 8.86879 24.3868 8.85652 24.3422L8.58879 23.6176C8.56319 23.5857 8.52479 23.5538 8.48052 23.5538H8.47946ZM8.14719 22.4031L7.71946 21.1701C7.68746 21.075 7.55359 21.075 7.52159 21.1701L7.10666 22.4031C7.08106 22.4732 7.13226 22.5428 7.20852 22.5428H8.05706C8.12106 22.5428 8.17172 22.4727 8.14666 22.4031H8.14719Z" fill="#444444"/>
<path id="Vector_15" d="M10.4571 24.3098V19.3968C10.4571 19.3394 10.5019 19.2953 10.5589 19.2953H11.7392C11.7712 19.2953 11.8032 19.3081 11.8224 19.3336L14.0619 22.1874C14.1259 22.2639 14.2469 22.2257 14.2469 22.1237V19.3973C14.2469 19.3399 14.2917 19.2958 14.3488 19.2958H15.472C15.5296 19.2958 15.5739 19.3405 15.5739 19.3973V24.3103C15.5739 24.3677 15.5291 24.4118 15.472 24.4118H14.2917C14.2597 24.4118 14.2277 24.399 14.2085 24.3735L11.9691 21.5197C11.9051 21.4432 11.784 21.4814 11.784 21.5834V24.3098C11.784 24.3672 11.7392 24.4113 11.6821 24.4113H10.5589C10.5013 24.4176 10.4571 24.3666 10.4571 24.3098V24.3098Z" fill="#444444"/>
<path id="Vector_16" d="M16.3083 24.3162V19.4032C16.3083 19.3458 16.3531 19.3017 16.4101 19.3017L18.0629 19.2953C18.5797 19.2953 19.4411 19.3654 20.1045 20.0008C20.7045 20.5794 20.8192 21.3162 20.8192 21.8629C20.8192 22.5365 20.6469 23.1341 20.1493 23.6362C19.7408 24.0431 19.0517 24.4118 18.1776 24.4118L16.4101 24.4182C16.3589 24.4245 16.3083 24.3735 16.3083 24.3167V24.3162ZM17.6416 23.1851C17.6416 23.2425 17.6928 23.293 17.7499 23.2866L17.9157 23.2802C18.2411 23.2802 18.6944 23.2483 19.0389 22.9115C19.2112 22.7527 19.4347 22.4286 19.4347 21.8629C19.4347 21.3863 19.288 20.9794 19.0325 20.744C18.7136 20.4518 18.2987 20.42 17.9669 20.42L17.7371 20.4263C17.6795 20.4263 17.6352 20.471 17.6352 20.5278V23.1846L17.6416 23.1851Z" fill="#444444"/>
<path id="Vector_17" d="M22.6309 19.3973V23.1851C22.6309 23.2425 22.6757 23.2866 22.7328 23.2866H24.1237C24.1813 23.2866 24.2256 23.3312 24.2256 23.3881V24.3098C24.2256 24.3672 24.1808 24.4113 24.1237 24.4113H21.3995C21.3419 24.4113 21.2976 24.3666 21.2976 24.3098V19.3968C21.2976 19.3394 21.3424 19.2953 21.3995 19.2953H22.5227C22.5867 19.2953 22.6309 19.3399 22.6309 19.3968V19.3973Z" fill="#444444"/>
<path id="Vector_18" d="M27.2507 20.4269H25.8725C25.8149 20.4269 25.7707 20.4715 25.7707 20.5283V21.1701C25.7707 21.2275 25.8155 21.2716 25.8725 21.2716H27.168C27.2256 21.2716 27.2699 21.3162 27.2699 21.373V22.2947C27.2699 22.3521 27.2251 22.3962 27.168 22.3962H25.8725C25.8149 22.3962 25.7707 22.4408 25.7707 22.4977V23.1841C25.7707 23.2414 25.8155 23.2855 25.8725 23.2855H27.2507C27.3083 23.2855 27.3525 23.3301 27.3525 23.387V24.3087C27.3525 24.3661 27.3077 24.4102 27.2507 24.4102H24.5392C24.4816 24.4102 24.4373 24.3656 24.4373 24.3087V19.3957C24.4373 19.3383 24.4821 19.2942 24.5392 19.2942H27.2507C27.3083 19.2942 27.3525 19.3389 27.3525 19.3957V20.3174C27.3525 20.3748 27.3077 20.4253 27.2507 20.4253V20.4269Z" fill="#444444"/>
<path id="Vector_19" d="M28.1627 23.0008C28.1947 22.9434 28.2709 22.9243 28.3221 22.9689C28.6027 23.2043 28.992 23.4072 29.4069 23.4072C29.6747 23.4072 29.8405 23.3243 29.9237 23.2292C30.0005 23.1527 30.0576 23.0385 30.0576 22.9052C30.0576 22.8037 30.0192 22.6889 29.9109 22.6002C29.7771 22.486 29.5792 22.4286 29.2475 22.3335L28.9029 22.2257C28.6859 22.1556 28.3733 22.0413 28.1627 21.8124C27.9013 21.5266 27.8693 21.1706 27.8693 20.9034C27.8693 20.2744 28.1184 19.893 28.3413 19.6704C28.6027 19.4095 29.0368 19.1875 29.6619 19.1875C30.1403 19.1875 30.6891 19.3272 31.1547 19.5562C31.2059 19.5817 31.2251 19.6454 31.1995 19.6959L30.7717 20.5283C30.7397 20.5857 30.6699 20.6048 30.6187 20.5666C30.2677 20.3185 30 20.2935 29.84 20.2935C29.7061 20.2935 29.5339 20.3254 29.4 20.446C29.3232 20.5225 29.2661 20.6048 29.2661 20.7191C29.2661 20.8083 29.2789 20.8779 29.3365 20.948C29.3749 20.9927 29.4704 21.0878 29.7829 21.177L30.1915 21.2976C30.5168 21.3991 30.8549 21.5138 31.1232 21.806C31.3845 22.0791 31.4549 22.3654 31.4549 22.7213C31.4549 23.1915 31.3403 23.6431 30.9701 24.0118C30.5301 24.45 30.0005 24.5329 29.4517 24.5329C29.1264 24.5329 28.8203 24.501 28.4437 24.3613C28.3669 24.3358 28.08 24.228 27.7419 24.0054C27.6971 23.9735 27.6843 23.9161 27.7099 23.872L28.1627 23.0013V23.0008Z" fill="#444444"/>
<path id="Vector_20" d="M10.1701 27.6976C10.2085 27.7358 10.2085 27.799 10.1765 27.8373C10.0043 28.0471 9.94027 28.1103 9.8448 28.1996L9.7616 28.2825L10.3424 28.937C10.4 29.0071 10.3552 29.1086 10.2656 29.1086H9.672C9.64 29.1086 9.6144 29.0958 9.5952 29.0703L9.33973 28.7781C9.30133 28.7335 9.23787 28.7271 9.19307 28.7654C8.9888 28.9306 8.60587 29.1851 8.10187 29.1851C7.3552 29.1851 6.9664 28.6703 6.9664 28.1555C6.9664 27.6216 7.38133 27.3422 7.5472 27.2402L7.71947 27.1387C7.77707 27.1068 7.78987 27.0308 7.74507 26.9798C7.6176 26.8337 7.46453 26.5984 7.46453 26.3126C7.46453 25.8616 7.78987 25.4164 8.45973 25.4164C9.0912 25.4164 9.42933 25.8297 9.42933 26.2743C9.42933 26.5352 9.30187 26.8401 8.91893 27.0749L8.87413 27.1004C8.81653 27.1323 8.80373 27.2083 8.84853 27.2593L9.28853 27.7613C9.32693 27.8059 9.3968 27.8059 9.4416 27.7677C9.57547 27.628 9.67147 27.526 9.74133 27.4436C9.77973 27.3926 9.8496 27.3926 9.8944 27.4372L10.1685 27.6981L10.1701 27.6976ZM8.2432 27.5387C8.2112 27.5005 8.1536 27.4941 8.10933 27.5196C7.86667 27.6593 7.66933 27.85 7.66933 28.0981C7.66933 28.3712 7.8992 28.5747 8.19893 28.5747C8.4352 28.5747 8.65173 28.4477 8.78613 28.3329C8.83093 28.2947 8.83733 28.2251 8.79893 28.1805L8.24373 27.5387H8.2432ZM8.37707 26.7248C8.40907 26.7695 8.47253 26.7758 8.51733 26.744L8.60053 26.6866C8.7984 26.5532 8.8496 26.4072 8.8496 26.286C8.8496 26.1081 8.74133 25.9301 8.49867 25.9301C8.2432 25.9301 8.12853 26.1017 8.12853 26.2669C8.12853 26.4002 8.20533 26.515 8.2816 26.6101L8.37707 26.7243V26.7248Z" fill="#444444"/>
<path id="Vector_21" d="M11.9755 25.5046H12.3264C12.3712 25.5046 12.4096 25.5301 12.4219 25.5683L13.2576 27.5701C13.296 27.6529 13.4107 27.6593 13.4491 27.5701L14.3296 25.5683C14.3488 25.5301 14.3872 25.5046 14.4251 25.5046H14.776C14.8272 25.5046 14.8715 25.5428 14.8779 25.5938L15.4523 28.9874C15.4651 29.0512 15.4139 29.108 15.3504 29.108H14.8464C14.7952 29.108 14.751 29.0698 14.7446 29.0188L14.4827 27.2518C14.4699 27.1504 14.3232 27.1312 14.2848 27.2263L13.4875 29.0501C13.4683 29.0884 13.4299 29.1139 13.392 29.1139H13.2902C13.2454 29.1139 13.207 29.0884 13.1947 29.0501L12.4416 27.22C12.4032 27.1249 12.2566 27.1371 12.2438 27.2455L11.9504 29.0188C11.944 29.0698 11.8992 29.108 11.8485 29.108H11.3445C11.2805 29.108 11.2299 29.0507 11.2427 28.9874L11.8742 25.5938C11.887 25.5364 11.9254 25.5046 11.976 25.5046H11.9755Z" fill="#444444"/>
<path id="Vector_22" d="M19.4283 27.3097C19.4283 28.4094 18.6373 29.1909 17.4949 29.1909C16.3525 29.1909 15.5616 28.4094 15.5616 27.3097C15.5616 26.2101 16.3525 25.4222 17.4949 25.4222C18.6373 25.4222 19.4283 26.2101 19.4283 27.3097ZM18.7008 27.3097C18.7008 26.5787 18.2032 26.064 17.4949 26.064C16.7867 26.064 16.2891 26.5851 16.2891 27.3097C16.2891 28.0407 16.7867 28.5555 17.4949 28.5555C18.2032 28.5492 18.7008 28.0407 18.7008 27.3097Z" fill="#444444"/>
<path id="Vector_23" d="M20.8192 25.5046C21.3168 25.5046 21.5723 25.6315 21.7445 25.7776C22.0187 26.013 22.1019 26.3179 22.1019 26.591C22.1019 26.9405 21.9616 27.2518 21.6805 27.4426C21.6165 27.4872 21.5339 27.5318 21.4251 27.5632C21.3547 27.5823 21.3296 27.6646 21.3739 27.722L22.2864 28.9487C22.3376 29.0188 22.2864 29.1139 22.2032 29.1139H21.5909C21.5525 29.1139 21.5205 29.0947 21.5019 29.0692L20.5637 27.6646H20.4805V29.0055C20.4805 29.0629 20.4357 29.107 20.3787 29.107H19.8811C19.8235 29.107 19.7792 29.0623 19.7792 29.0055V25.6119C19.7792 25.5545 19.824 25.5104 19.8811 25.5104H20.8192V25.5046ZM20.4811 27.0558C20.4811 27.1132 20.5259 27.1573 20.5829 27.1573H20.6784C20.8123 27.1573 21.3739 27.1382 21.3739 26.6106C21.3739 26.0767 20.8187 26.0703 20.6912 26.0703H20.5829C20.5253 26.0703 20.4811 26.115 20.4811 26.1718V27.0553V27.0558Z" fill="#444444"/>
<path id="Vector_24" d="M24.4496 26.1086H23.352C23.2944 26.1086 23.2501 26.1532 23.2501 26.2101V26.8077C23.2501 26.8651 23.2949 26.9092 23.352 26.9092H24.392C24.4496 26.9092 24.4939 26.9538 24.4939 27.0107V27.4048C24.4939 27.4622 24.4491 27.5063 24.392 27.5063H23.352C23.2944 27.5063 23.2501 27.5509 23.2501 27.6078V28.3956C23.2501 28.453 23.2949 28.4971 23.352 28.4971H24.4432C24.5008 28.4971 24.5451 28.5417 24.5451 28.5986V28.9928C24.5451 29.0501 24.5003 29.0942 24.4432 29.0942H22.6501C22.5925 29.0942 22.5483 29.0496 22.5483 28.9928V25.5991C22.5483 25.5418 22.5931 25.4977 22.6501 25.4977H24.4496C24.5072 25.4977 24.5515 25.5423 24.5515 25.5991V25.9933C24.5515 26.0634 24.5067 26.1075 24.4496 26.1075V26.1086Z" fill="#444444"/>
</g>
</svg>
