<svg width="56" height="32" viewBox="0 0 56 32" fill="none" xmlns="http://www.w3.org/2000/svg">
<g id="logo-responsive">
<path id="Vector" d="M54.2745 19.436C54.5313 19.701 54.5549 20.1359 54.3207 20.4486C52.8726 22.3052 52.3119 22.8353 51.5417 23.6317L51.285 23.8968C51.0519 24.1374 51.0519 24.5002 51.2613 24.7408L55.8161 30.0701C56.2361 30.5526 55.8859 31.3245 55.279 31.3245H50.0475C49.8369 31.3245 49.6275 31.228 49.5104 31.0595L47.3146 28.4553C47.0579 28.1414 46.6142 28.0937 46.3102 28.3588C44.6752 29.7574 41.475 32 37.2953 32C31.199 32 28 27.6357 28 23.2225C28 18.6652 31.4332 16.2773 32.7642 15.4577L34.3057 14.5171C34.7032 14.2765 34.773 13.7452 34.4926 13.3836C33.4421 12.1536 32.1099 10.0795 32.1099 7.62073C32.1099 3.81098 34.773 0 40.2849 0C45.4466 0 48.2492 3.5447 48.2492 7.30682C48.2492 9.50179 47.2212 12.1292 44.0683 14.1067L43.5549 14.4206C43.181 14.6613 43.0875 15.1926 43.3916 15.5542L47.1987 20.0638C47.4791 20.4009 47.9688 20.4009 48.2729 20.0882C49.5104 18.8106 50.3515 17.8212 50.9123 17.0737C51.169 16.7365 51.6825 16.7121 51.9865 17.026L54.2757 19.4372L54.2745 19.436ZM38.3458 17.9409C38.1128 17.6759 37.7389 17.6038 37.4349 17.7723C35.4024 18.9779 33.7213 20.5939 33.7213 22.7645C33.7213 25.0547 35.5893 26.8161 38.0891 26.8161C40.1216 26.8161 41.9423 25.6349 43.0402 24.6455C43.3443 24.3805 43.3667 23.898 43.11 23.5841L38.3458 17.9409V17.9409ZM39.5845 11.1899C39.8176 11.5038 40.2624 11.5514 40.5653 11.334L41.3354 10.7794C42.9468 9.6215 43.3904 8.3927 43.3904 7.37888C43.3904 5.85938 42.5031 4.34109 40.4943 4.34109C38.4156 4.34109 37.481 5.81174 37.481 7.18711C37.481 8.34506 38.1116 9.3088 38.7185 10.0808L39.5821 11.1899H39.5845Z" fill="#444444"/>
<path id="Vector_2" d="M8.76577 11.9507H17.3197C17.674 11.9507 17.9576 11.6614 17.9576 11.3001V0.673761C17.9576 0.312469 18.2413 0.0231911 18.5955 0.0231911H25.4954C25.8497 0.0231911 26.1333 0.312469 26.1333 0.673761V31.3494C26.1333 31.7107 25.8497 32 25.4954 32H18.5955C18.2413 32 17.9576 31.7107 17.9576 31.3494V19.7112C17.9576 19.3499 17.674 19.0606 17.3197 19.0606H8.76577C8.4115 19.0606 8.12784 19.3499 8.12784 19.7112V31.3494C8.12784 31.7107 7.84419 32 7.48992 32H0.637924C0.283655 32 0 31.7107 0 31.3494V0.650571C0 0.289278 0.283655 0 0.637924 0H7.48992C7.84419 0 8.12784 0.289278 8.12784 0.650571V11.277C8.10391 11.6627 8.4115 11.9519 8.76577 11.9519V11.9507Z" fill="#444444"/>
</g>
</svg>
