<svg width="32" height="32" viewBox="0 0 32 32" fill="none" xmlns="http://www.w3.org/2000/svg">
<g id="phone1">
<path id="Vector" d="M5.19998 7.867L8.13298 4.934C8.53298 4.667 8.93298 4.534 9.33298 4.667C9.59998 4.8 9.86598 5.067 9.99998 5.334C10.8 6.934 11.733 8.801 12.667 10.401C13.067 11.068 12.8 11.734 12.4 12.134L11.067 13.467C10.934 13.6 10.8 13.734 10.934 14C11.067 14.533 11.334 14.933 11.601 15.467C12.134 16.4 13.201 17.467 13.868 18.267C14.535 18.8 14.668 19.067 15.335 19.6C16.135 20.267 16.802 20.8 17.735 21.067C17.868 21.2 17.868 21.2 18.135 21.2C18.268 21.2 18.402 21.2 18.535 21.067C18.935 20.667 19.468 20 20.002 19.6C20.535 19.067 21.335 18.933 21.869 19.333C23.336 20.266 25.069 21.2 26.669 22C26.936 22.133 27.202 22.4 27.336 22.667C27.469 23.067 27.336 23.467 27.069 23.734C26.402 24.401 25.336 25.467 24.669 26.134C24.269 26.534 24.669 26.134 24.269 26.534C23.869 27.067 23.202 27.201 22.536 27.201C22.536 27.201 22.536 27.201 22.403 27.201C21.203 27.201 20.136 26.934 19.07 26.534C17.07 25.734 15.203 24.667 13.603 23.334C12.67 22.667 11.736 21.734 10.936 20.934L10.403 20.401C9.20298 19.201 8.13598 17.868 7.20298 16.401C6.26998 14.934 5.46998 13.468 5.06998 11.868C4.80298 11.335 4.66998 10.535 4.66998 9.735C4.66998 9.202 4.66998 8.802 4.93698 8.402C5.06998 8.135 5.06998 8.002 5.20398 7.869L5.19998 7.867Z" fill="#444444"/>
</g>
</svg>
