<svg width="32" height="32" viewBox="0 0 32 32" fill="none" xmlns="http://www.w3.org/2000/svg">
<g id="pinterest">
<path id="Vector" d="M16.0012 3C23.0915 3 28.7375 8.64602 29.0001 15.6051C29.1314 22.958 23.0915 29.1292 15.6073 28.9979C8.64821 28.8666 2.87089 23.0893 3.00219 15.8677C3.1335 8.64602 9.04212 3 16.0012 3ZM15.2133 19.5441C15.2133 19.5441 15.3447 19.5441 15.2133 19.5441C15.3447 19.5441 15.3447 19.5441 15.2133 19.5441C15.6073 19.9381 15.8699 20.2007 16.2638 20.4633C16.9203 20.7259 17.5768 20.8572 18.2333 20.8572C19.1524 20.7259 20.0716 20.4633 20.8594 19.9381C21.7785 19.2815 22.435 18.3624 22.9602 17.4433C23.4854 16.1303 23.748 14.8172 23.748 13.5042C23.748 12.3225 23.4854 11.2721 22.8289 10.2217C21.6472 8.38341 19.9402 7.46429 17.7081 7.20169C16.9203 7.07039 16.1325 7.20169 15.3447 7.33299C14.0316 7.5956 12.8499 7.9895 11.7995 8.77732C9.96124 10.0903 8.77952 12.4538 9.17342 15.0799C9.30473 15.7364 9.56733 16.3929 9.82994 16.9181C10.2238 17.4433 10.6178 17.8372 11.2743 18.0998C11.5369 18.2311 11.7995 18.0998 11.7995 17.8372C12.0621 17.4433 12.0621 17.1807 12.1934 16.7868C12.1934 16.6555 12.1934 16.5242 12.0621 16.3929L11.9308 16.2616C11.6682 15.8677 11.4056 15.4738 11.4056 15.0799C11.2743 14.4233 11.2743 13.7668 11.4056 13.1103C11.7995 11.4034 12.7186 10.2217 14.2942 9.43383C15.6073 8.77732 17.0516 8.77732 18.4959 9.30253C19.2837 9.56514 19.9402 10.0903 20.4655 10.7469C20.8594 11.4034 21.122 12.0599 21.122 12.8477C21.122 14.0294 20.9907 15.2112 20.5968 16.3929C20.3342 17.0494 20.0716 17.5746 19.5463 18.0998C19.1524 18.625 18.6272 18.8876 17.9707 19.0189C17.5768 19.0189 17.1829 19.0189 16.789 18.7563C16.1325 18.3624 15.8699 17.7059 16.0012 16.9181C16.1325 16.3929 16.2638 15.7364 16.5264 15.2112C16.6577 14.6859 16.9203 14.1607 16.9203 13.5042C17.0516 13.1103 17.0516 12.5851 16.789 12.1912C16.5264 11.7973 16.2638 11.5347 15.7386 11.4034C15.2133 11.2721 14.6881 11.5347 14.2942 11.9286C13.9003 12.1912 13.769 12.7164 13.5064 13.1103C13.2438 14.0294 13.2438 14.9485 13.6377 15.8677C13.6377 15.999 13.6377 16.1303 13.6377 16.1303C13.2438 17.8372 12.8499 19.5441 12.456 21.2511C12.1934 22.0389 12.0621 22.8267 12.0621 23.6145C12.0621 24.4023 12.0621 25.0589 12.1934 25.8467C12.1934 25.978 12.1934 26.1093 12.3247 26.1093C12.456 26.1093 12.456 26.1093 12.5873 25.978C12.9812 25.4528 13.3751 24.9276 13.6377 24.4023C14.0316 23.7458 14.4255 22.958 14.5568 22.1702C14.6881 21.3824 14.9507 20.5946 15.082 19.9381C15.2133 19.6754 15.2133 19.5441 15.2133 19.5441Z" fill="#444444"/>
</g>
</svg>
