<svg width="32" height="32" viewBox="0 0 32 32" fill="none" xmlns="http://www.w3.org/2000/svg">
<g id="right-chevron">
<path id="Vector" d="M22.4 2.667H17.067L3.33402 15.067C2.80102 15.6 2.80102 16.534 3.33402 17.067L17.067 29.334H22.4L8.66702 16.934C8.13402 16.401 8.13402 15.467 8.66702 14.934L22.4 2.667V2.667ZM18.933 28H17.6L5.33302 16.933C4.80002 16.4 4.80002 15.466 5.33302 14.933L17.6 4H18.933L6.66601 15.067C6.13301 15.6 6.13301 16.534 6.66601 17.067L18.933 28Z" fill="#444444"/>
<path id="Vector_2" d="M29.067 2.667H23.734L10.001 15.067C9.46801 15.6 9.46801 16.534 10.001 17.067L23.734 29.334H29.067L15.334 16.934C14.801 16.401 14.801 15.467 15.334 14.934L29.067 2.667V2.667ZM25.6 28H24.267L12 16.933C11.467 16.4 11.467 15.466 12 14.933L24.267 4H25.6L13.333 15.067C12.8 15.6 12.8 16.534 13.333 17.067L25.6 28Z" fill="#444444"/>
</g>
</svg>
