<svg width="32" height="32" viewBox="0 0 32 32" fill="none" xmlns="http://www.w3.org/2000/svg">
<g id="sans-serif-open-quote">
<path id="Vector" d="M13.92 15.53V26.32H3V19.17C3 16.44 3.52 13.97 4.43 11.76C5.34 9.68 6.9 7.47 9.24 5.13L13.27 8.25C11.97 9.55 11.06 10.85 10.41 12.02C9.76 13.19 9.24 14.36 9.11 15.53H13.92ZM29 15.53V26.32H18.08V19.17C18.08 16.44 18.6 13.97 19.51 11.76C20.42 9.55 21.98 7.34 24.32 5L28.35 8.12C27.05 9.42 26.14 10.72 25.49 11.89C24.84 13.06 24.32 14.23 24.19 15.4H29V15.53Z" fill="#444444"/>
</g>
</svg>
