<svg width="32" height="32" viewBox="0 0 32 32" fill="none" xmlns="http://www.w3.org/2000/svg">
<g id="sans-serif-closed-quote">
<path id="Vector" d="M13.92 5V12.15C13.92 14.88 13.4 17.35 12.49 19.69C11.58 21.9 10.02 24.11 7.68 26.32L3.65 23.2C4.95 21.9 5.86 20.6 6.51 19.43C7.16 18.26 7.68 17.09 7.81 15.92H3V5H13.92ZM29 5V12.15C29 14.88 28.48 17.35 27.57 19.69C26.66 21.9 25.1 24.11 22.76 26.32L18.73 23.2C20.03 21.9 20.94 20.6 21.59 19.43C22.24 18.26 22.76 17.09 22.89 15.92H17.82V5H29Z" fill="#444444"/>
</g>
</svg>
