<svg width="32" height="32" viewBox="0 0 32 32" fill="none" xmlns="http://www.w3.org/2000/svg">
<g id="search">
<path id="Vector" d="M28.8 27.867L19.067 18.134C20.534 16.534 21.334 14.401 21.334 12.001C21.334 6.801 17.201 2.668 12.001 2.668C6.801 2.668 2.668 6.801 2.668 12.001C2.668 17.201 6.801 21.334 12.001 21.334C14.401 21.334 16.534 20.534 18.134 19.067L27.867 28.8C28.134 29.067 28.534 29.067 28.8 28.8C29.066 28.533 29.067 28.133 28.8 27.867ZM12 20C7.59999 20 4 16.4 4 12C4 7.6 7.59999 4 12 4C16.4 4 20 7.6 20 12C20 16.4 16.4 20 12 20Z" fill="#444444"/>
</g>
</svg>
