<svg width="32" height="32" viewBox="0 0 32 32" fill="none" xmlns="http://www.w3.org/2000/svg">
<g id="serif-closed-quote">
<g id="Group">
<path id="Vector" d="M13.4523 9.35176C13.9749 10.005 14.2362 10.9196 14.4975 11.8342C14.7588 12.8794 14.8894 13.9246 14.8894 14.9698C14.8894 17.3216 14.2362 19.5427 13.0603 21.3719C11.8844 23.201 10.0553 24.7688 7.70352 25.9447L7.05025 24.7688C8.35678 24.2462 9.53266 23.3317 10.5779 22.2864C11.6231 21.1106 12.1457 19.9347 12.2764 18.7588C12.407 18.2362 12.5377 17.7136 12.5377 17.191C12.5377 16.6683 12.407 16.2764 12.2764 15.8844C11.2312 16.9296 9.92462 17.5829 8.35678 17.5829C6.78894 17.5829 5.48241 17.0603 4.43719 16.1457C3.52261 15.2312 3 13.9246 3 12.2261C3 10.6583 3.52261 9.35176 4.56784 8.43719C5.61307 7.52261 6.9196 7 8.61809 7C10.8392 7 12.5377 7.78392 13.4523 9.35176ZM27.5628 9.35176C28.0854 10.005 28.3467 10.9196 28.608 11.8342C28.8693 12.8794 29 13.9246 29 14.9698C29 17.3216 28.3467 19.5427 27.1709 21.3719C25.995 23.3317 24.1658 24.7688 21.8141 25.9447L21.2915 24.8995C22.598 24.3769 23.7739 23.4623 24.8191 22.4171C25.8643 21.2412 26.3869 20.0653 26.5176 18.8894C26.6482 18.3668 26.7789 17.8442 26.7789 17.3216C26.7789 16.799 26.6482 16.407 26.5176 16.0151C25.4724 17.0603 24.1658 17.7136 22.598 17.7136C21.0302 17.7136 19.7236 17.191 18.6784 16.2764C17.6332 15.3618 17.1106 14.0553 17.1106 12.3568C17.1106 10.7889 17.6332 9.48241 18.6784 8.56784C19.7236 7.52261 21.0302 7.13065 22.7286 7.13065C24.9498 7 26.6482 7.78392 27.5628 9.35176Z" fill="#444444"/>
</g>
</g>
</svg>
