<svg width="32" height="32" viewBox="0 0 32 32" fill="none" xmlns="http://www.w3.org/2000/svg">
<g id="serif-open-quote">
<g id="Group">
<path id="Vector" d="M4.55224 23.5572C4.03483 22.9104 3.77612 22.005 3.51741 21.0995C3.12935 19.9353 3 18.9005 3 17.8657C3 15.5373 3.64677 13.3383 4.81095 11.5274C5.97512 9.58706 7.78607 8.16418 10.1144 7L10.7612 8.29353C9.46766 8.81095 8.30348 9.58706 7.26866 10.7512C6.36318 11.9154 5.71642 13.0796 5.58706 14.2438C5.45771 14.7612 5.32836 15.2786 5.32836 15.796C5.32836 16.3134 5.45771 16.7015 5.58706 17.0896C6.62189 16.0547 7.91542 15.408 9.46766 15.408C11.0199 15.408 12.3134 15.9254 13.3483 16.8308C14.3831 17.7363 14.9005 19.0299 14.9005 20.7114C14.9005 22.2637 14.3831 23.5572 13.3483 24.4627C12.3134 25.4975 11.0199 25.8856 9.33831 25.8856C7.1393 25.8856 5.45771 25.1095 4.55224 23.5572ZM18.5224 23.5572C18.005 22.9104 17.7463 22.005 17.4876 21.0995C17.2289 20.0647 17.0995 19.0298 17.0995 17.995C17.0995 15.6667 17.7463 13.4677 18.9104 11.6567C20.0746 9.71642 21.8856 8.29353 24.2139 7.12935L24.8607 8.29353C23.5672 8.81095 22.403 9.71642 21.3682 10.7512C20.3333 11.9154 19.8159 13.0796 19.6866 14.2438C19.5572 14.7612 19.4279 15.2786 19.4279 15.796C19.4279 16.3134 19.5572 16.7015 19.6866 17.0896C20.7214 16.0547 22.0149 15.408 23.5672 15.408C25.1194 15.408 26.4129 15.9254 27.4478 16.8308C28.4826 17.7363 29 19.0299 29 20.7114C29 22.2637 28.4826 23.5572 27.4478 24.4627C26.4129 25.4975 25.1194 25.8856 23.4378 25.8856C21.1095 25.8856 19.4279 25.1095 18.5224 23.5572Z" fill="#444444"/>
</g>
</g>
</svg>
