<svg width="32" height="32" viewBox="0 0 32 32" fill="none" xmlns="http://www.w3.org/2000/svg">
<g id="shopping-cart">
<path id="Vector" d="M11.467 24.667C11.467 25.403 10.87 26 10.134 26C9.398 26 8.80099 25.403 8.80099 24.667C8.80099 23.931 9.398 23.334 10.134 23.334C10.87 23.334 11.467 23.931 11.467 24.667Z" fill="#444444"/>
<path id="Vector_2" d="M24.133 24.667C24.133 25.403 23.536 26 22.8 26C22.064 26 21.467 25.403 21.467 24.667C21.467 23.931 22.064 23.334 22.8 23.334C23.536 23.334 24.133 23.931 24.133 24.667Z" fill="#444444"/>
<path id="Vector_3" d="M24.267 19.333C24.934 19.333 25.467 18.8 25.6 18.133L26.533 10.133C26.666 9.33299 26 8.66599 25.2 8.66599H10.533L10.666 9.99899H25.199L24.132 17.999H10.532L9.19899 7.19899C9.06599 6.53199 8.53199 5.99899 7.86599 5.99899H5.46599V7.33199H7.99899L8.13199 8.66499L9.33199 18.398L8.26499 19.865C7.59799 20.798 8.26499 21.998 9.33199 21.998H25.465V20.665H9.19799L10.131 19.332H24.264L24.267 19.333Z" fill="#444444"/>
</g>
</svg>
