<svg width="32" height="32" viewBox="0 0 32 32" fill="none" xmlns="http://www.w3.org/2000/svg">
<g id="star">
<path id="Vector" d="M16.667 6.267L18.8 12.534C18.933 12.801 19.2 12.934 19.467 12.934L26.134 13.067C26.801 13.067 27.067 13.867 26.534 14.267L21.201 18.267C20.934 18.4 20.934 18.667 20.934 18.934L22.801 25.201C22.934 25.868 22.268 26.268 21.734 26.001L16.267 22.268C16 22.135 15.734 22.135 15.467 22.268L10 26.001C9.46701 26.401 8.80001 25.868 8.93301 25.201L10.8 18.934C10.933 18.667 10.8 18.401 10.533 18.267L5.20001 14.267C5.06701 13.867 5.33301 13.067 5.86701 13.067L12.534 12.934C12.801 12.934 13.067 12.801 13.201 12.534L15.334 6.267C15.601 5.734 16.401 5.734 16.667 6.267Z" fill="#444444"/>
</g>
</svg>
