<svg width="32" height="32" viewBox="0 0 32 32" fill="none" xmlns="http://www.w3.org/2000/svg">
<g id="up-chevron">
<path id="Vector" d="M15.067 8.66701C15.6 8.13401 16.534 8.13401 17.067 8.66701L29.334 22.4V17.067L16.934 3.33401C16.401 2.80101 15.467 2.80101 14.934 3.33401L2.66699 17.067V22.4L15.067 8.66701V8.66701ZM16.933 6.66701C16.4 6.13401 15.466 6.13401 14.933 6.66701L3.99999 18.934V17.601L15.067 5.33401C15.6 4.80101 16.534 4.80101 17.067 5.33401L28.134 17.601V18.934L16.934 6.66701H16.933Z" fill="#444444"/>
<path id="Vector_2" d="M15.067 15.333C15.6 14.8 16.534 14.8 17.067 15.333L29.334 29.066V23.733L16.934 10C16.401 9.467 15.467 9.467 14.934 10L2.66699 23.733V29.066L15.067 15.333V15.333ZM16.933 13.333C16.4 12.8 15.466 12.8 14.933 13.333L3.99999 25.6V24.267L15.067 12C15.6 11.467 16.534 11.467 17.067 12L28.134 24.267V25.6L16.934 13.333H16.933Z" fill="#444444"/>
</g>
</svg>
