<svg width="32" height="32" viewBox="0 0 32 32" fill="none" xmlns="http://www.w3.org/2000/svg">
<path d="M15.867 25.2C14 25.2 12.134 25.2 10.4 25.067C9.06701 25.067 7.60001 24.934 6.26701 24.667C4.53401 24.4 3.46701 23.2 3.20001 21.467C2.80001 19.334 2.80001 17.2 2.93301 14.934C2.93301 13.867 3.06601 12.667 3.06601 11.601C3.06601 10.934 3.19901 10.401 3.33301 9.734C3.73301 8.267 4.80001 7.467 6.13301 7.201C7.46601 6.935 8.80001 6.934 10.133 6.801C13.066 6.668 16.133 6.668 19.066 6.668C21.066 6.668 23.066 6.801 25.066 6.935C25.466 6.935 25.999 7.068 26.399 7.202C27.732 7.602 28.532 8.669 28.666 10.002C28.8 11.335 28.933 12.535 29.066 13.869C29.199 16.136 29.066 18.402 28.799 20.802C28.666 21.469 28.666 22.002 28.399 22.535C27.866 23.735 26.799 24.402 25.466 24.535C23.866 24.668 22.266 24.802 20.666 24.802C19.066 25.069 17.466 25.202 15.866 25.202L15.867 25.2ZM13.467 11.867C13.467 14.667 13.467 17.334 13.467 20C15.734 18.667 17.867 17.333 20.134 15.867C17.867 14.534 15.734 13.2 13.467 11.867Z" fill="#444444"/>
</svg>
