<svg aria-hidden="true" style="position: absolute; width: 0; height: 0; overflow: hidden;" version="1.1" xmlns="http://www.w3.org/2000/svg" xmlns:xlink="http://www.w3.org/1999/xlink">
<defs>
<symbol id="icon-sign-in-test" viewBox="0 0 32 32">
<path d="M23.6 15.067l-2.667-2.667c-0.133-0.267-0.533-0.4-0.933-0.4h-8c-0.4 0-0.667 0.133-0.933 0.4l-2.8 2.8c-0.133 0.133-0.267 0.533-0.267 0.8v9.333c0 0.667 0.533 1.333 1.333 1.333h13.333c0.667 0 1.333-0.667 1.333-1.333v-9.333c0-0.4-0.133-0.8-0.4-0.933zM22.667 25.333h-13.333v-9.333l2.8-2.667h8l2.533 2.667v9.333z"></path>
<path d="M20 9.333v1.333h-1.333v-1.333c0-1.467-1.2-2.667-2.667-2.667s-2.667 1.2-2.667 2.667v1.333h-1.333v-1.333c0-2.267 1.733-4 4-4s4 1.733 4 4z"></path>
<path d="M16 16.667c-1.467 0-2.667 1.2-2.667 2.667s1.2 2.667 2.667 2.667 2.667-1.2 2.667-2.667-1.2-2.667-2.667-2.667zM16 20.667c-0.8 0-1.333-0.533-1.333-1.333s0.533-1.333 1.333-1.333 1.333 0.533 1.333 1.333-0.533 1.333-1.333 1.333z"></path>
</symbol>
<symbol id="icon-shipping-test" viewBox="0 0 32 32">
<path d="M28 6.667h-14.667c-0.8 0-1.333 0.533-1.333 1.333v13.333c0 0.8 0.533 1.333 1.333 1.333h8c0-0.533 0.133-0.933 0.4-1.333h-8.4v-13.333h14.667v13.333h-1.733c0.267 0.4 0.4 0.8 0.4 1.333h1.333c0.667 0 1.333-0.667 1.333-1.333v-13.333c0-0.8-0.667-1.333-1.333-1.333z"></path>
<path d="M26.267 21.333c-0.4-0.8-1.333-1.333-2.267-1.333s-1.867 0.533-2.267 1.333c-0.267 0.4-0.4 0.8-0.4 1.333 0 1.467 1.2 2.667 2.667 2.667s2.667-1.2 2.667-2.667c0-0.533-0.133-0.933-0.4-1.333zM24 24c-0.8 0-1.333-0.667-1.333-1.333s0.533-1.333 1.333-1.333 1.333 0.667 1.333 1.333-0.533 1.333-1.333 1.333z"></path>
<path d="M9.333 13.333v1.333h-2.667l-2.667 2.667v4h1.067c-0.267 0.4-0.4 0.8-0.4 1.333h-0.667c-0.8 0-1.333-0.667-1.333-1.333v-4c0-0.4 0.133-0.667 0.4-0.933l2.667-2.667c0.267-0.267 0.667-0.4 0.933-0.4h2.667z"></path>
<path d="M13.333 10.667v12h-3.333c0-0.533-0.133-0.933-0.4-1.333h2.4v-10.667h1.333z"></path>
<path d="M9.6 21.333c-0.4-0.8-1.333-1.333-2.267-1.333s-1.867 0.533-2.267 1.333c-0.267 0.4-0.4 0.8-0.4 1.333 0 1.467 1.2 2.667 2.667 2.667s2.667-1.2 2.667-2.667c0-0.533-0.133-0.933-0.4-1.333zM7.333 24c-0.8 0-1.333-0.667-1.333-1.333s0.533-1.333 1.333-1.333 1.333 0.667 1.333 1.333-0.533 1.333-1.333 1.333z"></path>
</symbol>
<symbol id="icon-search-test" viewBox="0 0 32 32">
<path d="M12 2.667c-5.2 0-9.333 4.133-9.333 9.333s4.133 9.333 9.333 9.333 9.333-4.133 9.333-9.333-4.133-9.333-9.333-9.333zM12 20c-4.4 0-8-3.6-8-8s3.6-8 8-8 8 3.6 8 8-3.6 8-8 8z"></path>
<path d="M17.867 17.867v0c-0.267 0.267-0.267 0.667 0 0.933l10 10c0.267 0.267 0.667 0.267 0.933 0v0c0.267-0.267 0.267-0.667 0-0.933l-10-10c-0.267-0.267-0.667-0.267-0.933 0z"></path>
</symbol>
<symbol id="icon-cart-test" viewBox="0 0 32 32">
<path d="M20.667 2.667c0.8 0 1.333 0.533 1.333 1.333v8h-1.333v-8h-9.333v8h-1.333v-8c0-0.8 0.533-1.333 1.333-1.333h9.333z"></path>
<path d="M5.333 10.667h-1.333c-0.8 0-1.333 0.533-1.333 1.333v16c0 0.8 0.533 1.333 1.333 1.333h24c0.8 0 1.333-0.533 1.333-1.333v-16c0-0.8-0.533-1.333-1.333-1.333h-1.333l-2.667 1.333-2.667-1.333-2.667 1.333-2.667-1.333-2.667 1.333-2.667-1.333-2.667 1.333-2.667-1.333zM28 28h-24v-16h1.333l2.667 1.333 2.667-1.333 2.667 1.333 2.667-1.333 2.667 1.333 2.667-1.333 2.667 1.333 2.667-1.333h1.333v16z"></path>
</symbol>
<symbol id="icon-account-test" viewBox="0 0 32 32">
<path d="M16 2.667c-2.933 0-5.333 2.4-5.333 5.333s2.4 5.333 5.333 5.333 5.333-2.4 5.333-5.333-2.4-5.333-5.333-5.333zM16 12c-2.267 0-4-1.867-4-4 0-2.267 1.733-4 4-4s4 1.733 4 4c0 2.133-1.733 4-4 4z"></path>
<path d="M23.6 17.733l-2.667-2.667c-0.133-0.267-0.533-0.4-0.933-0.4h-1.333v1.333h1.467l2.533 2.667v9.333h-13.333v-9.333l2.8-2.667h1.2v-1.333h-1.333c-0.4 0-0.667 0.133-0.933 0.4l-2.8 2.8c-0.133 0.133-0.267 0.533-0.267 0.8v9.333c0 0.667 0.533 1.333 1.333 1.333h13.333c0.667 0 1.333-0.667 1.333-1.333v-9.333c0-0.4-0.133-0.8-0.4-0.933z"></path>
</symbol>
<symbol id="icon-icon-responsive" viewBox="0 0 57 32">
<path d="M28.644 1.109v29.782c0 0.612-0.499 1.109-1.111 1.109h-6.127c-0.615 0-1.111-0.497-1.111-1.109v-10.734c0-0.612-0.497-1.109-1.111-1.109h-9.772c-0.615 0-1.111 0.497-1.111 1.109v10.734c0 0.612-0.497 1.109-1.109 1.109h-6.081c-0.612 0-1.109-0.497-1.109-1.109v-29.782c0-0.612 0.497-1.109 1.109-1.109h6.081c0.612 0 1.109 0.497 1.109 1.109v9.726c0 0.613 0.497 1.112 1.111 1.112h9.772c0.615 0 1.111-0.499 1.111-1.112v-9.726c0-0.612 0.497-1.109 1.111-1.109h6.127c0.612 0 1.111 0.497 1.111 1.109z"></path>
<path d="M27.532 0h-6.127c-0.615 0-1.111 0.497-1.111 1.109v9.726c0 0.613-0.497 1.112-1.111 1.112h-9.772c-0.615 0-1.111-0.499-1.111-1.112v-9.726c0-0.612-0.497-1.109-1.109-1.109h-6.081c-0.612 0-1.109 0.497-1.109 1.109v29.782c0 0.612 0.497 1.109 1.109 1.109h6.081c0.612 0 1.109-0.497 1.109-1.109v-10.734c0-0.612 0.497-1.109 1.111-1.109h9.772c0.615 0 1.111 0.497 1.111 1.109v10.734c0 0.612 0.497 1.109 1.111 1.109h6.127c0.612 0 1.111-0.497 1.111-1.109v-29.782c0-0.612-0.499-1.109-1.111-1.109z"></path>
<path d="M47.25 24.914c-1.413 1.307-4.571 3.932-7.576 3.932-3.202 0-5.473-2.411-5.473-5.473 0-2.413 1.3-3.665 2.18-4.453 0.825-0.738 1.939-1.681 3.942-2.942 0.236-0.145 0.545-0.094 0.714 0.125l6.271 8.089c0.166 0.219 0.145 0.535-0.058 0.721zM42.363 2.968c1.625 0 3.339 1.020 3.339 3.197 0 1.068-0.325 2.182-2.083 3.571l-1.606 1.242c-0.241 0.183-0.586 0.135-0.762-0.108l-1.066-1.454c-0.605-0.837-1.254-1.719-1.254-3.062 0-1.948 1.531-3.385 3.431-3.385zM56.629 30.58l-4.241-5.495c-0.164-0.21-0.145-0.509 0.039-0.702 1.512-1.57 2.553-2.824 3.32-3.848 0.169-0.227 0.13-0.55-0.087-0.733l-1.683-1.398c-0.236-0.198-0.586-0.159-0.769 0.082-0.721 0.94-1.541 1.881-2.761 3.176-0.224 0.241-0.615 0.227-0.813-0.034l-5.746-7.397c-0.178-0.231-0.14-0.559 0.082-0.745 1.558-1.287 1.372-1.015 2.105-1.661 2.457-2.132 2.872-4.171 2.872-5.611 0-3.108-2.225-6.213-6.536-6.213-4.451 0-6.727 3.294-6.727 6.539 0 1.965 0.866 3.725 2.71 6.17 0.188 0.251 0.125 0.605-0.14 0.776-1.087 0.694-3.349 2.18-4.702 3.535-1.020 1.020-2.782 3.060-2.782 6.399 0 4.919 3.894 8.581 8.952 8.581 3.342 0 6.896-1.965 9.55-4.463 0.229-0.217 0.596-0.181 0.786 0.068l2.811 3.631c0.101 0.133 0.256 0.21 0.424 0.21h2.91c0.444 0 0.699-0.516 0.424-0.866z"></path>
</symbol>
<symbol id="icon-logo" viewBox="0 0 64 32">
<path d="M63.646 8.772v0.504c0 0.22-0.181 0.402-0.402 0.402h-3.599c-0.221 0-0.402-0.181-0.402-0.402v-0.504c0-0.22 0.181-0.402 0.402-0.402h0.437v-3.563c0-0.098-0.079-0.181-0.181-0.181 0 0-13.564-2.311-27.36-2.311-14.284 0-28.813 2.311-28.813 2.311-0.075 0-0.138 0.047-0.165 0.11v3.634h0.437c0.221 0 0.402 0.181 0.402 0.402v0.504c0 0.22-0.181 0.402-0.402 0.402h-3.599c-0.22 0-0.402-0.181-0.402-0.402v-0.504c0-0.22 0.181-0.402 0.402-0.402h0.441v-5.874c0-0.102 0.079-0.181 0.181-0.181 0 0 15.879-2.315 31.518-2.315 15.154 0 30.081 2.315 30.081 2.315 0.102 0 0.181 0.079 0.181 0.181v5.874h0.441c0.221 0 0.402 0.181 0.402 0.402zM54.813 28.918h-1.549c-0.036 0-0.071-0.007-0.101-0.019l-1.778-0.733c-0.108-0.045-0.108-0.143 0-0.187l1.763-0.726zM60.654 28.918h-1.176l-1.69-1.69h1.176zM53.894 27.228h1.175l1.69 1.69h-1.176zM58.707 28.918h-1.176l-1.69-1.69h1.175zM63.646 25.942v4.263c0 0.044-0.036 0.081-0.081 0.081h-1.15c-0.045 0-0.081-0.036-0.081-0.081v-1.287h-0.909l-1.69-1.69h2.599v-1.286c0-0.045 0.036-0.081 0.081-0.081h1.15c0.045 0 0.081 0.036 0.081 0.081zM12.261 28.167l-1.778 0.733c-0.030 0.012-0.065 0.019-0.101 0.019h-1.549l1.665-1.665 1.763 0.726c0.108 0.044 0.108 0.142 0 0.187zM8.062 28.918h-1.176l1.69-1.69h1.175zM6.115 28.918h-1.176l1.69-1.69h1.175zM4.682 27.228h1.176l-1.69 1.69h-1.176zM3.91 27.228l-1.69 1.69h-0.909v1.287c0 0.044-0.036 0.081-0.081 0.081h-1.15c-0.045 0-0.081-0.036-0.081-0.081v-4.263c0-0.045 0.036-0.081 0.081-0.081h1.15c0.045 0 0.081 0.036 0.081 0.081v1.286zM50.382 30.986c-0.571-0.461-1.27 0.256-0.8 0.819 0.006 0.007 0.013 0.014 0.021 0.020 0.567 0.47 1.285-0.254 0.801-0.819-0.006-0.007-0.013-0.014-0.021-0.020zM48.659 24.936v-0.533c0-0.073-0.059-0.132-0.132-0.132h-3.675c-0.073 0-0.132 0.059-0.132 0.132v7.329c0 0.073 0.059 0.132 0.132 0.132h3.675c0.073 0 0.132-0.059 0.132-0.132v-0.533c0-0.073-0.059-0.132-0.132-0.132h-2.833c-0.073 0-0.132-0.059-0.132-0.132v-2.685c0-0.073 0.059-0.132 0.132-0.132h2.742c0.073 0 0.132-0.059 0.132-0.132v-0.533c0-0.073-0.059-0.132-0.132-0.132h-2.742c-0.073 0-0.132-0.059-0.132-0.132v-1.99c0-0.073 0.059-0.132 0.132-0.132h2.833c0.073 0 0.132-0.059 0.132-0.132zM40.564 27.657v-2.457c0-0.073 0.059-0.132 0.132-0.132h0.38c0.364 0 0.751 0.023 1.093 0.216 0.478 0.273 0.603 0.694 0.603 1.115 0 0.888-0.626 1.389-1.673 1.389h-0.403c-0.073 0-0.132-0.059-0.132-0.132zM41.831 28.653c-0.056-0.079-0.010-0.191 0.086-0.206 1.029-0.165 1.698-0.983 1.698-2.070 0-0.808-0.387-1.389-0.831-1.685-0.569-0.387-1.332-0.421-1.844-0.421h-1.086c-0.073 0-0.132 0.059-0.132 0.132v7.329c0 0.073 0.059 0.132 0.132 0.132h0.579c0.073 0 0.132-0.059 0.132-0.132v-3.060c0-0.073 0.059-0.132 0.132-0.132h0.016c0.043 0 0.084 0.021 0.108 0.057l2.232 3.211c0.025 0.035 0.065 0.057 0.108 0.057h0.7c0.107 0 0.169-0.121 0.107-0.208zM34.85 31.203c-1.707 0-3.085-1.389-3.085-3.13s1.377-3.13 3.085-3.13c1.707 0 3.085 1.389 3.085 3.13s-1.377 3.13-3.085 3.13zM34.85 24.146c-2.185 0-3.95 1.662-3.95 3.927 0 2.254 1.753 3.927 3.95 3.927s3.95-1.673 3.95-3.927c0-2.265-1.764-3.927-3.95-3.927zM29.453 24.271h-0.464c-0.055 0-0.105 0.035-0.124 0.087l-2.302 6.342c-0.042 0.116-0.206 0.116-0.248-0.001l-2.262-6.34c-0.019-0.052-0.068-0.087-0.124-0.087h-0.464c-0.066 0-0.121 0.048-0.13 0.113l-0.949 6.693-0.101 0.633c-0.013 0.080 0.049 0.152 0.13 0.152h0.596c0.066 0 0.121-0.048 0.13-0.113l0.095-0.672 0.511-4.657c0.015-0.139 0.209-0.162 0.255-0.029l1.889 5.384c0.018 0.053 0.068 0.088 0.124 0.088h0.827c0.056 0 0.105-0.035 0.124-0.088l1.912-5.383c0.047-0.132 0.241-0.109 0.255 0.030l0.485 4.655 0.090 0.671c0.009 0.065 0.065 0.114 0.131 0.114h0.599c0.080 0 0.141-0.070 0.131-0.149l-0.986-7.329c-0.009-0.065-0.065-0.114-0.131-0.114zM15.621 31.226c-0.785 0-1.343-0.592-1.343-1.343 0-0.592 0.319-0.899 0.535-1.093 0.203-0.181 0.475-0.413 0.968-0.722 0.058-0.036 0.133-0.023 0.175 0.030l1.539 1.986c0.042 0.054 0.036 0.131-0.014 0.177-0.346 0.32-1.122 0.965-1.859 0.965zM16.282 24.875c0.398 0 0.82 0.25 0.82 0.785 0 0.262-0.080 0.535-0.512 0.876l-0.394 0.304c-0.059 0.045-0.143 0.033-0.187-0.026l-0.262-0.358c-0.148-0.205-0.307-0.421-0.307-0.751 0-0.478 0.376-0.831 0.842-0.831zM18.751 30.131c0.37-0.385 0.627-0.694 0.814-0.945 0.042-0.056 0.032-0.135-0.022-0.18l-0.413-0.344c-0.058-0.048-0.143-0.038-0.189 0.021-0.176 0.23-0.378 0.461-0.677 0.779-0.055 0.059-0.151 0.055-0.2-0.009l-1.41-1.815c-0.044-0.056-0.034-0.137 0.021-0.183 0.382-0.316 0.337-0.249 0.516-0.407 0.603-0.524 0.706-1.024 0.706-1.377 0-0.763-0.546-1.525-1.605-1.525-1.093 0-1.65 0.808-1.65 1.605 0 0.482 0.212 0.914 0.665 1.515 0.046 0.061 0.031 0.148-0.034 0.19-0.267 0.171-0.822 0.535-1.154 0.868-0.25 0.25-0.683 0.751-0.683 1.571 0 1.206 0.956 2.106 2.197 2.106 0.821 0 1.693-0.482 2.344-1.095 0.056-0.053 0.146-0.044 0.193 0.017l0.69 0.891c0.025 0.032 0.063 0.051 0.104 0.051h0.714c0.109 0 0.171-0.126 0.104-0.212l-1.041-1.348c-0.040-0.052-0.036-0.125 0.010-0.172zM62.97 16.81c-0.55-0.597-1.242-0.833-1.902-1.037l-0.833-0.251c-0.644-0.189-0.833-0.377-0.911-0.471-0.11-0.141-0.141-0.283-0.141-0.472 0-0.236 0.11-0.409 0.267-0.566 0.267-0.251 0.629-0.314 0.896-0.314 0.311 0 0.809 0.047 1.463 0.471 0.18 0.117 0.423 0.052 0.521-0.14l0.724-1.416c0.093-0.183 0.018-0.409-0.168-0.494-0.92-0.423-1.979-0.684-2.901-0.684-1.273 0-2.153 0.456-2.688 0.99-0.456 0.456-0.959 1.242-0.959 2.53 0 0.534 0.063 1.273 0.597 1.854 0.424 0.471 1.069 0.707 1.509 0.849l0.707 0.22c0.676 0.204 1.084 0.314 1.352 0.55 0.22 0.189 0.299 0.424 0.299 0.629 0 0.267-0.11 0.503-0.267 0.66-0.173 0.189-0.503 0.362-1.053 0.362-0.778 0-1.513-0.353-2.073-0.785-0.179-0.138-0.438-0.082-0.544 0.118l-0.796 1.506c-0.089 0.169-0.033 0.378 0.129 0.479 0.631 0.394 1.153 0.592 1.303 0.647 0.77 0.283 1.399 0.346 2.059 0.346 1.116 0 2.2-0.173 3.096-1.069 0.754-0.754 0.99-1.682 0.99-2.64 0-0.723-0.141-1.304-0.676-1.87zM55.368 13.617v-1.583c0-0.201-0.163-0.364-0.364-0.364h-5.229c-0.201 0-0.364 0.163-0.364 0.364v9.755c0 0.201 0.163 0.364 0.364 0.364h5.229c0.201 0 0.364-0.163 0.364-0.364v-1.583c0-0.201-0.163-0.364-0.364-0.364h-2.51c-0.201 0-0.364-0.163-0.364-0.364v-1.080c0-0.201 0.163-0.364 0.364-0.364h2.337c0.201 0 0.364-0.163 0.364-0.364v-1.583c0-0.201-0.163-0.364-0.364-0.364h-2.337c-0.201 0-0.364-0.163-0.364-0.364v-1.017c0-0.201 0.163-0.364 0.364-0.364h2.51c0.201 0 0.364-0.163 0.364-0.364zM45.749 19.479v-7.445c0-0.201-0.163-0.364-0.364-0.364h-1.991c-0.201 0-0.364 0.163-0.364 0.364v9.755c0 0.201 0.163 0.364 0.364 0.364h5.26c0.201 0 0.364-0.163 0.364-0.364v-1.583c0-0.201-0.163-0.364-0.364-0.364h-2.541c-0.201 0-0.364-0.163-0.364-0.364zM38.445 19.089c-0.707 0.692-1.634 0.754-2.295 0.754h-0.186c-0.201 0-0.364-0.163-0.364-0.364v-5.135c0-0.201 0.163-0.364 0.364-0.364h0.296c0.676 0 1.524 0.063 2.169 0.66 0.519 0.487 0.817 1.32 0.817 2.295 0 1.163-0.456 1.823-0.801 2.153zM40.614 13.117c-1.352-1.304-3.112-1.446-4.165-1.446h-3.204c-0.201 0-0.364 0.163-0.364 0.364v9.755c0 0.201 0.163 0.364 0.364 0.364h3.439c1.792 0 3.19-0.754 4.023-1.587 1.021-1.022 1.367-2.247 1.367-3.63 0-1.132-0.236-2.64-1.462-3.819zM28.678 12.035v4.992c0 0.346-0.437 0.497-0.65 0.224l-4.254-5.441c-0.069-0.088-0.175-0.14-0.287-0.14h-2.178c-0.201 0-0.364 0.163-0.364 0.364v9.755c0 0.201 0.163 0.364 0.364 0.364h1.991c0.201 0 0.364-0.163 0.364-0.364v-4.992c0-0.346 0.437-0.497 0.65-0.224l4.254 5.441c0.069 0.088 0.175 0.14 0.287 0.14h2.178c0.201 0 0.364-0.163 0.364-0.364v-9.755c0-0.201-0.163-0.364-0.364-0.364h-1.991c-0.201 0-0.364 0.163-0.364 0.364zM14.197 17.838l0.645-1.908c0.111-0.328 0.575-0.33 0.688-0.003l0.663 1.908c0.082 0.236-0.093 0.483-0.344 0.483h-1.308c-0.249 0-0.424-0.244-0.345-0.48zM16.439 11.671h-2.468c-0.151 0-0.286 0.093-0.34 0.233l-3.744 9.755c-0.091 0.238 0.084 0.494 0.34 0.494h2.101c0.149 0 0.282-0.090 0.338-0.228l0.524-1.304c0.055-0.138 0.189-0.228 0.338-0.228l3.303-0c0.153 0 0.29 0.096 0.342 0.239l0.466 1.281c0.052 0.144 0.189 0.239 0.342 0.239h2.127c0.254 0 0.43-0.254 0.341-0.492l-3.667-9.755c-0.053-0.142-0.189-0.236-0.341-0.236zM6.648 12.035v3.186c0 0.201-0.163 0.364-0.364 0.364h-3.201c-0.201 0-0.364-0.163-0.364-0.364v-3.186c0-0.201-0.163-0.364-0.364-0.364h-1.991c-0.201 0-0.364 0.163-0.364 0.364v9.755c0 0.201 0.163 0.364 0.364 0.364h1.991c0.201 0 0.364-0.163 0.364-0.364v-3.516c0-0.201 0.163-0.364 0.364-0.364h3.201c0.201 0 0.364 0.163 0.364 0.364v3.516c0 0.201 0.163 0.364 0.364 0.364h2.007c0.201 0 0.364-0.163 0.364-0.364v-9.755c0-0.201-0.163-0.364-0.364-0.364h-2.007c-0.201 0-0.364 0.163-0.364 0.364z"></path>
</symbol>
<symbol id="icon-add" viewBox="0 0 24 24">
<path d="M18.984 12.984h-6v6h-1.969v-6h-6v-1.969h6v-6h1.969v6h6v1.969z"></path>
</symbol>
<symbol id="icon-remove" viewBox="0 0 24 24">
<path d="M18.984 12.984h-13.969v-1.969h13.969v1.969z"></path>
</symbol>
<symbol id="icon-menu" viewBox="0 0 24 24">
<path d="M3 6h18v2.016h-18v-2.016zM3 12.984v-1.969h18v1.969h-18zM3 18v-2.016h18v2.016h-18z"></path>
</symbol>
<symbol id="icon-search" viewBox="0 0 24 24">
<path d="M9.516 14.016q1.875 0 3.188-1.313t1.313-3.188-1.313-3.188-3.188-1.313-3.188 1.313-1.313 3.188 1.313 3.188 3.188 1.313zM15.516 14.016l4.969 4.969-1.5 1.5-4.969-4.969v-0.797l-0.281-0.281q-1.781 1.547-4.219 1.547-2.719 0-4.617-1.875t-1.898-4.594 1.898-4.617 4.617-1.898 4.594 1.898 1.875 4.617q0 0.984-0.469 2.227t-1.078 1.992l0.281 0.281h0.797z"></path>
</symbol>
<symbol id="icon-settings" viewBox="0 0 24 24">
<path d="M12 15.516q1.453 0 2.484-1.031t1.031-2.484-1.031-2.484-2.484-1.031-2.484 1.031-1.031 2.484 1.031 2.484 2.484 1.031zM19.453 12.984l2.109 1.641q0.328 0.234 0.094 0.656l-2.016 3.469q-0.188 0.328-0.609 0.188l-2.484-0.984q-0.984 0.703-1.688 0.984l-0.375 2.625q-0.094 0.422-0.469 0.422h-4.031q-0.375 0-0.469-0.422l-0.375-2.625q-0.891-0.375-1.688-0.984l-2.484 0.984q-0.422 0.141-0.609-0.188l-2.016-3.469q-0.234-0.422 0.094-0.656l2.109-1.641q-0.047-0.328-0.047-0.984t0.047-0.984l-2.109-1.641q-0.328-0.234-0.094-0.656l2.016-3.469q0.188-0.328 0.609-0.188l2.484 0.984q0.984-0.703 1.688-0.984l0.375-2.625q0.094-0.422 0.469-0.422h4.031q0.375 0 0.469 0.422l0.375 2.625q0.891 0.375 1.688 0.984l2.484-0.984q0.422-0.141 0.609 0.188l2.016 3.469q0.234 0.422-0.094 0.656l-2.109 1.641q0.047 0.328 0.047 0.984t-0.047 0.984z"></path>
</symbol>
<symbol id="icon-delete" viewBox="0 0 24 24">
<path d="M18.984 6.422l-5.578 5.578 5.578 5.578-1.406 1.406-5.578-5.578-5.578 5.578-1.406-1.406 5.578-5.578-5.578-5.578 1.406-1.406 5.578 5.578 5.578-5.578z"></path>
</symbol>
<symbol id="icon-forward" viewBox="0 0 24 24">
<path d="M12 8.016v-4.031l8.016 8.016-8.016 8.016v-4.031h-8.016v-7.969h8.016z"></path>
</symbol>
<symbol id="icon-chevron-left" viewBox="0 0 24 24">
<path d="M15.422 7.406l-4.594 4.594 4.594 4.594-1.406 1.406-6-6 6-6z"></path>
</symbol>
<symbol id="icon-chevron-right" viewBox="0 0 24 24">
<path d="M9.984 6l6 6-6 6-1.406-1.406 4.594-4.594-4.594-4.594z"></path>
</symbol>
<symbol id="icon-print" viewBox="0 0 24 24">
<path d="M18 3v3.984h-12v-3.984h12zM18.984 12q0.422 0 0.727-0.281t0.305-0.703-0.305-0.727-0.727-0.305-0.703 0.305-0.281 0.727 0.281 0.703 0.703 0.281zM15.984 18.984v-4.969h-7.969v4.969h7.969zM18.984 8.016q1.219 0 2.109 0.891t0.891 2.109v6h-3.984v3.984h-12v-3.984h-3.984v-6q0-1.219 0.891-2.109t2.109-0.891h13.969z"></path>
</symbol>
<symbol id="icon-update" viewBox="0 0 24 24">
<path d="M9 16.172l10.594-10.594 1.406 1.406-12 12-5.578-5.578 1.406-1.406z"></path>
</symbol>
<symbol id="icon-chevron-up" viewBox="0 0 24 24">
<path d="M12 8.016l6 6-1.406 1.406-4.594-4.594-4.594 4.594-1.406-1.406z"></path>
</symbol>
<symbol id="icon-chevron-down" viewBox="0 0 24 24">
<path d="M16.594 8.578l1.406 1.406-6 6-6-6 1.406-1.406 4.594 4.594z"></path>
</symbol>
<symbol id="icon-credit_card" viewBox="0 0 24 24">
<path d="M20.016 8.016v-2.016h-16.031v2.016h16.031zM20.016 18v-6h-16.031v6h16.031zM20.016 3.984q0.844 0 1.406 0.586t0.563 1.43v12q0 0.844-0.563 1.43t-1.406 0.586h-16.031q-0.844 0-1.406-0.586t-0.563-1.43v-12q0-0.844 0.563-1.43t1.406-0.586h16.031z"></path>
</symbol>
<symbol id="icon-forward_to_inbox" viewBox="0 0 24 24">
<path d="M20.016 3.984h-16.031q-0.797 0-1.383 0.586t-0.586 1.43v12q0 0.844 0.586 1.43t1.383 0.586h9v-2.016h-9v-9.984l8.016 4.969 8.016-4.969v4.969h1.969v-6.984q0-0.844-0.586-1.43t-1.383-0.586zM12 11.016l-8.016-5.016h16.031zM18.984 15l4.031 3.984-4.031 4.031v-3h-3.984v-2.016h3.984v-3z"></path>
</symbol>
<symbol id="icon-email" viewBox="0 0 28 28">
<path d="M26 23.5v-12c-0.328 0.375-0.688 0.719-1.078 1.031-2.234 1.719-4.484 3.469-6.656 5.281-1.172 0.984-2.625 2.188-4.25 2.188h-0.031c-1.625 0-3.078-1.203-4.25-2.188-2.172-1.813-4.422-3.563-6.656-5.281-0.391-0.313-0.75-0.656-1.078-1.031v12c0 0.266 0.234 0.5 0.5 0.5h23c0.266 0 0.5-0.234 0.5-0.5zM26 7.078c0-0.391 0.094-1.078-0.5-1.078h-23c-0.266 0-0.5 0.234-0.5 0.5 0 1.781 0.891 3.328 2.297 4.438 2.094 1.641 4.188 3.297 6.266 4.953 0.828 0.672 2.328 2.109 3.422 2.109h0.031c1.094 0 2.594-1.437 3.422-2.109 2.078-1.656 4.172-3.313 6.266-4.953 1.016-0.797 2.297-2.531 2.297-3.859zM28 6.5v17c0 1.375-1.125 2.5-2.5 2.5h-23c-1.375 0-2.5-1.125-2.5-2.5v-17c0-1.375 1.125-2.5 2.5-2.5h23c1.375 0 2.5 1.125 2.5 2.5z"></path>
</symbol>
<symbol id="icon-check" viewBox="0 0 28 28">
<path d="M26.109 8.844c0 0.391-0.156 0.781-0.438 1.062l-13.438 13.438c-0.281 0.281-0.672 0.438-1.062 0.438s-0.781-0.156-1.062-0.438l-7.781-7.781c-0.281-0.281-0.438-0.672-0.438-1.062s0.156-0.781 0.438-1.062l2.125-2.125c0.281-0.281 0.672-0.438 1.062-0.438s0.781 0.156 1.062 0.438l4.594 4.609 10.25-10.266c0.281-0.281 0.672-0.438 1.062-0.438s0.781 0.156 1.062 0.438l2.125 2.125c0.281 0.281 0.438 0.672 0.438 1.062z"></path>
</symbol>
<symbol id="icon-close" viewBox="0 0 22 28">
<path d="M20.281 20.656c0 0.391-0.156 0.781-0.438 1.062l-2.125 2.125c-0.281 0.281-0.672 0.438-1.062 0.438s-0.781-0.156-1.062-0.438l-4.594-4.594-4.594 4.594c-0.281 0.281-0.672 0.438-1.062 0.438s-0.781-0.156-1.062-0.438l-2.125-2.125c-0.281-0.281-0.438-0.672-0.438-1.062s0.156-0.781 0.438-1.062l4.594-4.594-4.594-4.594c-0.281-0.281-0.438-0.672-0.438-1.062s0.156-0.781 0.438-1.062l2.125-2.125c0.281-0.281 0.672-0.438 1.062-0.438s0.781 0.156 1.062 0.438l4.594 4.594 4.594-4.594c0.281-0.281 0.672-0.438 1.062-0.438s0.781 0.156 1.062 0.438l2.125 2.125c0.281 0.281 0.438 0.672 0.438 1.062s-0.156 0.781-0.438 1.062l-4.594 4.594 4.594 4.594c0.281 0.281 0.438 0.672 0.438 1.062z"></path>
</symbol>
<symbol id="icon-search-plus" viewBox="0 0 26 28">
<path d="M16 12.5v1c0 0.266-0.234 0.5-0.5 0.5h-3.5v3.5c0 0.266-0.234 0.5-0.5 0.5h-1c-0.266 0-0.5-0.234-0.5-0.5v-3.5h-3.5c-0.266 0-0.5-0.234-0.5-0.5v-1c0-0.266 0.234-0.5 0.5-0.5h3.5v-3.5c0-0.266 0.234-0.5 0.5-0.5h1c0.266 0 0.5 0.234 0.5 0.5v3.5h3.5c0.266 0 0.5 0.234 0.5 0.5zM18 13c0-3.859-3.141-7-7-7s-7 3.141-7 7 3.141 7 7 7 7-3.141 7-7zM26 26c0 1.109-0.891 2-2 2-0.531 0-1.047-0.219-1.406-0.594l-5.359-5.344c-1.828 1.266-4.016 1.937-6.234 1.937-6.078 0-11-4.922-11-11s4.922-11 11-11 11 4.922 11 11c0 2.219-0.672 4.406-1.937 6.234l5.359 5.359c0.359 0.359 0.578 0.875 0.578 1.406z"></path>
</symbol>
<symbol id="icon-search-minus" viewBox="0 0 26 28">
<path d="M16 12.5v1c0 0.266-0.234 0.5-0.5 0.5h-9c-0.266 0-0.5-0.234-0.5-0.5v-1c0-0.266 0.234-0.5 0.5-0.5h9c0.266 0 0.5 0.234 0.5 0.5zM18 13c0-3.859-3.141-7-7-7s-7 3.141-7 7 3.141 7 7 7 7-3.141 7-7zM26 26c0 1.109-0.891 2-2 2-0.531 0-1.047-0.219-1.406-0.594l-5.359-5.344c-1.828 1.266-4.016 1.937-6.234 1.937-6.078 0-11-4.922-11-11s4.922-11 11-11 11 4.922 11 11c0 2.219-0.672 4.406-1.937 6.234l5.359 5.359c0.359 0.359 0.578 0.875 0.578 1.406z"></path>
</symbol>
<symbol id="icon-trash-o" viewBox="0 0 22 28">
<path d="M8 11.5v9c0 0.281-0.219 0.5-0.5 0.5h-1c-0.281 0-0.5-0.219-0.5-0.5v-9c0-0.281 0.219-0.5 0.5-0.5h1c0.281 0 0.5 0.219 0.5 0.5zM12 11.5v9c0 0.281-0.219 0.5-0.5 0.5h-1c-0.281 0-0.5-0.219-0.5-0.5v-9c0-0.281 0.219-0.5 0.5-0.5h1c0.281 0 0.5 0.219 0.5 0.5zM16 11.5v9c0 0.281-0.219 0.5-0.5 0.5h-1c-0.281 0-0.5-0.219-0.5-0.5v-9c0-0.281 0.219-0.5 0.5-0.5h1c0.281 0 0.5 0.219 0.5 0.5zM18 22.813v-14.812h-14v14.812c0 0.75 0.422 1.188 0.5 1.188h13c0.078 0 0.5-0.438 0.5-1.188zM7.5 6h7l-0.75-1.828c-0.047-0.063-0.187-0.156-0.266-0.172h-4.953c-0.094 0.016-0.219 0.109-0.266 0.172zM22 6.5v1c0 0.281-0.219 0.5-0.5 0.5h-1.5v14.812c0 1.719-1.125 3.187-2.5 3.187h-13c-1.375 0-2.5-1.406-2.5-3.125v-14.875h-1.5c-0.281 0-0.5-0.219-0.5-0.5v-1c0-0.281 0.219-0.5 0.5-0.5h4.828l1.094-2.609c0.313-0.766 1.25-1.391 2.078-1.391h5c0.828 0 1.766 0.625 2.078 1.391l1.094 2.609h4.828c0.281 0 0.5 0.219 0.5 0.5z"></path>
</symbol>
<symbol id="icon-shopping-cart" viewBox="0 0 26 28">
<path d="M10 24c0 1.094-0.906 2-2 2s-2-0.906-2-2 0.906-2 2-2 2 0.906 2 2zM24 24c0 1.094-0.906 2-2 2s-2-0.906-2-2 0.906-2 2-2 2 0.906 2 2zM26 7v8c0 0.5-0.391 0.938-0.891 1l-16.312 1.906c0.078 0.359 0.203 0.719 0.203 1.094 0 0.359-0.219 0.688-0.375 1h14.375c0.547 0 1 0.453 1 1s-0.453 1-1 1h-16c-0.547 0-1-0.453-1-1 0-0.484 0.703-1.656 0.953-2.141l-2.766-12.859h-3.187c-0.547 0-1-0.453-1-1s0.453-1 1-1h4c1.047 0 1.078 1.25 1.234 2h18.766c0.547 0 1 0.453 1 1z"></path>
</symbol>
<symbol id="icon-linkedin-square" viewBox="0 0 24 28">
<path d="M3.703 22.094h3.609v-10.844h-3.609v10.844zM7.547 7.906c-0.016-1.062-0.781-1.875-2.016-1.875s-2.047 0.812-2.047 1.875c0 1.031 0.781 1.875 2 1.875h0.016c1.266 0 2.047-0.844 2.047-1.875zM16.688 22.094h3.609v-6.219c0-3.328-1.781-4.875-4.156-4.875-1.937 0-2.797 1.078-3.266 1.828h0.031v-1.578h-3.609s0.047 1.016 0 10.844v0h3.609v-6.062c0-0.313 0.016-0.641 0.109-0.875 0.266-0.641 0.859-1.313 1.859-1.313 1.297 0 1.813 0.984 1.813 2.453v5.797zM24 6.5v15c0 2.484-2.016 4.5-4.5 4.5h-15c-2.484 0-4.5-2.016-4.5-4.5v-15c0-2.484 2.016-4.5 4.5-4.5h15c2.484 0 4.5 2.016 4.5 4.5z"></path>
</symbol>
<symbol id="icon-phone" viewBox="0 0 22 28">
<path d="M22 19.375c0 0.562-0.25 1.656-0.484 2.172-0.328 0.766-1.203 1.266-1.906 1.656-0.922 0.5-1.859 0.797-2.906 0.797-1.453 0-2.766-0.594-4.094-1.078-0.953-0.344-1.875-0.766-2.734-1.297-2.656-1.641-5.859-4.844-7.5-7.5-0.531-0.859-0.953-1.781-1.297-2.734-0.484-1.328-1.078-2.641-1.078-4.094 0-1.047 0.297-1.984 0.797-2.906 0.391-0.703 0.891-1.578 1.656-1.906 0.516-0.234 1.609-0.484 2.172-0.484 0.109 0 0.219 0 0.328 0.047 0.328 0.109 0.672 0.875 0.828 1.188 0.5 0.891 0.984 1.797 1.5 2.672 0.25 0.406 0.719 0.906 0.719 1.391 0 0.953-2.828 2.344-2.828 3.187 0 0.422 0.391 0.969 0.609 1.344 1.578 2.844 3.547 4.813 6.391 6.391 0.375 0.219 0.922 0.609 1.344 0.609 0.844 0 2.234-2.828 3.187-2.828 0.484 0 0.984 0.469 1.391 0.719 0.875 0.516 1.781 1 2.672 1.5 0.313 0.156 1.078 0.5 1.188 0.828 0.047 0.109 0.047 0.219 0.047 0.328z"></path>
</symbol>
<symbol id="icon-twitter" viewBox="0 0 26 28">
<path d="M25.312 6.375c-0.688 1-1.547 1.891-2.531 2.609 0.016 0.219 0.016 0.438 0.016 0.656 0 6.672-5.078 14.359-14.359 14.359-2.859 0-5.516-0.828-7.75-2.266 0.406 0.047 0.797 0.063 1.219 0.063 2.359 0 4.531-0.797 6.266-2.156-2.219-0.047-4.078-1.5-4.719-3.5 0.313 0.047 0.625 0.078 0.953 0.078 0.453 0 0.906-0.063 1.328-0.172-2.312-0.469-4.047-2.5-4.047-4.953v-0.063c0.672 0.375 1.453 0.609 2.281 0.641-1.359-0.906-2.25-2.453-2.25-4.203 0-0.938 0.25-1.797 0.688-2.547 2.484 3.062 6.219 5.063 10.406 5.281-0.078-0.375-0.125-0.766-0.125-1.156 0-2.781 2.25-5.047 5.047-5.047 1.453 0 2.766 0.609 3.687 1.594 1.141-0.219 2.234-0.641 3.203-1.219-0.375 1.172-1.172 2.156-2.219 2.781 1.016-0.109 2-0.391 2.906-0.781z"></path>
</symbol>
<symbol id="icon-truck" viewBox="0 0 29 28">
<path d="M10 22c0-1.094-0.906-2-2-2s-2 0.906-2 2 0.906 2 2 2 2-0.906 2-2zM4 14h6v-4h-2.469c-0.063 0-0.297 0.094-0.344 0.141l-3.047 3.047c-0.047 0.047-0.141 0.281-0.141 0.344v0.469zM24 22c0-1.094-0.906-2-2-2s-2 0.906-2 2 0.906 2 2 2 2-0.906 2-2zM28 5v16c0 1.156-1.219 1-2 1 0 2.203-1.797 4-4 4s-4-1.797-4-4h-6c0 2.203-1.797 4-4 4s-4-1.797-4-4h-1c-0.781 0-2 0.156-2-1 0-0.547 0.453-1 1-1v-5c0-1.109-0.156-2.344 0.703-3.203l3.094-3.094c0.391-0.391 1.141-0.703 1.703-0.703h2.5v-3c0-0.547 0.453-1 1-1h16c0.547 0 1 0.453 1 1z"></path>
</symbol>
<symbol id="icon-caret-down" viewBox="0 0 16 28">
<path d="M16 11c0 0.266-0.109 0.516-0.297 0.703l-7 7c-0.187 0.187-0.438 0.297-0.703 0.297s-0.516-0.109-0.703-0.297l-7-7c-0.187-0.187-0.297-0.438-0.297-0.703 0-0.547 0.453-1 1-1h14c0.547 0 1 0.453 1 1z"></path>
</symbol>
<symbol id="icon-caret-up" viewBox="0 0 16 28">
<path d="M16 19c0 0.547-0.453 1-1 1h-14c-0.547 0-1-0.453-1-1 0-0.266 0.109-0.516 0.297-0.703l7-7c0.187-0.187 0.438-0.297 0.703-0.297s0.516 0.109 0.703 0.297l7 7c0.187 0.187 0.297 0.438 0.297 0.703z"></path>
</symbol>
<symbol id="icon-caret-left" viewBox="0 0 11 28">
<path d="M10 7v14c0 0.547-0.453 1-1 1-0.266 0-0.516-0.109-0.703-0.297l-7-7c-0.187-0.187-0.297-0.438-0.297-0.703s0.109-0.516 0.297-0.703l7-7c0.187-0.187 0.438-0.297 0.703-0.297 0.547 0 1 0.453 1 1z"></path>
</symbol>
<symbol id="icon-caret-right" viewBox="0 0 9 28">
<path d="M9 14c0 0.266-0.109 0.516-0.297 0.703l-7 7c-0.187 0.187-0.438 0.297-0.703 0.297-0.547 0-1-0.453-1-1v-14c0-0.547 0.453-1 1-1 0.266 0 0.516 0.109 0.703 0.297l7 7c0.187 0.187 0.297 0.438 0.297 0.703z"></path>
</symbol>
<symbol id="icon-sort" viewBox="0 0 16 28">
<path d="M16 17c0 0.266-0.109 0.516-0.297 0.703l-7 7c-0.187 0.187-0.438 0.297-0.703 0.297s-0.516-0.109-0.703-0.297l-7-7c-0.187-0.187-0.297-0.438-0.297-0.703 0-0.547 0.453-1 1-1h14c0.547 0 1 0.453 1 1zM16 11c0 0.547-0.453 1-1 1h-14c-0.547 0-1-0.453-1-1 0-0.266 0.109-0.516 0.297-0.703l7-7c0.187-0.187 0.438-0.297 0.703-0.297s0.516 0.109 0.703 0.297l7 7c0.187 0.187 0.297 0.438 0.297 0.703z"></path>
</symbol>
<symbol id="icon-angle-double-left" viewBox="0 0 17 28">
<path d="M9.797 21.5c0 0.125-0.063 0.266-0.156 0.359l-0.781 0.781c-0.094 0.094-0.234 0.156-0.359 0.156s-0.266-0.063-0.359-0.156l-7.281-7.281c-0.094-0.094-0.156-0.234-0.156-0.359s0.063-0.266 0.156-0.359l7.281-7.281c0.094-0.094 0.234-0.156 0.359-0.156s0.266 0.063 0.359 0.156l0.781 0.781c0.094 0.094 0.156 0.234 0.156 0.359s-0.063 0.266-0.156 0.359l-6.141 6.141 6.141 6.141c0.094 0.094 0.156 0.234 0.156 0.359zM15.797 21.5c0 0.125-0.063 0.266-0.156 0.359l-0.781 0.781c-0.094 0.094-0.234 0.156-0.359 0.156s-0.266-0.063-0.359-0.156l-7.281-7.281c-0.094-0.094-0.156-0.234-0.156-0.359s0.063-0.266 0.156-0.359l7.281-7.281c0.094-0.094 0.234-0.156 0.359-0.156s0.266 0.063 0.359 0.156l0.781 0.781c0.094 0.094 0.156 0.234 0.156 0.359s-0.063 0.266-0.156 0.359l-6.141 6.141 6.141 6.141c0.094 0.094 0.156 0.234 0.156 0.359z"></path>
</symbol>
<symbol id="icon-angle-double-right" viewBox="0 0 15 28">
<path d="M9.297 15c0 0.125-0.063 0.266-0.156 0.359l-7.281 7.281c-0.094 0.094-0.234 0.156-0.359 0.156s-0.266-0.063-0.359-0.156l-0.781-0.781c-0.094-0.094-0.156-0.234-0.156-0.359s0.063-0.266 0.156-0.359l6.141-6.141-6.141-6.141c-0.094-0.094-0.156-0.234-0.156-0.359s0.063-0.266 0.156-0.359l0.781-0.781c0.094-0.094 0.234-0.156 0.359-0.156s0.266 0.063 0.359 0.156l7.281 7.281c0.094 0.094 0.156 0.234 0.156 0.359zM15.297 15c0 0.125-0.063 0.266-0.156 0.359l-7.281 7.281c-0.094 0.094-0.234 0.156-0.359 0.156s-0.266-0.063-0.359-0.156l-0.781-0.781c-0.094-0.094-0.156-0.234-0.156-0.359s0.063-0.266 0.156-0.359l6.141-6.141-6.141-6.141c-0.094-0.094-0.156-0.234-0.156-0.359s0.063-0.266 0.156-0.359l0.781-0.781c0.094-0.094 0.234-0.156 0.359-0.156s0.266 0.063 0.359 0.156l7.281 7.281c0.094 0.094 0.156 0.234 0.156 0.359z"></path>
</symbol>
<symbol id="icon-angle-left" viewBox="0 0 11 28">
<path d="M9.797 8.5c0 0.125-0.063 0.266-0.156 0.359l-6.141 6.141 6.141 6.141c0.094 0.094 0.156 0.234 0.156 0.359s-0.063 0.266-0.156 0.359l-0.781 0.781c-0.094 0.094-0.234 0.156-0.359 0.156s-0.266-0.063-0.359-0.156l-7.281-7.281c-0.094-0.094-0.156-0.234-0.156-0.359s0.063-0.266 0.156-0.359l7.281-7.281c0.094-0.094 0.234-0.156 0.359-0.156s0.266 0.063 0.359 0.156l0.781 0.781c0.094 0.094 0.156 0.219 0.156 0.359z"></path>
</symbol>
<symbol id="icon-angle-right" viewBox="0 0 9 28">
<path d="M9.297 15c0 0.125-0.063 0.266-0.156 0.359l-7.281 7.281c-0.094 0.094-0.234 0.156-0.359 0.156s-0.266-0.063-0.359-0.156l-0.781-0.781c-0.094-0.094-0.156-0.219-0.156-0.359 0-0.125 0.063-0.266 0.156-0.359l6.141-6.141-6.141-6.141c-0.094-0.094-0.156-0.234-0.156-0.359s0.063-0.266 0.156-0.359l0.781-0.781c0.094-0.094 0.234-0.156 0.359-0.156s0.266 0.063 0.359 0.156l7.281 7.281c0.094 0.094 0.156 0.234 0.156 0.359z"></path>
</symbol>
<symbol id="icon-angle-up" viewBox="0 0 18 28">
<path d="M16.797 18.5c0 0.125-0.063 0.266-0.156 0.359l-0.781 0.781c-0.094 0.094-0.219 0.156-0.359 0.156-0.125 0-0.266-0.063-0.359-0.156l-6.141-6.141-6.141 6.141c-0.094 0.094-0.234 0.156-0.359 0.156s-0.266-0.063-0.359-0.156l-0.781-0.781c-0.094-0.094-0.156-0.234-0.156-0.359s0.063-0.266 0.156-0.359l7.281-7.281c0.094-0.094 0.234-0.156 0.359-0.156s0.266 0.063 0.359 0.156l7.281 7.281c0.094 0.094 0.156 0.234 0.156 0.359z"></path>
</symbol>
<symbol id="icon-angle-down" viewBox="0 0 18 28">
<path d="M16.797 11.5c0 0.125-0.063 0.266-0.156 0.359l-7.281 7.281c-0.094 0.094-0.234 0.156-0.359 0.156s-0.266-0.063-0.359-0.156l-7.281-7.281c-0.094-0.094-0.156-0.234-0.156-0.359s0.063-0.266 0.156-0.359l0.781-0.781c0.094-0.094 0.219-0.156 0.359-0.156 0.125 0 0.266 0.063 0.359 0.156l6.141 6.141 6.141-6.141c0.094-0.094 0.234-0.156 0.359-0.156s0.266 0.063 0.359 0.156l0.781 0.781c0.094 0.094 0.156 0.234 0.156 0.359z"></path>
</symbol>
<symbol id="icon-info" viewBox="0 0 10 28">
<path d="M10 21v2c0 0.547-0.453 1-1 1h-8c-0.547 0-1-0.453-1-1v-2c0-0.547 0.453-1 1-1h1v-6h-1c-0.547 0-1-0.453-1-1v-2c0-0.547 0.453-1 1-1h6c0.547 0 1 0.453 1 1v9h1c0.547 0 1 0.453 1 1zM8 3v3c0 0.547-0.453 1-1 1h-4c-0.547 0-1-0.453-1-1v-3c0-0.547 0.453-1 1-1h4c0.547 0 1 0.453 1 1z"></path>
</symbol>
<symbol id="icon-exclamation" viewBox="0 0 10 28">
<path d="M8 19.5v3.5c0 0.547-0.453 1-1 1h-4c-0.547 0-1-0.453-1-1v-3.5c0-0.547 0.453-1 1-1h4c0.547 0 1 0.453 1 1zM8.469 3l-0.438 12c-0.016 0.547-0.484 1-1.031 1h-4c-0.547 0-1.016-0.453-1.031-1l-0.438-12c-0.016-0.547 0.422-1 0.969-1h5c0.547 0 0.984 0.453 0.969 1z"></path>
</symbol>
<symbol id="icon-ellipsis-h" viewBox="0 0 22 28">
<path d="M6 11.5v3c0 0.828-0.672 1.5-1.5 1.5h-3c-0.828 0-1.5-0.672-1.5-1.5v-3c0-0.828 0.672-1.5 1.5-1.5h3c0.828 0 1.5 0.672 1.5 1.5zM14 11.5v3c0 0.828-0.672 1.5-1.5 1.5h-3c-0.828 0-1.5-0.672-1.5-1.5v-3c0-0.828 0.672-1.5 1.5-1.5h3c0.828 0 1.5 0.672 1.5 1.5zM22 11.5v3c0 0.828-0.672 1.5-1.5 1.5h-3c-0.828 0-1.5-0.672-1.5-1.5v-3c0-0.828 0.672-1.5 1.5-1.5h3c0.828 0 1.5 0.672 1.5 1.5z"></path>
</symbol>
<symbol id="icon-ellipsis-v" viewBox="0 0 6 28">
<path d="M6 19.5v3c0 0.828-0.672 1.5-1.5 1.5h-3c-0.828 0-1.5-0.672-1.5-1.5v-3c0-0.828 0.672-1.5 1.5-1.5h3c0.828 0 1.5 0.672 1.5 1.5zM6 11.5v3c0 0.828-0.672 1.5-1.5 1.5h-3c-0.828 0-1.5-0.672-1.5-1.5v-3c0-0.828 0.672-1.5 1.5-1.5h3c0.828 0 1.5 0.672 1.5 1.5zM6 3.5v3c0 0.828-0.672 1.5-1.5 1.5h-3c-0.828 0-1.5-0.672-1.5-1.5v-3c0-0.828 0.672-1.5 1.5-1.5h3c0.828 0 1.5 0.672 1.5 1.5z"></path>
</symbol>
<symbol id="icon-youtube" viewBox="0 0 24 28">
<path d="M15.172 19.437v3.297c0 0.703-0.203 1.047-0.609 1.047-0.234 0-0.469-0.109-0.703-0.344v-4.703c0.234-0.234 0.469-0.344 0.703-0.344 0.406 0 0.609 0.359 0.609 1.047zM20.453 19.453v0.719h-1.406v-0.719c0-0.703 0.234-1.062 0.703-1.062s0.703 0.359 0.703 1.062zM5.359 16.047h1.672v-1.469h-4.875v1.469h1.641v8.891h1.563v-8.891zM9.859 24.938h1.391v-7.719h-1.391v5.906c-0.313 0.438-0.609 0.656-0.891 0.656-0.187 0-0.297-0.109-0.328-0.328-0.016-0.047-0.016-0.219-0.016-0.547v-5.688h-1.391v6.109c0 0.547 0.047 0.906 0.125 1.141 0.125 0.391 0.453 0.578 0.906 0.578 0.5 0 1.031-0.313 1.594-0.953v0.844zM16.562 22.625v-3.078c0-0.719-0.031-1.234-0.141-1.547-0.172-0.578-0.562-0.875-1.109-0.875-0.516 0-1 0.281-1.453 0.844v-3.391h-1.391v10.359h1.391v-0.75c0.469 0.578 0.953 0.859 1.453 0.859 0.547 0 0.938-0.297 1.109-0.859 0.109-0.328 0.141-0.844 0.141-1.563zM21.844 22.469v-0.203h-1.422c0 0.562-0.016 0.875-0.031 0.953-0.078 0.375-0.281 0.562-0.625 0.562-0.484 0-0.719-0.359-0.719-1.078v-1.359h2.797v-1.609c0-0.828-0.141-1.422-0.422-1.813-0.406-0.531-0.953-0.797-1.656-0.797-0.719 0-1.266 0.266-1.672 0.797-0.297 0.391-0.438 0.984-0.438 1.813v2.703c0 0.828 0.156 1.437 0.453 1.813 0.406 0.531 0.953 0.797 1.687 0.797s1.313-0.281 1.687-0.828c0.172-0.25 0.297-0.531 0.328-0.844 0.031-0.141 0.031-0.453 0.031-0.906zM12.344 8.203v-3.281c0-0.719-0.203-1.078-0.672-1.078-0.453 0-0.672 0.359-0.672 1.078v3.281c0 0.719 0.219 1.094 0.672 1.094 0.469 0 0.672-0.375 0.672-1.094zM23.578 19.938c0 1.797-0.016 3.719-0.406 5.469-0.297 1.234-1.297 2.141-2.5 2.266-2.875 0.328-5.781 0.328-8.672 0.328s-5.797 0-8.672-0.328c-1.203-0.125-2.219-1.031-2.5-2.266-0.406-1.75-0.406-3.672-0.406-5.469v0c0-1.813 0.016-3.719 0.406-5.469 0.297-1.234 1.297-2.141 2.516-2.281 2.859-0.313 5.766-0.313 8.656-0.313s5.797 0 8.672 0.313c1.203 0.141 2.219 1.047 2.5 2.281 0.406 1.75 0.406 3.656 0.406 5.469zM7.984 0h1.594l-1.891 6.234v4.234h-1.563v-4.234c-0.141-0.766-0.453-1.859-0.953-3.313-0.344-0.969-0.688-1.953-1.016-2.922h1.656l1.109 4.109zM13.766 5.203v2.734c0 0.828-0.141 1.453-0.438 1.844-0.391 0.531-0.938 0.797-1.656 0.797-0.703 0-1.25-0.266-1.641-0.797-0.297-0.406-0.438-1.016-0.438-1.844v-2.734c0-0.828 0.141-1.437 0.438-1.828 0.391-0.531 0.938-0.797 1.641-0.797 0.719 0 1.266 0.266 1.656 0.797 0.297 0.391 0.438 1 0.438 1.828zM19 2.672v7.797h-1.422v-0.859c-0.562 0.656-1.094 0.969-1.609 0.969-0.453 0-0.781-0.187-0.922-0.578-0.078-0.234-0.125-0.609-0.125-1.172v-6.156h1.422v5.734c0 0.328 0 0.516 0.016 0.547 0.031 0.219 0.141 0.344 0.328 0.344 0.281 0 0.578-0.219 0.891-0.672v-5.953h1.422z"></path>
</symbol>
<symbol id="icon-instagram" viewBox="0 0 24 28">
<path d="M16 14c0-2.203-1.797-4-4-4s-4 1.797-4 4 1.797 4 4 4 4-1.797 4-4zM18.156 14c0 3.406-2.75 6.156-6.156 6.156s-6.156-2.75-6.156-6.156 2.75-6.156 6.156-6.156 6.156 2.75 6.156 6.156zM19.844 7.594c0 0.797-0.641 1.437-1.437 1.437s-1.437-0.641-1.437-1.437 0.641-1.437 1.437-1.437 1.437 0.641 1.437 1.437zM12 4.156c-1.75 0-5.5-0.141-7.078 0.484-0.547 0.219-0.953 0.484-1.375 0.906s-0.688 0.828-0.906 1.375c-0.625 1.578-0.484 5.328-0.484 7.078s-0.141 5.5 0.484 7.078c0.219 0.547 0.484 0.953 0.906 1.375s0.828 0.688 1.375 0.906c1.578 0.625 5.328 0.484 7.078 0.484s5.5 0.141 7.078-0.484c0.547-0.219 0.953-0.484 1.375-0.906s0.688-0.828 0.906-1.375c0.625-1.578 0.484-5.328 0.484-7.078s0.141-5.5-0.484-7.078c-0.219-0.547-0.484-0.953-0.906-1.375s-0.828-0.688-1.375-0.906c-1.578-0.625-5.328-0.484-7.078-0.484zM24 14c0 1.656 0.016 3.297-0.078 4.953-0.094 1.922-0.531 3.625-1.937 5.031s-3.109 1.844-5.031 1.937c-1.656 0.094-3.297 0.078-4.953 0.078s-3.297 0.016-4.953-0.078c-1.922-0.094-3.625-0.531-5.031-1.937s-1.844-3.109-1.937-5.031c-0.094-1.656-0.078-3.297-0.078-4.953s-0.016-3.297 0.078-4.953c0.094-1.922 0.531-3.625 1.937-5.031s3.109-1.844 5.031-1.937c1.656-0.094 3.297-0.078 4.953-0.078s3.297-0.016 4.953 0.078c1.922 0.094 3.625 0.531 5.031 1.937s1.844 3.109 1.937 5.031c0.094 1.656 0.078 3.297 0.078 4.953z"></path>
</symbol>
<symbol id="icon-facebook-official" viewBox="0 0 24 28">
<path d="M22.672 2c0.734 0 1.328 0.594 1.328 1.328v21.344c0 0.734-0.594 1.328-1.328 1.328h-6.109v-9.297h3.109l0.469-3.625h-3.578v-2.312c0-1.047 0.281-1.75 1.797-1.75l1.906-0.016v-3.234c-0.328-0.047-1.469-0.141-2.781-0.141-2.766 0-4.672 1.687-4.672 4.781v2.672h-3.125v3.625h3.125v9.297h-11.484c-0.734 0-1.328-0.594-1.328-1.328v-21.344c0-0.734 0.594-1.328 1.328-1.328h21.344z"></path>
</symbol>
<symbol id="icon-cash" viewBox="0 0 32 32">
<path d="M0 25v-18h32v18h-32zM2 8.938v14.062h28v-14.062h-28zM21 16c0-3.313-2.238-6-5-6h13v12h-13c2.762 0 5-2.687 5-6zM25 18c0.828 0 1.5-0.896 1.5-2s-0.672-2-1.5-2-1.5 0.896-1.5 2 0.672 2 1.5 2zM18.118 13.478c-0.015 0.055-0.036 0.094-0.062 0.119-0.027 0.025-0.063 0.037-0.109 0.037s-0.118-0.028-0.219-0.086c-0.1-0.059-0.223-0.121-0.368-0.189-0.146-0.068-0.314-0.13-0.506-0.187s-0.402-0.083-0.631-0.083c-0.18 0-0.336 0.021-0.469 0.065s-0.245 0.104-0.334 0.18c-0.090 0.077-0.156 0.17-0.2 0.277s-0.065 0.222-0.065 0.342c0 0.18 0.049 0.335 0.147 0.466s0.229 0.248 0.394 0.35c0.165 0.103 0.351 0.198 0.56 0.287 0.207 0.090 0.42 0.185 0.637 0.284 0.217 0.101 0.429 0.214 0.637 0.341s0.395 0.279 0.557 0.456 0.293 0.385 0.394 0.624c0.1 0.24 0.149 0.521 0.149 0.847 0 0.425-0.078 0.797-0.236 1.118s-0.373 0.588-0.645 0.802c-0.271 0.215-0.587 0.376-0.949 0.484-0.046 0.014-0.096 0.020-0.143 0.031v1.092h-0.983v-0.963c-0.013 0-0.024 0.002-0.036 0.002-0.279 0-0.539-0.022-0.778-0.067s-0.451-0.101-0.634-0.164c-0.184-0.064-0.336-0.131-0.459-0.201s-0.211-0.132-0.265-0.186c-0.054-0.054-0.093-0.132-0.116-0.234-0.023-0.103-0.035-0.249-0.035-0.441 0-0.129 0.004-0.237 0.013-0.325s0.022-0.158 0.041-0.213 0.043-0.093 0.075-0.116c0.031-0.022 0.067-0.034 0.109-0.034 0.058 0 0.14 0.034 0.247 0.103s0.243 0.145 0.409 0.228c0.167 0.084 0.365 0.159 0.597 0.229 0.231 0.068 0.499 0.103 0.803 0.103 0.2 0 0.379-0.024 0.537-0.072s0.293-0.115 0.403-0.203 0.194-0.196 0.253-0.325c0.059-0.13 0.088-0.273 0.088-0.433 0-0.183-0.051-0.34-0.15-0.472-0.1-0.131-0.23-0.247-0.391-0.35-0.16-0.102-0.342-0.197-0.546-0.287s-0.414-0.185-0.631-0.284c-0.216-0.1-0.427-0.213-0.631-0.341s-0.386-0.278-0.546-0.455c-0.16-0.177-0.291-0.387-0.39-0.628s-0.15-0.531-0.15-0.868c0-0.388 0.072-0.728 0.215-1.021s0.337-0.537 0.581-0.73 0.531-0.338 0.862-0.434c0.17-0.050 0.346-0.085 0.526-0.109v-1.034h0.983v1.034c0.039 0.005 0.078 0.003 0.117 0.009 0.191 0.029 0.371 0.068 0.537 0.118 0.167 0.049 0.314 0.104 0.444 0.167 0.129 0.062 0.214 0.113 0.256 0.155s0.069 0.076 0.085 0.105c0.014 0.029 0.026 0.068 0.037 0.116s0.018 0.108 0.021 0.182c0.004 0.072 0.006 0.163 0.006 0.271 0 0.121-0.003 0.224-0.009 0.308-0.009 0.079-0.019 0.149-0.034 0.203zM11 16c0 3.313 2.238 6 5 6h-13v-12h13c-2.762 0-5 2.687-5 6zM7 14c-0.829 0-1.5 0.896-1.5 2s0.671 2 1.5 2c0.828 0 1.5-0.896 1.5-2s-0.672-2-1.5-2z"></path>
</symbol>
<symbol id="icon-barcode" viewBox="0 0 32 32">
<path d="M23.807 19.398h-1.758v0.586h1.758v-0.586zM17.248 21.156v0.586h1.758v0.586h0.586v-2.344h-0.586v1.172h-1.758zM17.248 23.5h1.172v-0.586h-1.172v0.586zM18.42 22.914h0.586v-0.586h-0.586v0.586zM17.248 19.984h-0.586v1.172h0.586v-1.172zM14 8h-2v10h2v-10zM16 8h-1v10h1v-10zM22.049 23.5h1.758v-0.586h-1.758v0.586zM19.006 19.398h-1.758v0.586h1.758v-0.586zM24.393 22.914v-2.93h-0.586v2.93h0.586zM25 8h-1v10h1v-10zM12.448 22.328h-0.586v0.586h0.586v-0.586zM20 8h-2v10h2v-10zM22 8h-1v10h1v-10zM21.463 22.914h0.586v-2.93h-0.586v2.93zM7.062 23.5h2.93v-0.586h-2.344v-0.586h-0.586v1.172zM7.062 20.57h0.586v-0.586h-0.586v0.586zM8.234 21.742h1.172v-0.586h-1.172v0.586zM13.034 21.156v0.586h1.172v-0.586h-1.172zM7.648 19.398v0.586h1.758v-0.586h-1.758zM8 8h-1v10h1v-10zM30 4h-28c-1.104 0-2 0.896-2 2v20c0 1.104 0.896 2 2 2h28c1.104 0 2-0.896 2-2v-20c0-1.104-0.896-2-2-2zM30 26h-28v-20h28v20zM6 8h-2v16h2v-16zM7.648 22.328h0.586v-0.586h-0.586v0.586zM14.792 19.984h-0.586v1.172h0.586v-1.172zM12.448 19.398v0.586h1.758v-0.586h-1.758zM9.992 21.156v-1.172h-0.586v1.172h0.586zM11.862 20.57h0.586v-0.586h-0.586v0.586zM11 8h-1v10h1v-10zM14.792 21.742h-0.586v1.172h0.586v-1.172zM14.206 23.5v-0.586h-1.758v0.586h1.758zM28 8h-2v16h2v-16z"></path>
</symbol>
</defs>
</svg>
