<!-- Generated by IcoMoon.io -->
<svg version="1.1" xmlns="http://www.w3.org/2000/svg" width="32" height="32" viewBox="0 0 32 32">
<title>account</title>
<path d="M16 2.667c-2.933 0-5.333 2.4-5.333 5.333s2.4 5.333 5.333 5.333 5.333-2.4 5.333-5.333-2.4-5.333-5.333-5.333zM16 12c-2.267 0-4-1.867-4-4 0-2.267 1.733-4 4-4s4 1.733 4 4c0 2.133-1.733 4-4 4z"></path>
<path d="M23.6 17.733l-2.667-2.667c-0.133-0.267-0.533-0.4-0.933-0.4h-1.333v1.333h1.467l2.533 2.667v9.333h-13.333v-9.333l2.8-2.667h1.2v-1.333h-1.333c-0.4 0-0.667 0.133-0.933 0.4l-2.8 2.8c-0.133 0.133-0.267 0.533-0.267 0.8v9.333c0 0.667 0.533 1.333 1.333 1.333h13.333c0.667 0 1.333-0.667 1.333-1.333v-9.333c0-0.4-0.133-0.8-0.4-0.933z"></path>
</svg>
