<!-- Generated by IcoMoon.io -->
<svg version="1.1" xmlns="http://www.w3.org/2000/svg" width="32" height="32" viewBox="0 0 32 32">
<title>barcode1</title>
<path d="M4 21.333h-1.333v2.667c0 0.8 0.533 1.333 1.333 1.333h2.667v-1.333h-2.667v-2.667z"></path>
<path d="M4 6.667c-0.8 0-1.333 0.533-1.333 1.333v2.667h1.333v-2.667h2.667v-1.333h-2.667z"></path>
<path d="M28 24h-2.667v1.333h2.667c0.8 0 1.333-0.533 1.333-1.333v-2.667h-1.333v2.667z"></path>
<path d="M25.333 6.667v1.333h2.667v2.667h1.333v-2.667c0-0.8-0.533-1.333-1.333-1.333h-2.667z"></path>
<path d="M5.333 9.333h1.333v13.333h-1.333v-13.333z"></path>
<path d="M8 9.333h2.667v13.333h-2.667v-13.333z"></path>
<path d="M20 9.333h1.333v13.333h-1.333v-13.333z"></path>
<path d="M12 9.333h1.333v13.333h-1.333v-13.333z"></path>
<path d="M22.667 9.333h4v13.333h-4v-13.333z"></path>
<path d="M14.667 9.333h4v13.333h-4v-13.333z"></path>
</svg>
