<!-- Generated by IcoMoon.io -->
<svg version="1.1" xmlns="http://www.w3.org/2000/svg" width="32" height="32" viewBox="0 0 32 32">
<title>cart-bag</title>
<path d="M24 13.333h-16c-0.8 0-1.333 0.533-1.333 1.333v13.333c0 0.8 0.533 1.333 1.333 1.333h16c0.8 0 1.333-0.533 1.333-1.333v-13.333c0-0.8-0.533-1.333-1.333-1.333zM24 28h-16v-13.333h16v13.333z"></path>
<path d="M21.333 8v4h-1.333v-4c0-1.333-0.667-2.533-1.733-3.333-0.667-0.4-1.467-0.667-2.267-0.667-2.267 0-4 1.733-4 4v4h-1.333v-4c0-2.933 2.4-5.333 5.333-5.333 1.333 0 2.667 0.533 3.6 1.333 0.133 0.133 0.267 0.267 0.4 0.4 0.8 1.067 1.333 2.267 1.333 3.6z"></path>
</svg>
