<!-- Generated by IcoMoon.io -->
<svg version="1.1" xmlns="http://www.w3.org/2000/svg" width="32" height="32" viewBox="0 0 32 32">
<title>cash</title>
<path d="M2.667 9.333v13.333c0 0.8 0.533 1.333 1.333 1.333h24c0.8 0 1.333-0.533 1.333-1.333v-13.333c0-0.8-0.533-1.333-1.333-1.333h-24c-0.8 0-1.333 0.533-1.333 1.333zM28 22.667h-24v-13.333h24v13.333z"></path>
<path d="M18.667 15.333v0h-5.333c-0.533 0-1.067-0.4-1.067-1.067 0-0.533 0.4-0.933 1.067-1.067h6.667v-1.2h-3.333v-1.333h-1.333v1.333h-2c-1.333 0-2.4 1.067-2.4 2.4s1.067 2.267 2.4 2.4v0h5.333c0.4 0.133 0.8 0.533 0.8 0.933s-0.4 0.8-0.8 0.933h-6.667v1.333h3.333v1.333h1.333v-1.333h2c1.2-0.133 2.133-1.067 2.133-2.267s-0.933-2.267-2.133-2.4z"></path>
</svg>
