<!-- Generated by IcoMoon.io -->
<svg version="1.1" xmlns="http://www.w3.org/2000/svg" width="32" height="32" viewBox="0 0 32 32">
<title>email</title>
<path d="M28.933 7.333c-0.133-0.4-0.533-0.667-0.933-0.933s-0.933-0.4-1.333-0.4h-21.333c-0.533 0-0.933 0.133-1.333 0.4s-0.8 0.533-0.933 0.933c-0.267 0.4-0.4 0.8-0.4 1.333v14.667c0 0.533 0.133 1.2 0.533 1.6 0.267 0.4 0.667 0.667 1.067 0.8 0.267 0.133 0.667 0.267 1.067 0.267h21.333c0.4 0 0.8-0.133 1.067-0.267 0.4-0.133 0.8-0.533 1.067-0.8 0.267-0.4 0.533-0.933 0.533-1.6v-14.667c0-0.533-0.133-0.933-0.4-1.333zM27.067 7.333l-11.067 11.067-11.067-11.067h22.133zM4 8.267l7.867 7.867-7.867 8v-15.867zM5.333 24.667l7.6-7.6 3.2 3.2 3.2-3.2 7.6 7.6h-21.6zM20.133 16.133l7.867-7.867v15.867l-7.867-8z"></path>
</svg>
