<!-- Generated by IcoMoon.io -->
<svg version="1.1" xmlns="http://www.w3.org/2000/svg" width="32" height="32" viewBox="0 0 32 32">
<title>facebook</title>
<path d="M29.333 16.133c0 6.667-4.933 12.133-11.2 13.2 0-3.067 0-6.133 0-9.067 0-0.133 0-0.267 0.267-0.267 0.933 0 1.867 0 2.667 0 0.133 0 0.267 0 0.267-0.133 0.133-1.067 0.4-2.267 0.533-3.333 0-0.267 0-0.267-0.267-0.267-1.067 0-2.133 0-3.2 0-0.133 0-0.267 0-0.267-0.133 0-0.8 0-1.733 0-2.533 0-1.067 0.667-1.733 1.733-1.867 0.667-0.133 1.333 0 1.867 0 0.133 0 0.267 0 0.267-0.267 0-0.8 0-1.733 0-2.533 0-0.533 0-0.533-0.533-0.667-1.2-0.267-2.267-0.4-3.467-0.267s-2.133 0.667-2.933 1.467c-0.8 0.933-1.067 2.133-1.2 3.333 0 0.933 0 2 0 2.933 0 0.267 0 0.267-0.267 0.267-0.933 0-1.867 0-2.933 0-0.133 0-0.267 0-0.267 0.267 0 1.067 0 2.267 0 3.333 0 0.133 0 0.267 0.267 0.267 0.933 0 2 0 2.933 0 0.133 0 0.267 0 0.267 0.267 0 3.067 0 6.133 0 9.067-6.267-0.933-11.2-6.4-11.2-13.067 0-7.333 6-13.333 13.333-13.333s13.333 5.867 13.333 13.333z"></path>
</svg>
