<!-- Generated by IcoMoon.io -->
<svg version="1.1" xmlns="http://www.w3.org/2000/svg" width="32" height="32" viewBox="0 0 32 32">
<title>five-star</title>
<path d="M6.533 15.467l0.4 1.333c0 0 0.133 0.133 0.133 0.133h1.333c0.133 0 0.133 0.133 0.133 0.267l-1.067 0.8c0 0-0.133 0.133 0 0.133l0.4 1.333c0 0.133-0.133 0.267-0.267 0.133l-1.2-0.8c0 0-0.133 0-0.133 0l-1.2 0.8c-0.133 0.133-0.267 0-0.267-0.133l0.4-1.333c0 0 0-0.133 0-0.133l-1.067-0.8c-0.133-0.133 0-0.267 0.133-0.267h1.333c0 0 0.133 0 0.133-0.133l0.4-1.333c0.133-0.133 0.4-0.133 0.4 0z"></path>
<path d="M11.333 14l0.4 1.333c0 0 0.133 0.133 0.133 0.133h1.333c0.133 0 0.133 0.133 0.133 0.267l-1.067 0.8c0 0-0.133 0.133 0 0.133l0.4 1.333c0 0.133-0.133 0.267-0.267 0.133l-1.067-0.8c0 0-0.133 0-0.133 0l-1.2 0.8c-0.133 0.133-0.267 0-0.267-0.133l0.4-1.333c0 0 0-0.133 0-0.133l-1.067-0.8c-0.133-0.133 0-0.267 0.133-0.267h1.333c0 0 0.133 0 0.133-0.133l0.4-1.333c0-0.133 0.267-0.133 0.267 0z"></path>
<path d="M16.133 12.533l0.4 1.333c0 0 0.133 0.133 0.133 0.133h1.333c0.133 0 0.133 0.133 0.133 0.267l-1.067 0.8c0 0-0.133 0.133 0 0.133l0.4 1.333c0 0.133-0.133 0.267-0.267 0.133l-1.2-0.8c0 0-0.133 0-0.133 0l-1.2 0.8c-0.133 0.133-0.267 0-0.267-0.133l0.4-1.333c0 0 0-0.133 0-0.133l-1.067-0.8c-0.133-0.133 0-0.267 0.133-0.267h1.333c0 0 0.133 0 0.133-0.133l0.4-1.333c0.133-0.133 0.4-0.133 0.4 0z"></path>
<path d="M20.933 14l0.4 1.333c0 0 0.133 0.133 0.133 0.133h1.333c0.133 0 0.133 0.133 0.133 0.267l-1.067 0.8c0 0-0.133 0.133 0 0.133l0.4 1.333c0 0.133-0.133 0.267-0.267 0.133l-1.067-0.8c0 0-0.133 0-0.133 0l-1.2 0.8c-0.133 0.133-0.267 0-0.267-0.133l0.4-1.333c0 0 0-0.133 0-0.133l-1.067-0.8c-0.133-0.133 0-0.267 0.133-0.267h1.333c0 0 0.133 0 0.133-0.133l0.4-1.333c0-0.133 0.267-0.133 0.267 0z"></path>
<path d="M25.733 15.467l0.4 1.333c0 0 0.133 0.133 0.133 0.133h1.333c0.133 0 0.133 0.133 0.133 0.267l-1.067 0.8c0 0-0.133 0.133 0 0.133l0.4 1.333c0 0.133-0.133 0.267-0.267 0.133l-1.2-0.8c0 0-0.133 0-0.133 0l-1.2 0.8c-0.133 0.133-0.267 0-0.267-0.133l0.4-1.333c0 0 0-0.133 0-0.133l-1.067-0.8c-0.133-0.133 0-0.267 0.133-0.267h1.333c0 0 0.133 0 0.133-0.133l0.4-1.333c0.133-0.133 0.4-0.133 0.4 0z"></path>
</svg>
