<!-- Generated by IcoMoon.io -->
<svg version="1.1" xmlns="http://www.w3.org/2000/svg" width="32" height="32" viewBox="0 0 32 32">
<title>google</title>
<path d="M16.267 18.667c0-0.133 0-0.133 0-0.133 0-1.333 0-2.8 0-4.133 0-0.133 0-0.267 0.267-0.267 4 0 8.133 0 12.133 0 0.133 0 0.267 0 0.267 0.267 0.133 1.2 0.267 2.4 0.133 3.6-0.133 1.067-0.267 2-0.533 2.933-0.8 2.4-2.133 4.4-4.133 6-1.2 0.933-2.667 1.6-4.133 2-0.8 0.267-1.733 0.4-2.667 0.4-0.667 0-1.333 0.133-2 0-1.6 0-3.067-0.4-4.533-1.067-1.067-0.4-2.133-1.067-3.067-1.733-1.2-0.933-2.133-2-2.933-3.2-0.8-1.333-1.467-2.667-1.867-4.267-0.267-1.2-0.4-2.267-0.4-3.467 0.133-2 0.533-3.867 1.467-5.733 1.2-2.267 2.8-4.133 5.067-5.333 1.333-0.667 2.533-1.2 3.867-1.467 0.667-0.133 1.333-0.267 1.867-0.267 0.667 0 1.333-0.133 2.133 0 1.867 0.133 3.6 0.533 5.2 1.467 0.933 0.533 1.867 1.067 2.667 1.867 0.133 0.133 0.133 0.133 0 0.4-1.067 1.067-2.133 2.133-3.2 3.067-0.267 0.267-0.133 0.267-0.4 0-1.067-0.933-2.267-1.6-3.733-1.733-2.667-0.4-4.933 0.267-6.933 2-1.333 1.2-2.133 2.667-2.533 4.4-0.267 1.2-0.267 2.4 0 3.6 0.4 2.133 1.6 3.867 3.333 5.2 1.067 0.667 2.133 1.2 3.333 1.467 0.933 0.133 1.733 0.133 2.667 0 1.067-0.133 2-0.4 2.933-0.933 1.067-0.533 1.867-1.467 2.533-2.4 0.4-0.667 0.667-1.333 0.8-2 0-0.267 0-0.267-0.133-0.267-2.4 0-4.8 0-7.067 0-0.267-0.267-0.267-0.267-0.4-0.267z"></path>
</svg>
