<!-- Generated by IcoMoon.io -->
<svg version="1.1" xmlns="http://www.w3.org/2000/svg" width="57" height="32" viewBox="0 0 57 32">
<title>icon-responsive</title>
<path d="M28.644 1.109v29.782c0 0.612-0.499 1.109-1.111 1.109h-6.127c-0.615 0-1.111-0.497-1.111-1.109v-10.734c0-0.612-0.497-1.109-1.111-1.109h-9.772c-0.615 0-1.111 0.497-1.111 1.109v10.734c0 0.612-0.497 1.109-1.109 1.109h-6.081c-0.612 0-1.109-0.497-1.109-1.109v-29.782c0-0.612 0.497-1.109 1.109-1.109h6.081c0.612 0 1.109 0.497 1.109 1.109v9.726c0 0.613 0.497 1.112 1.111 1.112h9.772c0.615 0 1.111-0.499 1.111-1.112v-9.726c0-0.612 0.497-1.109 1.111-1.109h6.127c0.612 0 1.111 0.497 1.111 1.109z"></path>
<path d="M27.532 0h-6.127c-0.615 0-1.111 0.497-1.111 1.109v9.726c0 0.613-0.497 1.112-1.111 1.112h-9.772c-0.615 0-1.111-0.499-1.111-1.112v-9.726c0-0.612-0.497-1.109-1.109-1.109h-6.081c-0.612 0-1.109 0.497-1.109 1.109v29.782c0 0.612 0.497 1.109 1.109 1.109h6.081c0.612 0 1.109-0.497 1.109-1.109v-10.734c0-0.612 0.497-1.109 1.111-1.109h9.772c0.615 0 1.111 0.497 1.111 1.109v10.734c0 0.612 0.497 1.109 1.111 1.109h6.127c0.612 0 1.111-0.497 1.111-1.109v-29.782c0-0.612-0.499-1.109-1.111-1.109z"></path>
<path d="M47.25 24.914c-1.413 1.307-4.571 3.932-7.576 3.932-3.202 0-5.473-2.411-5.473-5.473 0-2.413 1.3-3.665 2.18-4.453 0.825-0.738 1.939-1.681 3.942-2.942 0.236-0.145 0.545-0.094 0.714 0.125l6.271 8.089c0.166 0.219 0.145 0.535-0.058 0.721zM42.363 2.968c1.625 0 3.339 1.020 3.339 3.197 0 1.068-0.325 2.182-2.083 3.571l-1.606 1.242c-0.241 0.183-0.586 0.135-0.762-0.108l-1.066-1.454c-0.605-0.837-1.254-1.719-1.254-3.062 0-1.948 1.531-3.385 3.431-3.385zM56.629 30.58l-4.241-5.495c-0.164-0.21-0.145-0.509 0.039-0.702 1.512-1.57 2.553-2.824 3.32-3.848 0.169-0.227 0.13-0.55-0.087-0.733l-1.683-1.398c-0.236-0.198-0.586-0.159-0.769 0.082-0.721 0.94-1.541 1.881-2.761 3.176-0.224 0.241-0.615 0.227-0.813-0.034l-5.746-7.397c-0.178-0.231-0.14-0.559 0.082-0.745 1.558-1.287 1.372-1.015 2.105-1.661 2.457-2.132 2.872-4.171 2.872-5.611 0-3.108-2.225-6.213-6.536-6.213-4.451 0-6.727 3.294-6.727 6.539 0 1.965 0.866 3.725 2.71 6.17 0.188 0.251 0.125 0.605-0.14 0.776-1.087 0.694-3.349 2.18-4.702 3.535-1.020 1.020-2.782 3.060-2.782 6.399 0 4.919 3.894 8.581 8.952 8.581 3.342 0 6.896-1.965 9.55-4.463 0.229-0.217 0.596-0.181 0.786 0.068l2.811 3.631c0.101 0.133 0.256 0.21 0.424 0.21h2.91c0.444 0 0.699-0.516 0.424-0.866z"></path>
</svg>
