<!-- Generated by IcoMoon.io -->
<svg version="1.1" xmlns="http://www.w3.org/2000/svg" width="32" height="32" viewBox="0 0 32 32">
<title>information</title>
<path d="M16 14.133c0.533-1.333 0.267-2.133-0.533-2.133-0.533 0-0.933 0.267-1.333 0.8s-0.8 1.467-1.333 2.533l-0.533 1.2h-0.4l0.933-2.4c0.4-1.2 1.067-2.133 1.867-2.667 0.8-0.4 1.467-0.667 2.267-0.667 0.933 0 1.6 0.267 1.867 0.8s0.4 1.067 0.267 1.867c-0.133 0.667-0.267 1.467-0.533 2.133l-3.6 10.133c-0.267 0.667-0.267 1.2-0.267 1.467s0.267 0.533 0.8 0.533c0.4 0 0.933-0.267 1.333-0.8s0.8-1.333 1.333-2.667l0.533-1.2h0.667l-0.933 2.4c-0.533 1.333-1.067 2.133-1.867 2.667s-1.467 0.8-2.267 0.8c-0.933 0-1.6-0.267-2-0.667-0.267-0.4-0.4-1.067-0.4-1.733 0.133-0.667 0.267-1.467 0.533-2.267l3.6-10.133z"></path>
<path d="M21.333 7.333c0 1.105-0.895 2-2 2s-2-0.895-2-2c0-1.105 0.895-2 2-2s2 0.895 2 2z"></path>
</svg>
