<!-- Generated by IcoMoon.io -->
<svg version="1.1" xmlns="http://www.w3.org/2000/svg" width="32" height="32" viewBox="0 0 32 32">
<title>instagram</title>
<path d="M20.4 16c0-2.4-2-4.4-4.4-4.4s-4.4 2-4.4 4.4 2 4.4 4.4 4.4 4.4-2 4.4-4.4zM22.8 16c0 3.733-3.067 6.8-6.8 6.8s-6.8-3.067-6.8-6.8 3.067-6.8 6.8-6.8 6.8 3.067 6.8 6.8zM24.667 8.933c0 0.933-0.667 1.6-1.6 1.6s-1.6-0.667-1.6-1.6 0.667-1.6 1.6-1.6 1.6 0.667 1.6 1.6zM16 5.067c-2 0-6.133-0.133-7.867 0.533-0.667 0.267-1.067 0.533-1.467 1.067-0.533 0.4-0.8 0.8-1.067 1.467-0.667 1.733-0.533 5.867-0.533 7.867s-0.133 6.133 0.533 7.867c0.267 0.667 0.533 1.067 1.067 1.467 0.533 0.533 0.933 0.8 1.467 1.067 1.733 0.667 5.867 0.533 7.867 0.533s6.133 0.133 7.867-0.533c0.667-0.267 1.067-0.533 1.467-1.067 0.533-0.533 0.8-0.933 1.067-1.467 0.667-1.733 0.533-5.867 0.533-7.867s0.133-6.133-0.533-7.867c-0.267-0.667-0.533-1.067-1.067-1.467-0.533-0.533-0.933-0.8-1.467-1.067-1.733-0.667-5.867-0.533-7.867-0.533zM29.333 16c0 1.867 0 3.6-0.133 5.467-0.133 2.133-0.533 4-2.133 5.6s-3.467 2-5.6 2.133c-1.867 0.133-3.6 0.133-5.467 0.133s-3.6 0-5.467-0.133c-2.133-0.133-4-0.533-5.6-2.133s-2-3.467-2.133-5.6c-0.133-1.867-0.133-3.6-0.133-5.467s0-3.6 0.133-5.467c0.133-2.133 0.533-4 2.133-5.6s3.467-2 5.6-2.133c1.867-0.133 3.6-0.133 5.467-0.133s3.6 0 5.467 0.133c2.133 0.133 4 0.533 5.6 2.133s2 3.467 2.133 5.6c0.133 1.867 0.133 3.6 0.133 5.467z"></path>
</svg>
