<!-- Generated by IcoMoon.io -->
<svg version="1.1" xmlns="http://www.w3.org/2000/svg" width="32" height="32" viewBox="0 0 32 32">
<title>left-chevron</title>
<path d="M23.333 15.067c0.533 0.533 0.533 1.467 0 2l-13.733 12.267h5.333l13.733-12.4c0.533-0.533 0.533-1.467 0-2l-13.733-12.267h-5.333l13.733 12.4zM25.333 16.933c0.533-0.533 0.533-1.467 0-2l-12.267-10.933h1.333l12.267 11.067c0.533 0.533 0.533 1.467 0 2l-12.267 10.933h-1.333l12.267-11.067z"></path>
<path d="M16.667 15.067c0.533 0.533 0.533 1.467 0 2l-13.733 12.267h5.333l13.733-12.4c0.533-0.533 0.533-1.467 0-2l-13.733-12.267h-5.333l13.733 12.4zM18.667 16.933c0.533-0.533 0.533-1.467 0-2l-12.267-10.933h1.333l12.267 11.067c0.533 0.533 0.533 1.467 0 2l-12.267 10.933h-1.333l12.267-11.067z"></path>
</svg>
