<!-- Generated by IcoMoon.io -->
<svg version="1.1" xmlns="http://www.w3.org/2000/svg" width="32" height="32" viewBox="0 0 32 32">
<title>linkedin</title>
<path d="M26.933 2.667h-21.867c-1.333 0-2.4 1.067-2.4 2.4v21.733c0 1.333 1.067 2.533 2.4 2.533h21.733c1.333 0 2.4-1.067 2.4-2.533v-21.733c0.133-1.333-0.933-2.4-2.267-2.4zM10.933 25.733c0 0.4-0.267 0.667-0.667 0.667h-3.067c-0.4 0-0.667-0.267-0.667-0.667v-12.533c0-0.4 0.267-0.667 0.667-0.667h2.933c0.4 0 0.667 0.267 0.667 0.667v12.533zM8.667 11.333c-1.6 0-2.8-1.2-2.8-2.8s1.333-2.8 2.8-2.8c1.6 0 2.8 1.333 2.8 2.8 0.133 1.467-1.2 2.8-2.8 2.8zM25.733 26.4c-0.933 0-1.867 0-2.933 0-0.533 0-0.8-0.267-0.8-0.8v-6.533c0-0.533-0.133-1.067-0.267-1.6-0.267-0.8-0.933-1.333-1.733-1.333-1.067-0.133-1.733 0.267-2.267 1.2-0.4 0.667-0.533 1.333-0.533 2v6.267c0 0.667-0.267 0.8-0.8 0.8-0.933 0-1.867 0-2.8 0-0.533 0-0.8-0.267-0.8-0.8v-12.267c0-0.533 0.267-0.8 0.8-0.8h2.8c0.533 0 0.8 0.267 0.8 0.8v0.8c0 0 0 0 0 0 0.133-0.133 0.133-0.267 0.267-0.267 0.667-0.8 1.467-1.2 2.4-1.333s1.867-0.267 2.933 0c1.467 0.267 2.533 1.333 3.067 2.667 0.4 1.2 0.533 2.4 0.533 3.6 0 2.267 0 4.533 0 6.933 0.133 0.4-0.133 0.667-0.667 0.667z"></path>
</svg>
