<!-- Generated by IcoMoon.io -->
<svg version="1.1" xmlns="http://www.w3.org/2000/svg" width="54" height="32" viewBox="0 0 54 32">
<title>logo-responsive</title>
<path d="M49.086 18.386c0.217 0.217 0.237 0.573 0.039 0.829-1.224 1.52-1.698 1.954-2.349 2.606l-0.217 0.217c-0.197 0.197-0.197 0.494-0.020 0.691l3.85 4.363c0.355 0.395 0.059 1.027-0.454 1.027h-4.422c-0.178 0-0.355-0.079-0.454-0.217l-1.856-2.132c-0.217-0.257-0.592-0.296-0.849-0.079-1.382 1.145-4.087 2.981-7.62 2.981-5.153 0-7.857-3.573-7.857-7.186 0-3.731 2.902-5.686 4.027-6.357l1.303-0.77c0.336-0.197 0.395-0.632 0.158-0.928-0.888-1.007-2.014-2.705-2.014-4.718 0-3.119 2.251-6.239 6.91-6.239 4.363 0 6.732 2.902 6.732 5.982 0 1.797-0.869 3.948-3.534 5.567l-0.434 0.257c-0.316 0.197-0.395 0.632-0.138 0.928l3.218 3.692c0.237 0.276 0.651 0.276 0.908 0.020 1.046-1.046 1.757-1.856 2.231-2.468 0.217-0.276 0.651-0.296 0.908-0.039l1.935 1.974zM35.622 17.162c-0.197-0.217-0.513-0.276-0.77-0.138-1.718 0.987-3.139 2.31-3.139 4.087 0 1.875 1.579 3.317 3.692 3.317 1.718 0 3.257-0.967 4.185-1.777 0.257-0.217 0.276-0.612 0.059-0.869l-4.027-4.62zM36.669 11.635c0.197 0.257 0.573 0.296 0.829 0.118l0.651-0.454c1.362-0.948 1.737-1.954 1.737-2.784 0-1.244-0.75-2.487-2.448-2.487-1.757 0-2.547 1.204-2.547 2.33 0 0.948 0.533 1.737 1.046 2.369l0.73 0.908z"></path>
<path d="M9.958 12.286h7.147c0.296 0 0.533-0.237 0.533-0.533v-8.706c0-0.296 0.237-0.533 0.533-0.533h5.765c0.296 0 0.533 0.237 0.533 0.533v25.132c0 0.296-0.237 0.533-0.533 0.533h-5.765c-0.296 0-0.533-0.237-0.533-0.533v-9.535c0-0.296-0.237-0.533-0.533-0.533h-7.147c-0.296 0-0.533 0.237-0.533 0.533v9.535c0 0.296-0.237 0.533-0.533 0.533h-5.725c-0.296 0-0.533-0.237-0.533-0.533v-25.151c0-0.296 0.237-0.533 0.533-0.533h5.725c0.296 0 0.533 0.237 0.533 0.533v8.706c-0.020 0.316 0.237 0.553 0.533 0.553z"></path>
</svg>
