<!-- Generated by IcoMoon.io -->
<svg version="1.1" xmlns="http://www.w3.org/2000/svg" width="60" height="32" viewBox="0 0 60 32">
<title>logo</title>
<path d="M1.925 24.89h-0.802c-0.108 0-0.203 0.096-0.203 0.203v3.673c0 0.108 0.096 0.203 0.203 0.203h0.802c0.108 0 0.203-0.096 0.203-0.203v-3.673c-0.012-0.108-0.096-0.203-0.203-0.203z"></path>
<path d="M5.227 26.146l-1.555 1.555h1.077l1.555-1.555z"></path>
<path d="M7.022 26.146l-1.555 1.555h1.077l1.555-1.555z"></path>
<path d="M8.816 26.146l-1.567 1.555h1.089l1.555-1.555z"></path>
<path d="M12.202 26.84l-1.627-0.67-1.531 1.531h1.424c0.036 0 0.060-0.012 0.096-0.012l1.639-0.67c0.096-0.048 0.096-0.132 0-0.179z"></path>
<path d="M2.117 26.146v1.555h0.837l1.555-1.555z"></path>
<path d="M58.763 24.89h-0.802c-0.108 0-0.203 0.096-0.203 0.203v1.053h-2.393l1.555 1.555h0.837v1.053c0 0.108 0.096 0.203 0.203 0.203h0.802c0.108 0 0.203-0.096 0.203-0.203v-3.673c-0.012-0.096-0.096-0.191-0.203-0.191z"></path>
<path d="M51.777 26.146l1.555 1.555h1.077l-1.555-1.555z"></path>
<path d="M49.982 26.146l1.555 1.555h1.077l-1.555-1.555z"></path>
<path d="M53.571 26.146l1.555 1.555h1.077l-1.555-1.555z"></path>
<path d="M47.673 26.84c-0.096 0.036-0.096 0.132 0 0.168l1.639 0.67c0.024 0.012 0.060 0.012 0.096 0.012h1.424l-1.543-1.519-1.615 0.67z"></path>
<path d="M58.919 9.003v0.802c0 0.108-0.084 0.203-0.203 0.203h-3.673c-0.108 0-0.191-0.084-0.191-0.191v-0.813c0-0.108 0.084-0.191 0.191-0.191h0.383c0.108 0 0.191-0.084 0.191-0.191v-3.098c0-0.096-0.072-0.168-0.167-0.168 0 0-12.107-2.141-24.872-2.141-13.219 0-26.212 2.141-26.212 2.141-0.072 0-0.132 0.048-0.156 0.108v3.17c0 0.108 0.084 0.191 0.191 0.191h0.383c0.108 0 0.191 0.084 0.191 0.191v0.813c0 0.108-0.084 0.191-0.191 0.191h-3.673c-0.108 0-0.191-0.084-0.191-0.191v-0.825c0-0.108 0.084-0.191 0.191-0.191h0.383c0.108 0 0.191-0.084 0.191-0.191v-5.252c0-0.096 0.072-0.167 0.167-0.167 0 0 14.248-2.141 28.712-2.141 14.033 0 27.396 2.141 27.396 2.141 0.096 0 0.167 0.072 0.167 0.167v5.24c0 0.108 0.084 0.191 0.191 0.191h0.383c0.12 0 0.215 0.096 0.215 0.203z"></path>
<path d="M3.612 15.451h2.632c0.108 0 0.191-0.084 0.191-0.191v-3.206c0-0.108 0.084-0.191 0.191-0.191h2.117c0.108 0 0.191 0.084 0.191 0.191v9.248c0 0.108-0.084 0.191-0.191 0.191h-2.117c-0.108 0-0.191-0.084-0.191-0.191v-3.505c0-0.108-0.084-0.191-0.191-0.191h-2.632c-0.108 0-0.191 0.084-0.191 0.191v3.505c0 0.108-0.084 0.191-0.191 0.191h-2.118c-0.108 0-0.191-0.084-0.191-0.191v-9.248c0-0.108 0.084-0.191 0.191-0.191h2.106c0.108 0 0.191 0.084 0.191 0.191v3.206c0 0.096 0.096 0.191 0.203 0.191z"></path>
<path d="M15.899 19.866h-3.23c-0.084 0-0.156 0.048-0.179 0.12l-0.55 1.376c-0.036 0.072-0.108 0.12-0.179 0.12h-2.225c-0.144 0-0.227-0.144-0.179-0.263l3.553-9.248c0.024-0.072 0.108-0.132 0.179-0.132h2.464c0.084 0 0.156 0.048 0.179 0.132l3.481 9.248c0.048 0.132-0.048 0.263-0.179 0.263h-2.249c-0.084 0-0.156-0.048-0.179-0.132l-0.502-1.364c-0.048-0.060-0.12-0.12-0.203-0.12zM15.276 17.7l-0.802-2.321c-0.060-0.179-0.311-0.179-0.371 0l-0.778 2.321c-0.048 0.132 0.048 0.263 0.191 0.263h1.591c0.12 0 0.215-0.132 0.168-0.263z"></path>
<path d="M19.607 21.289v-9.248c0-0.108 0.084-0.191 0.191-0.191h2.213c0.060 0 0.12 0.024 0.156 0.072l4.199 5.372c0.12 0.144 0.347 0.072 0.347-0.12v-5.132c0-0.108 0.084-0.191 0.191-0.191h2.106c0.108 0 0.191 0.084 0.191 0.191v9.248c0 0.108-0.084 0.191-0.191 0.191h-2.213c-0.060 0-0.12-0.024-0.156-0.072l-4.199-5.372c-0.12-0.144-0.347-0.072-0.347 0.12v5.132c0 0.108-0.084 0.191-0.191 0.191h-2.106c-0.108 0.012-0.191-0.084-0.191-0.191z"></path>
<path d="M30.578 21.301v-9.248c0-0.108 0.084-0.191 0.191-0.191l3.099-0.012c0.969 0 2.584 0.132 3.828 1.328 1.125 1.089 1.34 2.476 1.34 3.505 0 1.268-0.323 2.393-1.256 3.338-0.766 0.766-2.058 1.46-3.697 1.46l-3.314 0.012c-0.096 0.012-0.191-0.084-0.191-0.191zM33.078 19.172c0 0.108 0.096 0.203 0.203 0.191l0.311-0.012c0.61 0 1.46-0.060 2.106-0.694 0.323-0.299 0.742-0.909 0.742-1.974 0-0.897-0.275-1.663-0.754-2.106-0.598-0.55-1.376-0.61-1.998-0.61l-0.431 0.012c-0.108 0-0.191 0.084-0.191 0.191v5.001z"></path>
<path d="M42.433 12.042v7.13c0 0.108 0.084 0.191 0.191 0.191h2.608c0.108 0 0.191 0.084 0.191 0.191v1.735c0 0.108-0.084 0.191-0.191 0.191h-5.108c-0.108 0-0.191-0.084-0.191-0.191v-9.248c0-0.108 0.084-0.191 0.191-0.191h2.106c0.12 0 0.203 0.084 0.203 0.191z"></path>
<path d="M51.095 13.98h-2.584c-0.108 0-0.191 0.084-0.191 0.191v1.208c0 0.108 0.084 0.191 0.191 0.191h2.429c0.108 0 0.191 0.084 0.191 0.191v1.735c0 0.108-0.084 0.191-0.191 0.191h-2.429c-0.108 0-0.191 0.084-0.191 0.191v1.292c0 0.108 0.084 0.191 0.191 0.191h2.584c0.108 0 0.191 0.084 0.191 0.191v1.735c0 0.108-0.084 0.191-0.191 0.191h-5.084c-0.108 0-0.191-0.084-0.191-0.191v-9.248c0-0.108 0.084-0.191 0.191-0.191h5.084c0.108 0 0.191 0.084 0.191 0.191v1.735c0 0.108-0.084 0.203-0.191 0.203z"></path>
<path d="M52.805 18.825c0.060-0.108 0.203-0.144 0.299-0.060 0.526 0.443 1.256 0.825 2.034 0.825 0.502 0 0.813-0.156 0.969-0.335 0.144-0.144 0.251-0.359 0.251-0.61 0-0.191-0.072-0.407-0.275-0.574-0.251-0.215-0.622-0.323-1.244-0.502l-0.646-0.203c-0.407-0.132-0.993-0.347-1.388-0.778-0.49-0.538-0.55-1.208-0.55-1.711 0-1.184 0.467-1.902 0.885-2.321 0.49-0.491 1.304-0.909 2.476-0.909 0.897 0 1.926 0.263 2.799 0.694 0.096 0.048 0.132 0.168 0.084 0.263l-0.802 1.567c-0.060 0.108-0.191 0.144-0.287 0.072-0.658-0.467-1.16-0.514-1.46-0.514-0.251 0-0.574 0.060-0.825 0.287-0.144 0.144-0.251 0.299-0.251 0.514 0 0.168 0.024 0.299 0.132 0.431 0.072 0.084 0.251 0.263 0.837 0.431l0.766 0.227c0.61 0.191 1.244 0.407 1.747 0.957 0.49 0.514 0.622 1.053 0.622 1.723 0 0.885-0.215 1.735-0.909 2.429-0.825 0.825-1.818 0.981-2.847 0.981-0.61 0-1.184-0.060-1.89-0.323-0.144-0.048-0.682-0.251-1.316-0.67-0.084-0.060-0.108-0.168-0.060-0.251l0.849-1.639z"></path>
<path d="M19.069 27.666c0.072 0.072 0.072 0.191 0.012 0.263-0.323 0.395-0.443 0.514-0.622 0.682l-0.156 0.156 1.089 1.232c0.108 0.132 0.024 0.323-0.144 0.323h-1.113c-0.060 0-0.108-0.024-0.144-0.072l-0.479-0.55c-0.072-0.084-0.191-0.096-0.275-0.024-0.383 0.311-1.101 0.79-2.046 0.79-1.4 0-2.129-0.969-2.129-1.938 0-1.005 0.778-1.531 1.089-1.723l0.323-0.191c0.108-0.060 0.132-0.203 0.048-0.299-0.239-0.275-0.526-0.718-0.526-1.256 0-0.849 0.61-1.687 1.866-1.687 1.184 0 1.818 0.778 1.818 1.615 0 0.491-0.239 1.065-0.957 1.507l-0.084 0.048c-0.108 0.060-0.132 0.203-0.048 0.299l0.825 0.945c0.072 0.084 0.203 0.084 0.287 0.012 0.251-0.263 0.431-0.455 0.562-0.61 0.072-0.096 0.203-0.096 0.287-0.012l0.514 0.491zM15.456 27.367c-0.060-0.072-0.168-0.084-0.251-0.036-0.455 0.263-0.825 0.622-0.825 1.089 0 0.514 0.431 0.897 0.993 0.897 0.443 0 0.849-0.239 1.101-0.455 0.084-0.072 0.096-0.203 0.024-0.287l-1.041-1.208zM15.707 25.835c0.060 0.084 0.179 0.096 0.263 0.036l0.156-0.108c0.371-0.251 0.467-0.526 0.467-0.754 0-0.335-0.203-0.67-0.658-0.67-0.479 0-0.694 0.323-0.694 0.634 0 0.251 0.144 0.467 0.287 0.646l0.179 0.215z"></path>
<path d="M22.454 23.538h0.658c0.084 0 0.156 0.048 0.179 0.12l1.567 3.768c0.072 0.156 0.287 0.168 0.359 0l1.651-3.768c0.036-0.072 0.108-0.12 0.179-0.12h0.658c0.096 0 0.179 0.072 0.191 0.168l1.077 6.388c0.024 0.12-0.072 0.227-0.191 0.227h-0.945c-0.096 0-0.179-0.072-0.191-0.168l-0.491-3.326c-0.024-0.191-0.299-0.227-0.371-0.048l-1.495 3.433c-0.036 0.072-0.108 0.12-0.179 0.12h-0.191c-0.084 0-0.156-0.048-0.179-0.12l-1.412-3.445c-0.072-0.179-0.347-0.156-0.371 0.048l-0.55 3.338c-0.012 0.096-0.096 0.168-0.191 0.168h-0.945c-0.12 0-0.215-0.108-0.191-0.227l1.184-6.388c0.024-0.108 0.096-0.168 0.191-0.168z"></path>
<path d="M36.428 26.936c0 2.070-1.483 3.541-3.625 3.541s-3.625-1.471-3.625-3.541c0-2.070 1.483-3.553 3.625-3.553s3.625 1.483 3.625 3.553zM35.064 26.936c0-1.376-0.933-2.345-2.261-2.345s-2.261 0.981-2.261 2.345c0 1.376 0.933 2.345 2.261 2.345 1.328-0.012 2.261-0.969 2.261-2.345z"></path>
<path d="M39.036 23.538c0.933 0 1.412 0.239 1.735 0.514 0.514 0.443 0.67 1.017 0.67 1.531 0 0.658-0.263 1.244-0.79 1.603-0.12 0.084-0.275 0.168-0.479 0.227-0.132 0.036-0.179 0.191-0.096 0.299l1.711 2.309c0.096 0.132 0 0.311-0.156 0.311h-1.148c-0.072 0-0.132-0.036-0.167-0.084l-1.759-2.644h-0.156v2.524c0 0.108-0.084 0.191-0.191 0.191h-0.933c-0.108 0-0.191-0.084-0.191-0.191v-6.388c0-0.108 0.084-0.191 0.191-0.191h1.759zM38.402 26.458c0 0.108 0.084 0.191 0.191 0.191h0.179c0.251 0 1.304-0.036 1.304-1.029 0-1.005-1.041-1.017-1.28-1.017h-0.203c-0.108 0-0.191 0.084-0.191 0.191v1.663z"></path>
<path d="M45.843 24.675h-2.058c-0.108 0-0.191 0.084-0.191 0.191v1.125c0 0.108 0.084 0.191 0.191 0.191h1.95c0.108 0 0.191 0.084 0.191 0.191v0.742c0 0.108-0.084 0.191-0.191 0.191h-1.95c-0.108 0-0.191 0.084-0.191 0.191v1.483c0 0.108 0.084 0.191 0.191 0.191h2.046c0.108 0 0.191 0.084 0.191 0.191v0.742c0 0.108-0.084 0.191-0.191 0.191h-3.362c-0.108 0-0.191-0.084-0.191-0.191v-6.388c0-0.108 0.084-0.191 0.191-0.191h3.374c0.108 0 0.191 0.084 0.191 0.191v0.742c0 0.132-0.084 0.215-0.191 0.215z"></path>
</svg>
