<!-- Generated by IcoMoon.io -->
<svg version="1.1" xmlns="http://www.w3.org/2000/svg" width="32" height="32" viewBox="0 0 32 32">
<title>phone1</title>
<path d="M5.2 7.867l2.933-2.933c0.4-0.267 0.8-0.4 1.2-0.267 0.267 0.133 0.533 0.4 0.667 0.667 0.8 1.6 1.733 3.467 2.667 5.067 0.4 0.667 0.133 1.333-0.267 1.733l-1.333 1.333c-0.133 0.133-0.267 0.267-0.133 0.533 0.133 0.533 0.4 0.933 0.667 1.467 0.533 0.933 1.6 2 2.267 2.8 0.667 0.533 0.8 0.8 1.467 1.333 0.8 0.667 1.467 1.2 2.4 1.467 0.133 0.133 0.133 0.133 0.4 0.133 0.133 0 0.267 0 0.4-0.133 0.4-0.4 0.933-1.067 1.467-1.467 0.533-0.533 1.333-0.667 1.867-0.267 1.467 0.933 3.2 1.867 4.8 2.667 0.267 0.133 0.533 0.4 0.667 0.667 0.133 0.4 0 0.8-0.267 1.067-0.667 0.667-1.733 1.733-2.4 2.4-0.4 0.4 0 0-0.4 0.4-0.4 0.533-1.067 0.667-1.733 0.667 0 0 0 0-0.133 0-1.2 0-2.267-0.267-3.333-0.667-2-0.8-3.867-1.867-5.467-3.2-0.933-0.667-1.867-1.6-2.667-2.4l-0.533-0.533c-1.2-1.2-2.267-2.533-3.2-4s-1.733-2.933-2.133-4.533c-0.267-0.533-0.4-1.333-0.4-2.133 0-0.533 0-0.933 0.267-1.333 0.133-0.267 0.133-0.4 0.267-0.533z"></path>
</svg>
