<!-- Generated by IcoMoon.io -->
<svg version="1.1" xmlns="http://www.w3.org/2000/svg" width="32" height="32" viewBox="0 0 32 32">
<title>print</title>
<path d="M28 10.667h-24c-0.8 0-1.333 0.667-1.333 1.333v12c0 0.667 0.533 1.333 1.333 1.333h2.667v-1.333h-2.667v-12h24v12h-2.667v1.333h2.667c0.8 0 1.333-0.667 1.333-1.333v-12c0-0.667-0.533-1.333-1.333-1.333zM9.333 4h13.333v5.333h1.333v-5.333c0-0.667-0.533-1.333-1.333-1.333h-13.333c-0.8 0-1.333 0.667-1.333 1.333v5.333h1.333v-5.333z"></path>
<path d="M22.667 16h-13.333c-0.8 0-1.333 0.667-1.333 1.333v10.667c0 0.667 0.533 1.333 1.333 1.333h13.333c0.8 0 1.333-0.667 1.333-1.333v-10.667c0-0.667-0.533-1.333-1.333-1.333zM22.667 28h-13.333v-10.667h13.333v10.667z"></path>
<path d="M26.667 14c0 0.368-0.298 0.667-0.667 0.667s-0.667-0.298-0.667-0.667c0-0.368 0.298-0.667 0.667-0.667s0.667 0.298 0.667 0.667z"></path>
<path d="M24.667 14c0 0.368-0.298 0.667-0.667 0.667s-0.667-0.298-0.667-0.667c0-0.368 0.298-0.667 0.667-0.667s0.667 0.298 0.667 0.667z"></path>
<path d="M22.667 14c0 0.368-0.298 0.667-0.667 0.667s-0.667-0.298-0.667-0.667c0-0.368 0.298-0.667 0.667-0.667s0.667 0.298 0.667 0.667z"></path>
<path d="M20.667 20h-9.333c-0.4 0-0.667 0.267-0.667 0.667s0.267 0.667 0.667 0.667h9.333c0.4 0 0.667-0.267 0.667-0.667s-0.267-0.667-0.667-0.667z"></path>
<path d="M20.667 24h-9.333c-0.4 0-0.667 0.267-0.667 0.667s0.267 0.667 0.667 0.667h9.333c0.4 0 0.667-0.267 0.667-0.667s-0.267-0.667-0.667-0.667z"></path>
</svg>
