<!-- Generated by IcoMoon.io -->
<svg version="1.1" xmlns="http://www.w3.org/2000/svg" width="32" height="32" viewBox="0 0 32 32">
<title>right-chevron</title>
<path d="M22.4 2.667h-5.333l-13.733 12.4c-0.533 0.533-0.533 1.467 0 2l13.733 12.267h5.333l-13.733-12.4c-0.533-0.533-0.533-1.467 0-2l13.733-12.267zM18.933 28h-1.333l-12.267-11.067c-0.533-0.533-0.533-1.467 0-2l12.267-10.933h1.333l-12.267 11.067c-0.533 0.533-0.533 1.467 0 2l12.267 10.933z"></path>
<path d="M29.067 2.667h-5.333l-13.733 12.4c-0.533 0.533-0.533 1.467 0 2l13.733 12.267h5.333l-13.733-12.4c-0.533-0.533-0.533-1.467 0-2l13.733-12.267zM25.6 28h-1.333l-12.267-11.067c-0.533-0.533-0.533-1.467 0-2l12.267-10.933h1.333l-12.267 11.067c-0.533 0.533-0.533 1.467 0 2l12.267 10.933z"></path>
</svg>
