<!-- Generated by IcoMoon.io -->
<svg version="1.1" xmlns="http://www.w3.org/2000/svg" width="32" height="32" viewBox="0 0 32 32">
<title>shipping</title>
<path d="M28 6.667h-14.667c-0.8 0-1.333 0.533-1.333 1.333v13.333c0 0.8 0.533 1.333 1.333 1.333h8c0-0.533 0.133-0.933 0.4-1.333h-8.4v-13.333h14.667v13.333h-1.733c0.267 0.4 0.4 0.8 0.4 1.333h1.333c0.667 0 1.333-0.667 1.333-1.333v-13.333c0-0.8-0.667-1.333-1.333-1.333z"></path>
<path d="M26.267 21.333c-0.4-0.8-1.333-1.333-2.267-1.333s-1.867 0.533-2.267 1.333c-0.267 0.4-0.4 0.8-0.4 1.333 0 1.467 1.2 2.667 2.667 2.667s2.667-1.2 2.667-2.667c0-0.533-0.133-0.933-0.4-1.333zM24 24c-0.8 0-1.333-0.667-1.333-1.333s0.533-1.333 1.333-1.333 1.333 0.667 1.333 1.333-0.533 1.333-1.333 1.333z"></path>
<path d="M9.333 13.333v1.333h-2.667l-2.667 2.667v4h1.067c-0.267 0.4-0.4 0.8-0.4 1.333h-0.667c-0.8 0-1.333-0.667-1.333-1.333v-4c0-0.4 0.133-0.667 0.4-0.933l2.667-2.667c0.267-0.267 0.667-0.4 0.933-0.4h2.667z"></path>
<path d="M13.333 10.667v12h-3.333c0-0.533-0.133-0.933-0.4-1.333h2.4v-10.667h1.333z"></path>
<path d="M9.6 21.333c-0.4-0.8-1.333-1.333-2.267-1.333s-1.867 0.533-2.267 1.333c-0.267 0.4-0.4 0.8-0.4 1.333 0 1.467 1.2 2.667 2.667 2.667s2.667-1.2 2.667-2.667c0-0.533-0.133-0.933-0.4-1.333zM7.333 24c-0.8 0-1.333-0.667-1.333-1.333s0.533-1.333 1.333-1.333 1.333 0.667 1.333 1.333-0.533 1.333-1.333 1.333z"></path>
</svg>
