<!-- Generated by IcoMoon.io -->
<svg version="1.1" xmlns="http://www.w3.org/2000/svg" width="32" height="32" viewBox="0 0 32 32">
<title>shopping-cart</title>
<path d="M11.467 24.667c0 0.736-0.597 1.333-1.333 1.333s-1.333-0.597-1.333-1.333c0-0.736 0.597-1.333 1.333-1.333s1.333 0.597 1.333 1.333z"></path>
<path d="M24.133 24.667c0 0.736-0.597 1.333-1.333 1.333s-1.333-0.597-1.333-1.333c0-0.736 0.597-1.333 1.333-1.333s1.333 0.597 1.333 1.333z"></path>
<path d="M24.267 19.333c0.667 0 1.2-0.533 1.333-1.2l0.933-8c0.133-0.8-0.533-1.467-1.333-1.467h-14.667l0.133 1.333h14.533l-1.067 8h-13.6l-1.333-10.8c-0.133-0.667-0.667-1.2-1.333-1.2h-2.4v1.333h2.533l0.133 1.333 1.2 9.733-1.067 1.467c-0.667 0.933 0 2.133 1.067 2.133h16.133v-1.333h-16.267l0.933-1.333h14.133z"></path>
</svg>
