<!-- Generated by IcoMoon.io -->
<svg version="1.1" xmlns="http://www.w3.org/2000/svg" width="32" height="32" viewBox="0 0 32 32">
<title>sign-in</title>
<path d="M23.6 15.067l-2.667-2.667c-0.133-0.267-0.533-0.4-0.933-0.4h-8c-0.4 0-0.667 0.133-0.933 0.4l-2.8 2.8c-0.133 0.133-0.267 0.533-0.267 0.8v9.333c0 0.667 0.533 1.333 1.333 1.333h13.333c0.667 0 1.333-0.667 1.333-1.333v-9.333c0-0.4-0.133-0.8-0.4-0.933zM22.667 25.333h-13.333v-9.333l2.8-2.667h8l2.533 2.667v9.333z"></path>
<path d="M20 9.333v1.333h-1.333v-1.333c0-1.467-1.2-2.667-2.667-2.667s-2.667 1.2-2.667 2.667v1.333h-1.333v-1.333c0-2.267 1.733-4 4-4s4 1.733 4 4z"></path>
<path d="M16 16.667c-1.467 0-2.667 1.2-2.667 2.667s1.2 2.667 2.667 2.667 2.667-1.2 2.667-2.667-1.2-2.667-2.667-2.667zM16 20.667c-0.8 0-1.333-0.533-1.333-1.333s0.533-1.333 1.333-1.333 1.333 0.533 1.333 1.333-0.533 1.333-1.333 1.333z"></path>
</svg>
