<!-- Generated by IcoMoon.io -->
<svg version="1.1" xmlns="http://www.w3.org/2000/svg" width="32" height="32" viewBox="0 0 32 32">
<title>star</title>
<path d="M16.667 6.267l2.133 6.267c0.133 0.267 0.4 0.4 0.667 0.4l6.667 0.133c0.667 0 0.933 0.8 0.4 1.2l-5.333 4c-0.267 0.133-0.267 0.4-0.267 0.667l1.867 6.267c0.133 0.667-0.533 1.067-1.067 0.8l-5.467-3.733c-0.267-0.133-0.533-0.133-0.8 0l-5.467 3.733c-0.533 0.4-1.2-0.133-1.067-0.8l1.867-6.267c0.133-0.267 0-0.533-0.267-0.667l-5.333-4c-0.133-0.4 0.133-1.2 0.667-1.2l6.667-0.133c0.267 0 0.533-0.133 0.667-0.4l2.133-6.267c0.267-0.533 1.067-0.533 1.333 0z"></path>
</svg>
