<!-- Generated by IcoMoon.io -->
<svg version="1.1" xmlns="http://www.w3.org/2000/svg" width="32" height="32" viewBox="0 0 32 32">
<title>trash</title>
<path d="M8 12v14.667c0 0.8 0.533 1.333 1.333 1.333h13.333c0.8 0 1.333-0.533 1.333-1.333v-14.667c0-0.8-0.533-1.333-1.333-1.333h-13.333c-0.8 0-1.333 0.533-1.333 1.333zM22.667 26.667h-13.333v-14.667h13.333v14.667z"></path>
<path d="M12.667 24v0c-0.4 0-0.667-0.267-0.667-0.667v-8c0-0.4 0.267-0.667 0.667-0.667v0c0.4 0 0.667 0.267 0.667 0.667v8c0 0.4-0.267 0.667-0.667 0.667z"></path>
<path d="M16 24v0c-0.4 0-0.667-0.267-0.667-0.667v-8c0-0.4 0.267-0.667 0.667-0.667v0c0.4 0 0.667 0.267 0.667 0.667v8c0 0.4-0.267 0.667-0.667 0.667z"></path>
<path d="M19.333 24v0c-0.4 0-0.667-0.267-0.667-0.667v-8c0-0.4 0.267-0.667 0.667-0.667v0c0.4 0 0.667 0.267 0.667 0.667v8c0 0.4-0.267 0.667-0.667 0.667z"></path>
<path d="M24.667 9.333h-17.333c-0.4 0-0.667-0.267-0.667-0.667v0c0-0.4 0.267-0.667 0.667-0.667h17.333c0.4 0 0.667 0.267 0.667 0.667v0c0 0.4-0.267 0.667-0.667 0.667z"></path>
<path d="M18.667 4c0.8 0 1.333 0.533 1.333 1.333v2.667h-1.333v-2.667h-5.333v2.667h-1.333v-2.667c0-0.8 0.533-1.333 1.333-1.333h5.333z"></path>
</svg>
