<!-- Generated by IcoMoon.io -->
<svg version="1.1" xmlns="http://www.w3.org/2000/svg" width="32" height="32" viewBox="0 0 32 32">
<title>up-chevron</title>
<path d="M15.067 8.667c0.533-0.533 1.467-0.533 2 0l12.267 13.733v-5.333l-12.4-13.733c-0.533-0.533-1.467-0.533-2 0l-12.267 13.733v5.333l12.4-13.733zM16.933 6.667c-0.533-0.533-1.467-0.533-2 0l-10.933 12.267v-1.333l11.067-12.267c0.533-0.533 1.467-0.533 2 0l11.067 12.267v1.333l-11.2-12.267z"></path>
<path d="M15.067 15.333c0.533-0.533 1.467-0.533 2 0l12.267 13.733v-5.333l-12.4-13.733c-0.533-0.533-1.467-0.533-2 0l-12.267 13.733v5.333l12.4-13.733zM16.933 13.333c-0.533-0.533-1.467-0.533-2 0l-10.933 12.267v-1.333l11.067-12.267c0.533-0.533 1.467-0.533 2 0l11.067 12.267v1.333l-11.2-12.267z"></path>
</svg>
