<!-- Generated by IcoMoon.io -->
<svg version="1.1" xmlns="http://www.w3.org/2000/svg" width="32" height="32" viewBox="0 0 32 32">
<title>youtube</title>
<path d="M15.867 25.2c-1.867 0-3.733 0-5.467-0.133-1.333 0-2.8-0.133-4.133-0.4-1.733-0.267-2.8-1.467-3.067-3.2-0.4-2.133-0.4-4.267-0.267-6.533 0-1.067 0.133-2.267 0.133-3.333 0-0.667 0.133-1.2 0.267-1.867 0.4-1.467 1.467-2.267 2.8-2.533s2.667-0.267 4-0.4c2.933-0.133 6-0.133 8.933-0.133 2 0 4 0.133 6 0.267 0.4 0 0.933 0.133 1.333 0.267 1.333 0.4 2.133 1.467 2.267 2.8s0.267 2.533 0.4 3.867c0.133 2.267 0 4.533-0.267 6.933-0.133 0.667-0.133 1.2-0.4 1.733-0.533 1.2-1.6 1.867-2.933 2-1.6 0.133-3.2 0.267-4.8 0.267-1.6 0.267-3.2 0.4-4.8 0.4v0zM13.467 11.867c0 2.8 0 5.467 0 8.133 2.267-1.333 4.4-2.667 6.667-4.133-2.267-1.333-4.4-2.667-6.667-4z"></path>
</svg>
