<?xml version="1.0" standalone="no"?>
<!DOCTYPE svg PUBLIC "-//W3C//DTD SVG 1.1//EN" "http://www.w3.org/Graphics/SVG/1.1/DTD/svg11.dtd" >
<svg xmlns="http://www.w3.org/2000/svg">
<defs>
  <font id="hfont" horiz-adv-x="1875">
    <font-face font-family="hfont"
      units-per-em="1000" ascent="1000"
      descent="0" />
    <missing-glyph horiz-adv-x="0" />
    <glyph glyph-name="account"
      unicode="&#xE001;"
      horiz-adv-x="1000" d="M500 916.65625C408.34375 916.65625 333.34375 841.65625 333.34375 750C333.34375 658.34375 408.34375 583.34375 500 583.34375C591.65625 583.34375 666.65625 658.34375 666.65625 750C666.65625 841.65625 591.65625 916.65625 500 916.65625V916.65625zM500 625C429.15625 625 375 683.34375 375 750C375 820.84375 429.15625 875 500 875C570.84375 875 625 820.84375 625 750C625 683.34375 570.84375 625 500 625zM737.5 445.84375L654.15625 529.1875C650 537.53125 637.5 541.6875 625 541.6875H583.34375V500.03125H629.1875L708.34375 416.6875V125.03125H291.6871875V416.6875L379.1875 500.03125H416.6875V541.6875H375.03125C362.53125 541.6875 354.1875 537.53125 345.875 529.1875L258.3746875 441.6875C254.2184375 437.53125 250.0309375 425.03125 250.0309375 416.6875V125.03125C250.0309375 104.1875 266.6871875 83.375 291.6871875 83.375H708.34375C729.1875 83.375 750 104.21875 750 125.03125V416.6875C750 429.1875 745.84375 441.6875 737.5 445.84375V445.84375z" />
    <glyph glyph-name="add"
      unicode="&#xE002;"
      horiz-adv-x="1000" d="M729.15625 520.84375H520.8125V708.34375C520.8125 720.84375 512.46875 729.1875 499.96875 729.1875C487.46875 729.1875 479.125 720.84375 479.125 708.34375V520.84375H270.78125C258.28125 520.84375 249.9375 512.5 249.9375 500C249.9375 487.5 258.28125 479.15625 270.78125 479.15625H479.125V250C479.125 237.5 487.46875 229.15625 499.96875 229.15625C512.46875 229.15625 520.8125 237.5 520.8125 250V479.15625H729.15625C741.65625 479.15625 750 487.5 750 500C750 512.5 741.65625 520.84375 729.15625 520.84375z" />
    <glyph glyph-name="caret-down"
      unicode="&#xE003;"
      horiz-adv-x="1000" d="M470.84375 308.34375L150 637.5C125 662.5 145.84375 708.34375 183.34375 708.34375H820.84375C858.34375 708.34375 875 662.5 850 637.5L533.34375 308.34375C512.5 291.6875 487.5 291.6875 470.84375 308.34375z" />
    <glyph glyph-name="caret-left"
      unicode="&#xE004;"
      horiz-adv-x="1000" d="M304.1559375 533.34375L633.3125 849.9996874999999C662.46875 874.9996875 708.3125 858.3434374999999 708.3125 820.8434374999999V183.34375C708.3125 145.84375 662.46875 129.1875 637.46875 154.1875L308.3121875 470.84375C287.4684375 487.5 287.4684375 516.6875 304.1559375 533.34375V533.34375z" />
    <glyph glyph-name="caret-right"
      unicode="&#xE005;"
      horiz-adv-x="1000" d="M695.84375 470.84375L366.6875 154.1875C337.53125 129.1875 291.6871875 145.84375 291.6871875 183.34375V820.8434374999999C291.6871875 858.3434374999999 337.53125 874.9996875 362.53125 849.9996874999999L691.6875 533.34375C712.53125 516.6875 712.53125 487.5 695.84375 470.84375z" />
    <glyph glyph-name="caret-up"
      unicode="&#xE006;"
      horiz-adv-x="1000" d="M529.15625 695.8440625000001L845.8125 366.6875C870.8125 341.6875 854.15625 295.84375 816.65625 295.84375H179.1559375C141.6559375 295.84375 124.9996875 341.6875 149.9996875 366.6875L466.65625 695.8440625000001C487.5 712.5003125000001 512.5 712.5003125000001 529.15625 695.8440625000001V695.8440625000001z" />
    <glyph glyph-name="email"
      unicode="&#xE007;"
      horiz-adv-x="1000" d="M904.15625 770.84375C900 783.34375 887.5 791.6875 875 800C862.5 808.3125 845.84375 812.5 833.34375 812.5H166.6884375C150.0321875 812.5 137.5321875 808.34375 125.0321875 800C112.5321875 791.65625 100.0321875 783.34375 95.8759375 770.84375C87.5321875 758.34375 83.3759375 745.84375 83.3759375 729.1875V270.84375C83.3759375 254.1875 87.5321875 233.34375 100.0321875 220.84375C108.3759375 208.34375 120.8759375 200 133.3759375 195.84375C141.7196875 191.6875 154.2196875 187.5 166.7196875 187.5H833.375C845.875 187.5 858.375 191.65625 866.71875 195.84375C879.21875 200 891.71875 212.5 900.0625 220.84375C908.40625 233.34375 916.71875 250 916.71875 270.84375V729.1875C916.71875 745.84375 912.5625 758.34375 904.21875 770.84375H904.15625zM845.84375 770.84375L500 425L154.1571875 770.84375H845.8125H845.84375zM125.0009375 741.65625L370.84375 495.8125L125.0009375 245.8125V741.65625V741.65625zM166.6571875 229.15625L404.15625 466.65625L504.15625 366.65625L604.15625 466.65625L841.65625 229.15625H166.6571875V229.15625zM629.15625 495.84375L875 741.6875V245.84375L629.15625 495.84375z" />
    <glyph glyph-name="facebook"
      unicode="&#xE008;"
      horiz-adv-x="1000" d="M916.65625 495.84375C916.65625 287.5 762.5 116.6875 566.65625 83.34375C566.65625 179.1875 566.65625 275 566.65625 366.6875C566.65625 370.84375 566.65625 375.03125 575 375.03125C604.15625 375.03125 633.34375 375.03125 658.34375 375.03125C662.5 375.03125 666.6875 375.03125 666.6875 379.1875C670.84375 412.53125 679.1875 450.03125 683.34375 483.34375C683.34375 491.6875000000001 683.34375 491.6875000000001 675 491.6875000000001C641.65625 491.6875000000001 608.34375 491.6875000000001 575 491.6875000000001C570.84375 491.6875000000001 566.65625 491.6875000000001 566.65625 495.84375C566.65625 520.84375 566.65625 550 566.65625 575C566.65625 608.34375 587.5 629.15625 620.8125 633.34375C641.65625 637.5 662.46875 633.34375 679.15625 633.34375C683.3125 633.34375 687.5 633.34375 687.5 641.6875C687.5 666.6875 687.5 695.8440625000001 687.5 720.8440625000001C687.5 737.5003125 687.5 737.5003125 670.84375 741.6878125000001C633.34375 750.0315625000001 600 754.1878125000001 562.5 750.0315625000001C525 745.8753125000001 495.84375 729.1878125 470.84375 704.1878125000001C445.84375 675.03125 437.5 637.53125 433.34375 600.03125C433.34375 570.875 433.34375 537.53125 433.34375 508.375C433.34375 500.03125 433.34375 500.03125 425 500.03125C395.84375 500.03125 366.65625 500.03125 333.34375 500.03125C329.1875 500.03125 325 500.03125 325 491.6875000000001C325 458.34375 325 420.84375 325 387.53125C325 383.375 325 379.1875 333.34375 379.1875C362.5 379.1875 395.84375 379.1875 425 379.1875C429.15625 379.1875 433.34375 379.1875 433.34375 370.84375C433.34375 275 433.34375 179.1875 433.34375 87.5C237.5 116.65625 83.34375 287.5 83.34375 495.84375C83.34375 725.0003125000001 270.84375 912.5003125 500 912.5003125C729.15625 912.5003125 916.65625 729.1565625000001 916.65625 495.84375V495.84375z" />
    <glyph glyph-name="google-inverted"
      unicode="&#xE009;"
      horiz-adv-x="1000" d="M500 906.25C274.305625 906.25 93.75 721.5909375 93.75 500C93.75 278.409375 274.305625 93.75 500 93.75C725.69375 93.75 906.25 278.409375 906.25 500C906.25 721.5909375 725.69375 906.25 500 906.25zM779.0406250000001 393.309375C762.625 339.9625 729.796875 294.821875 688.7625 257.890625C660.0375 237.375 627.2093749999999 220.9593749999999 598.484375 212.753125C582.071875 208.65 561.553125 204.546875 536.93125 204.546875C520.5187500000001 204.546875 508.20625 200.4406250000001 491.79375 204.546875C454.8625 204.546875 422.034375 212.753125 389.203125 229.1656250000001C364.584375 237.375 339.9625 253.7875 319.44375 270.203125C294.823125 286.615625 274.305625 311.2375 257.8915625 335.859375C241.4771875 364.5843749999999 225.063125 397.4124999999999 216.8559375 430.240625C208.6490625 458.965625 208.6490625 479.4812499999999 208.6490625 508.20625C212.7525 553.346875 220.9596875 594.38125 241.4771875 635.415625C270.201875 684.659375 303.0303125000001 725.694375 356.375 754.4190625C385.1 770.8334375 413.825 783.1440625 442.55 787.2475C458.965625 791.3509375 471.275 795.4546875 483.584375 795.4546875C500 795.4546875 512.3093749999999 799.558125 532.828125 795.4546875C573.8625000000001 791.3509375 614.9 783.1440625 647.728125 762.62625C668.24375 750.315625 688.7625 738.005 705.178125 721.5909375C709.28125 717.4875 709.28125 717.4875 705.178125 713.38375C680.55625 688.7625 655.9343749999999 664.140625 635.4156250000001 643.625C631.3125 635.415625 631.3125 635.415625 627.2093749999999 643.625C602.5875000000001 664.140625 577.965625 680.55625 545.1375 680.55625C536.93125 680.55625 528.725 680.55625 520.5187500000001 680.55625C516.4156250000001 680.55625 512.3093749999999 680.55625 512.3093749999999 680.55625C467.171875 680.55625 426.1375 664.140625 389.203125 631.3125C356.375 610.796875 335.859375 577.965625 327.65 541.034375C323.546875 512.309375 323.546875 487.6906250000001 327.65 458.965625C335.859375 409.7218750000001 364.584375 372.7906250000001 401.515625 344.0656250000001C426.1375 327.65 450.75625 319.44375 475.378125 311.2375C495.896875 307.134375 512.3093749999999 307.134375 536.93125 311.2375C561.553125 315.3406250000001 582.071875 319.44375 602.5875000000001 331.75625C627.2093749999999 344.0656250000001 643.625 364.5843749999999 660.0375 385.1C668.24375 401.515625 676.453125 413.8250000000001 676.453125 430.240625C676.453125 434.34375 676.453125 434.34375 672.35 434.34375H512.3093749999999C508.20625 434.34375 508.20625 434.34375 508.20625 442.55V536.9312500000001C508.20625 541.034375 508.20625 541.034375 512.3093749999999 541.034375H783.1437500000001C787.246875 541.034375 791.35 541.034375 791.35 536.9312500000001C795.453125 508.20625 795.453125 483.5843749999999 795.453125 454.8625C791.35 434.34375 787.246875 413.8250000000001 779.0406250000001 393.309375z" />
    <glyph glyph-name="google"
      unicode="&#xE00A;"
      horiz-adv-x="1000" d="M508.34375 416.65625C508.34375 420.8125 508.34375 420.8125 508.34375 420.8125C508.34375 462.46875 508.34375 508.3125 508.34375 549.96875C508.34375 554.125 508.34375 558.3125 516.6875 558.3125C641.6875 558.3125 770.84375 558.3125 895.84375 558.3125C900 558.3125 904.1875 558.3125 904.1875 549.96875C908.34375 512.46875 912.53125 474.96875 908.34375 437.46875C904.1875 404.125 900 374.96875 891.6875 345.8125C866.6875 270.8125 825.03125 208.3125 762.53125 158.3125C725.03125 129.15625 679.1875 108.3125 633.375 95.8125C608.375 87.46875 579.21875 83.3125 550.03125 83.3125C529.1875 83.3125 508.375 79.15625 487.53125 83.3125C437.53125 83.3125 391.6875 95.8125 345.875 116.65625C312.53125 129.15625 279.21875 150 250.03125 170.8125C212.53125 199.96875 183.3746875 233.3125 158.3746875 270.8125C133.3746875 312.46875 112.5309375 354.15625 100.0309375 404.15625C91.6871875 441.65625 87.5309375 475 87.5309375 512.5C91.6871875 575 104.1871875 633.34375 133.375 691.6565625000001C170.875 762.5003125000001 220.875 820.8128125 291.71875 858.3128125000001C333.375 879.1565625000001 370.875 895.8128125000001 412.5625 904.1565625C433.40625 908.3128125 454.21875 912.5003125 470.90625 912.5003125C491.75 912.5003125 512.5625 916.6565625 537.5625 912.5003125C595.90625 908.3440625 650.0625 895.8440625 700.0625 866.6565625000001C729.21875 850.0003125000001 758.40625 833.3128125000001 783.40625 808.3128125000001C787.5625 804.1565625000001 787.5625 804.1565625000001 783.40625 795.8128125000001C750.0625 762.4690625 716.75 729.1565625000001 683.40625 699.9690625000001C675.0625 691.6253125 679.25 691.6253125 670.90625 699.9690625000001C637.5625 729.1253125000001 600.0625 749.9690625000001 554.25 754.1253125000001C470.90625 766.6253125 400.09375 745.7815625000001 337.59375 691.6253125C295.9375 654.125 270.9375 608.28125 258.4375 554.125C250.09375 516.625 250.09375 479.125 258.4375 441.625C270.9375 374.96875 308.4375 320.78125 362.59375 279.125C395.9375 258.28125 429.25 241.625 466.75 233.28125C495.90625 229.125 520.90625 229.125 550.09375 233.28125C583.4375 237.4375 612.59375 245.78125 641.75 262.4375C675.09375 279.09375 700.09375 308.28125 720.90625 337.4375C733.40625 358.28125 741.75 379.09375 745.90625 399.9375C745.90625 408.28125 745.90625 408.28125 741.75 408.28125C666.75 408.28125 591.75 408.28125 520.90625 408.28125C512.5625 416.625 512.5625 416.625 508.4062499999999 416.625L508.34375 416.65625z" />
    <glyph glyph-name="heart-o"
      unicode="&#xE00B;"
      horiz-adv-x="1000" d="M683.334375 891.6665625C645.8343749999999 891.6665625 608.334375 883.3334375 575 862.5C545.834375 850 520.8343749999999 825 500 795.8334375C479.165625 825 454.165625 845.8334375 425 862.5C391.6656250000001 883.3334375 354.165625 891.6665625 316.6656250000001 891.6665625C200 891.6665625 83.333125 804.1665625 83.333125 662.5C83.333125 575 116.6665625 491.665625 179.1665625 429.165625L500 108.334375L820.834375 429.165625C883.334375 491.665625 916.665625 575 916.665625 662.5C916.665625 804.1665625 800 891.6665625 683.334375 891.6665625zM791.6656250000001 454.165625L500 162.5L208.333125 454.165625C154.1665625 512.5 125 583.334375 125 662.5C125 783.3334375 220.833125 854.1665625 316.6656250000001 854.1665625C350 854.1665625 379.1656250000001 845.8334375 404.165625 833.3334375C429.165625 820.8334375 450 804.1665625 466.665625 779.1665625L500 729.1665625L533.334375 775C550 800 570.834375 816.6665625 595.834375 829.1665625C625 845.8334375 654.165625 850 683.334375 850C779.165625 850 875 779.1665625 875 658.334375C875 583.334375 845.834375 512.5 791.6656250000001 454.165625z" />
    <glyph glyph-name="heart"
      unicode="&#xE00C;"
      horiz-adv-x="1000" d="M683.9031249999999 891.6665625C646.4031249999999 891.6665625 608.903125 883.333125 575.5687499999999 862.4996874999999C546.403125 849.9996874999999 521.4031249999999 824.9996874999999 500.56875 795.833125C479.734375 824.9996874999999 454.734375 845.833125 425.56875 862.4996874999999C392.234375 883.333125 354.734375 891.6665625 317.234375 891.6665625C200.56875 891.6665625 83.9021875 804.16625 83.9021875 662.5C83.9021875 575 117.235625 491.665625 179.735625 429.165625L500.56875 108.334375L821.403125 429.165625C883.903125 491.665625 917.234375 575 917.234375 662.5C917.234375 804.16625 800.56875 891.6665625 683.9031249999999 891.6665625z" />
    <glyph glyph-name="instagram-inverted"
      unicode="&#xE00D;"
      horiz-adv-x="1000" d="M902.1875 666.5625C898.125 731.5625 885.9375 788.4375 837.1875 837.1875C788.4375 885.9375 731.5625 898.125 666.5625 902.1875C609.6875 906.25 556.875 906.25 500 906.25C443.125 906.25 390.3125 906.25 333.4375 902.1875C268.4375 898.125 211.5625 885.9375 162.8125 837.1875C114.0625 788.4375 101.875 731.5625 97.8125 666.5625C93.75 609.6875 93.75 556.875 93.75 500C93.75 443.125 93.75 390.3125 97.8125 333.4375C101.875 268.4375 114.0625 211.5625 162.8125 162.8125C211.5625 114.0625 268.4375 101.875 333.4375 97.8125C390.3125 93.75 443.125 93.75 500 93.75C556.875 93.75 609.6875 93.75 666.5625 97.8125C731.5625 101.875 788.4375 114.0625 837.1875 162.8125C885.9375 211.5625 898.125 268.4375 902.1875 333.4375C906.25 390.3125 906.25 443.125 906.25 500C906.25 556.875 906.25 609.6875 902.1875 666.5625zM500 292.8125C386.25 292.8125 292.8125 386.25 292.8125 500C292.8125 613.75 386.25 707.1875 500 707.1875C613.75 707.1875 707.1875 613.75 707.1875 500C707.1875 386.25 613.75 292.8125 500 292.8125zM715.3125 666.5625C686.875 666.5625 666.5625 686.875 666.5625 715.3125C666.5625 743.75 686.875 764.0625 715.3125 764.0625C743.75 764.0625 764.0625 743.75 764.0625 715.3125C764.0625 686.875 743.75 666.5625 715.3125 666.5625zM500 365.9375C574.040625 365.9375 634.0625 425.959375 634.0625 500C634.0625 574.0406250000001 574.040625 634.0625 500 634.0625C425.959375 634.0625 365.9375 574.0406250000001 365.9375 500C365.9375 425.959375 425.959375 365.9375 500 365.9375z" />
    <glyph glyph-name="instagram"
      unicode="&#xE00E;"
      horiz-adv-x="1000" d="M637.5 500C637.5 575 575 637.5 500 637.5C425 637.5 362.5 575 362.5 500C362.5 425 425 362.5 500 362.5C575 362.5 637.5 425 637.5 500V500zM712.5 500C712.5 383.34375 616.65625 287.5 500 287.5C383.34375 287.5 287.5003125 383.34375 287.5003125 500C287.5003125 616.65625 383.34375 712.5 500 712.5C616.65625 712.5 712.5 616.65625 712.5 500zM770.84375 720.84375C770.84375 691.6875 750 670.84375 720.84375 670.84375C691.6875 670.84375 670.84375 691.6875 670.84375 720.84375C670.84375 750 691.6875 770.84375 720.84375 770.84375C750 770.84375 770.84375 750 770.84375 720.84375zM500 841.65625C437.5 841.65625 308.3440625 845.8125 254.1565625 825C233.3128125 816.65625 220.8128125 808.34375 208.3128125 791.65625C191.6565625 779.15625 183.3128125 766.65625 174.9690625 745.8125C154.1253125 691.65625 158.3128125 562.46875 158.3128125 499.9687499999999C158.3128125 437.46875 154.1565625 308.3125 174.9690625 254.125C183.3128125 233.28125 191.6253125 220.78125 208.3128125 208.28125C224.9690625 191.625 237.4690625 183.28125 254.1565625 174.9375C308.3128125 154.09375 437.5 158.28125 500 158.28125C562.5 158.28125 691.65625 154.125 745.84375 174.9375C766.6875 183.28125 779.1875 191.59375 791.6875 208.28125C808.34375 224.9375 816.6875 237.4375 825.03125 254.125C845.875 308.28125 841.6875 437.46875 841.6875 499.9687499999999C841.6875 562.46875 845.84375 691.625 825.03125 745.8125C816.6875 766.65625 808.375 779.15625 791.6875 791.65625C775.03125 808.3125 762.53125 816.65625 745.84375 825C691.6875 845.84375 562.5 841.65625 500 841.65625V841.65625zM916.65625 500C916.65625 441.65625 916.65625 387.5 912.5 329.15625C908.34375 262.5 895.84375 204.15625 845.84375 154.15625C795.84375 104.15625 737.5 91.65625 670.84375 87.5C612.5 83.34375 558.34375 83.34375 500 83.34375C441.65625 83.34375 387.5 83.34375 329.15625 87.5C262.5003125 91.65625 204.1565625 104.15625 154.1565625 154.15625C104.1565625 204.15625 91.6565625 262.5 87.5003125 329.15625C83.3440625 387.5 83.3440625 441.65625 83.3440625 500C83.3440625 558.34375 83.3440625 612.5 87.5003125 670.84375C91.6565625 737.5 104.1565625 795.84375 154.1565625 845.84375C204.1565625 895.84375 262.5003125 908.34375 329.15625 912.5C387.5 916.65625 441.65625 916.65625 500 916.65625C558.34375 916.65625 612.5 916.65625 670.84375 912.5C737.5 908.34375 795.84375 895.84375 845.84375 845.84375C895.84375 795.84375 908.34375 737.5 912.5 670.84375C916.65625 612.5 916.65625 558.34375 916.65625 500z" />
    <glyph glyph-name="left-chevron"
      unicode="&#xE00F;"
      horiz-adv-x="1000" d="M729.15625 529.15625C745.8125 512.5 745.8125 483.3125 729.15625 466.65625L300.0003125 83.3125H466.65625L895.8125 470.8125C912.46875 487.46875 912.46875 516.65625 895.8125 533.3125L466.65625 916.65625H300.0003125L729.15625 529.15625V529.15625zM791.65625 470.84375C808.3125 487.5 808.3125 516.6875 791.65625 533.34375L408.3125 875H449.96875L833.3125 529.15625C849.96875 512.5 849.96875 483.3125 833.3125 466.65625L449.96875 125H408.3125L791.65625 470.84375zM520.84375 529.15625C537.5 512.5 537.5 483.3125 520.84375 466.65625L91.6871875 83.3125H258.3434375L687.5 470.8125C704.15625 487.46875 704.15625 516.65625 687.5 533.3125L258.3434375 916.65625H91.6871875L520.84375 529.15625V529.15625zM583.34375 470.84375C600 487.5 600 516.6875 583.34375 533.34375L199.9996875 875H241.6559375L625 529.15625C641.65625 512.5 641.65625 483.3125 625 466.65625L241.6559375 125H199.9996875L583.34375 470.84375z" />
    <glyph glyph-name="linkedin"
      unicode="&#xE010;"
      horiz-adv-x="1000" d="M841.65625 916.65625H158.3121875C116.6559375 916.65625 83.3121875 883.3125 83.3121875 841.65625V162.5C83.3121875 120.84375 116.6559375 83.34375 158.3121875 83.34375H837.46875C879.125 83.34375 912.46875 116.6875 912.46875 162.5V841.65625C916.625 883.3125 883.3125 916.65625 841.625 916.65625H841.65625zM341.65625 195.84375C341.65625 183.34375 333.3125 175 320.8125 175H224.9684375C212.4684375 175 204.1246875 183.34375 204.1246875 195.84375V587.5C204.1246875 600 212.4684375 608.34375 224.9684375 608.34375H316.625C329.125 608.34375 337.46875 600 337.46875 587.5V195.84375H341.65625zM270.8434375 645.84375C220.8434375 645.84375 183.3434375 683.34375 183.3434375 733.34375C183.3434375 783.34375 224.9996875 820.84375 270.8434375 820.84375C320.84375 820.84375 358.34375 779.1875 358.34375 733.34375C362.5 687.5 320.84375 645.84375 270.8434375 645.84375V645.84375zM804.15625 175C775 175 745.8125 175 712.5 175C695.84375 175 687.5 183.34375 687.5 200V404.15625C687.5 420.8125 683.34375 437.5 679.15625 454.15625C670.8125 479.15625 650 495.8125 625 495.8125C591.65625 499.9687499999999 570.84375 487.46875 554.15625 458.3125C541.65625 437.46875 537.5 416.65625 537.5 395.8125V199.96875C537.5 179.125 529.15625 174.96875 512.5 174.96875C483.34375 174.96875 454.15625 174.96875 425 174.96875C408.34375 174.96875 400 183.3125 400 199.96875V583.3125C400 599.96875 408.34375 608.3125 425 608.3125H512.5C529.15625 608.3125 537.5 599.96875 537.5 583.3125V558.3125C541.65625 562.46875 541.65625 566.65625 545.84375 566.65625C566.6875 591.65625 591.6875 604.15625 620.84375 608.3125C650 612.46875 679.1875 616.65625 712.5 608.3125C758.34375 599.96875 791.65625 566.65625 808.34375 524.96875C820.84375 487.46875 825 449.96875 825 412.46875C825 341.625 825 270.8125 825 195.8125C829.15625 183.3125 820.84375 174.96875 804.15625 174.96875V175z" />
    <glyph glyph-name="logo-responsive"
      unicode="&#xE011;"
      horiz-adv-x="1750" d="M1696.078125 392.625C1704.103125 384.34375 1704.840625 370.7531250000001 1697.5218750000001 360.9812500000001C1652.26875 302.9625 1634.746875 286.396875 1610.678125 261.5093750000001L1602.65625 253.225C1595.371875 245.7062500000001 1595.371875 234.36875 1601.9156249999999 226.85L1744.253125 60.3093750000001C1757.378125 45.2312499999999 1746.434375 21.109375 1727.46875 21.109375H1563.984375C1557.403125 21.109375 1550.859375 24.125 1547.1999999999998 29.390625L1478.58125 110.7718749999999C1470.5593749999998 120.58125 1456.69375 122.0718750000001 1447.1937500000001 113.7875C1396.1 70.08125 1296.09375 0 1165.4781249999999 0C974.96875 0 875 136.384375 875 274.296875C875 416.7125000000001 982.2875 491.334375 1023.88125 516.946875L1072.0531250000001 546.340625C1084.4750000000001 553.859375 1086.65625 570.4625 1077.8937500000002 581.7625C1045.0656250000002 620.2 1003.434375 685.015625 1003.434375 761.8521875C1003.434375 880.906875 1086.65625 1000 1258.903125 1000C1420.20625 1000 1507.7875000000001 889.228125 1507.7875000000001 771.661875C1507.7875000000001 703.0690625 1475.6625000000001 620.9625 1377.134375 559.165625L1361.090625 549.35625C1349.40625 541.8343749999999 1346.484375 525.23125 1355.9875 513.9312500000001L1474.9593750000001 373.00625C1483.7218750000002 362.471875 1499.025 362.471875 1508.528125 372.24375C1547.1999999999998 412.16875 1573.484375 443.0875 1591.009375 466.4468750000001C1599.03125 476.984375 1615.078125 477.746875 1624.578125 467.9375L1696.115625 392.5875L1696.078125 392.625zM1198.3062499999999 439.3468750000001C1191.025 447.6281250000001 1179.340625 449.88125 1169.840625 444.6156249999999C1106.325 406.940625 1053.790625 356.440625 1053.790625 288.609375C1053.790625 217.040625 1112.165625 161.9968750000001 1190.284375 161.9968750000001C1253.8 161.9968750000001 1310.696875 198.9093750000001 1345.00625 229.828125C1354.5093749999999 238.109375 1355.2093750000001 253.1875 1347.1875 262.9968750000001L1198.3062499999999 439.3468750000001V439.3468750000001zM1237.015625 650.315625C1244.3 640.50625 1258.2 639.01875 1267.665625 645.8125L1291.73125 663.14375C1342.0875 699.328125 1355.95 737.7281250000001 1355.95 769.41C1355.95 816.894375 1328.2218750000002 864.3409375 1265.446875 864.3409375C1200.4875 864.3409375 1171.28125 818.383125 1171.28125 775.4028125C1171.28125 739.2168750000001 1190.9875000000002 709.1 1209.953125 684.975L1236.940625 650.315625H1237.015625zM273.9303125 626.5406250000001H541.240625C552.3125 626.5406250000001 561.175 635.58125 561.175 646.871875V978.94496875C561.175 990.23534375 570.040625 999.275278125 581.109375 999.275278125H796.73125C807.8031249999999 999.275278125 816.665625 990.23534375 816.665625 978.94496875V20.3312500000001C816.665625 9.040625 807.8031249999999 0 796.73125 0H581.109375C570.040625 0 561.175 9.040625 561.175 20.3312500000001V384.025C561.175 395.315625 552.3125 404.35625 541.240625 404.35625H273.9303125C262.859375 404.35625 253.9950000000001 395.315625 253.9950000000001 384.025V20.3312500000001C253.9950000000001 9.040625 245.1309375 0 234.06 0H19.935125C8.86421875 0 0 9.040625 0 20.3312500000001V979.66965625C0 990.9600625 8.86421875 1000 19.935125 1000H234.06C245.1309375 1000 253.9950000000001 990.9600625 253.9950000000001 979.66965625V647.59375C253.2471875 635.5406250000001 262.859375 626.503125 273.9303125 626.503125V626.5406250000001z" />
    <glyph glyph-name="logo"
      unicode="&#xE012;"
      horiz-adv-x="1875" d="M60.1559375 222.1875H35.0934375C31.7184375 222.1875 28.74971875 219.1875 28.74971875 215.84375V101.0625C28.74971875 97.6875 31.7496875 94.71875 35.0934375 94.71875H60.1559375C63.5309375 94.71875 66.4996875 97.71875 66.4996875 101.0625V215.84375C66.1246875 219.21875 63.4996875 222.1875 60.1559375 222.1875V222.1875zM163.3440625 182.9375L114.7503125 134.34375H148.4065625L197.0003125 182.9375H163.3440625zM219.4371875 182.9375L170.8434375 134.34375H204.4996875L253.0934375 182.9375H219.4371875zM275.5 182.9375L226.53125 134.34375H260.5625L309.15625 182.9375H275.5zM381.3125 161.25L330.46875 182.1875L282.6253125 134.34375H327.125C328.25 134.34375 329 134.71875 330.125 134.71875L381.34375 155.65625C384.34375 157.15625 384.34375 159.78125 381.34375 161.25H381.3125zM66.1559375 182.9375V134.34375H92.311875L140.905625 182.9375H66.1559375zM1836.34375 222.1875H1811.28125C1807.90625 222.1875 1804.9375 219.1875 1804.9375 215.84375V182.9375H1730.15625L1778.75 134.34375H1804.90625V101.4375C1804.90625 98.0625 1807.90625 95.09375 1811.25 95.09375H1836.3125C1839.6875 95.09375 1842.65625 98.09375 1842.65625 101.4375V216.21875C1842.28125 219.21875 1839.65625 222.1875 1836.3125 222.1875H1836.34375zM1618.03125 182.9375L1666.625 134.34375H1700.28125L1651.6875 182.9375H1618.03125zM1561.9375 182.9375L1610.53125 134.34375H1644.1875L1595.59375 182.9375H1561.9375zM1674.09375 182.9375L1722.6875 134.34375H1756.34375L1707.75 182.9375H1674.09375zM1489.78125 161.25C1486.78125 160.125 1486.78125 157.125 1489.78125 156L1541 135.0625C1541.75 134.6875 1542.875 134.6875 1544 134.6875H1588.5L1540.28125 182.15625L1489.8125 161.21875L1489.78125 161.25zM1841.21875 718.6559374999999V693.5934374999999C1841.21875 690.2184374999999 1838.59375 687.25 1834.875 687.25H1720.09375C1716.71875 687.25 1714.125 689.8746874999999 1714.125 693.2184374999999V718.6246875C1714.125 721.9996874999999 1716.75 724.5934374999999 1720.09375 724.5934374999999H1732.0625C1735.4375 724.5934374999999 1738.03125 727.2184374999999 1738.03125 730.5621874999999V827.3746875C1738.03125 830.3746875 1735.78125 832.6246874999999 1732.8125 832.6246874999999C1732.8125 832.6246874999999 1354.46875 899.5309375 955.5625 899.5309375C542.46875 899.5309375 136.4371875 832.6246874999999 136.4371875 832.6246874999999C134.1871875 832.6246874999999 132.3121875 831.1246874999999 131.5621875 829.2496874999999V730.1871874999999C131.5621875 726.8121874999999 134.1871875 724.2184374999999 137.5309375 724.2184374999999H149.4996875C152.8746875 724.2184374999999 155.4684375 721.5934374999999 155.4684375 718.2496874999999V692.8434374999999C155.4684375 689.4684374999999 152.8434375 686.875 149.4996875 686.875H34.7184375C31.3434375 686.875 28.74971875 689.4996874999999 28.74971875 692.8434374999999V718.6246875C28.74971875 721.9996874999999 31.3746875 724.5934374999999 34.7184375 724.5934374999999H46.6871875C50.0621875 724.5934374999999 52.6559375 727.2184374999999 52.6559375 730.5621874999999V894.6871874999999C52.6559375 897.6871874999999 54.9059375 899.9059375 57.8746875 899.9059375C57.8746875 899.9059375 503.1250000000001 966.8121875 955.125 966.8121875C1393.65625 966.8121875 1811.25 899.9059375 1811.25 899.9059375C1814.25 899.9059375 1816.46875 897.6559375 1816.46875 894.6871874999999V730.9371874999999C1816.46875 727.5621874999999 1819.09375 724.9684374999999 1822.4375 724.9684374999999H1834.40625C1838.15625 724.9684374999999 1841.125 721.9684374999999 1841.125 718.6246875L1841.21875 718.6559374999999zM112.875625 517.15625H195.125625C198.500625 517.15625 201.094375 519.78125 201.094375 523.125V623.3125C201.094375 626.6875 203.719375 629.28125 207.063125 629.28125H273.219375C276.594375 629.28125 279.188125 626.65625 279.188125 623.3125V334.3125C279.188125 330.9375 276.563125 328.34375 273.219375 328.34375H207.063125C203.688125 328.34375 201.094375 330.96875 201.094375 334.3125V443.84375C201.094375 447.21875 198.469375 449.8125 195.125625 449.8125H112.875625C109.500625 449.8125 106.906875 447.1875 106.906875 443.84375V334.3125C106.906875 330.9375 104.281875 328.34375 100.938125 328.34375H34.750625C31.375625 328.34375 28.78190625 330.96875 28.78190625 334.3125V623.3125C28.78190625 626.6875 31.406875 629.28125 34.750625 629.28125H100.563125C103.938125 629.28125 106.531875 626.65625 106.531875 623.3125V523.125C106.531875 520.125 109.531875 517.15625 112.875625 517.15625V517.15625zM496.84375 379.1875H395.90625C393.28125 379.1875 391.03125 377.6875 390.3125 375.4375L373.125 332.4375C372 330.1875 369.75 328.6875 367.53125 328.6875H297.999375C293.499375 328.6875 290.905625 333.1875 292.405625 336.90625L403.4375 625.90625C404.1875 628.15625 406.8125 630.03125 409.03125 630.03125H486.03125C488.65625 630.03125 490.90625 628.53125 491.625 625.90625L600.40625 336.90625C601.90625 332.78125 598.90625 328.6875 594.8125 328.6875H524.53125C521.90625 328.6875 519.65625 330.1875 518.9375 332.8125L503.25 375.4375C501.7500000000001 377.3125 499.5 379.1875 496.90625 379.1875H496.84375zM477.375 446.875L452.3125 519.40625C450.4375 525 442.59375 525 440.71875 519.40625L416.40625 446.875C414.90625 442.75 417.90625 438.65625 422.375 438.65625H472.09375C475.84375 438.65625 478.8125 442.78125 477.34375 446.875H477.375zM612.71875 334.71875V623.71875C612.71875 627.09375 615.34375 629.6875 618.6875 629.6875H687.84375C689.71875 629.6875 691.59375 628.9375 692.71875 627.4375L823.9375 459.5625C827.6875 455.0625 834.78125 457.3125 834.78125 463.3125V623.6875C834.78125 627.0625 837.40625 629.65625 840.75 629.65625H906.5625C909.9375 629.65625 912.53125 627.03125 912.53125 623.6875V334.6875C912.53125 331.3125 909.90625 328.71875 906.5625 328.71875H837.40625C835.53125 328.71875 833.65625 329.46875 832.53125 330.96875L701.3125 498.8437500000001C697.5625 503.34375 690.46875 501.09375 690.46875 495.09375V334.71875C690.46875 331.34375 687.84375 328.75 684.5 328.75H618.6875C615.3125 328.375 612.71875 331.375 612.71875 334.71875V334.71875zM955.5625 334.34375V623.34375C955.5625 626.71875 958.1875 629.3125 961.53125 629.3125L1058.375 629.6875C1088.65625 629.6875 1139.125 625.5625 1178 588.1875C1213.15625 554.15625 1219.875 510.8125 1219.875 478.65625C1219.875 439.03125 1209.78125 403.875 1180.625 374.34375C1156.6875 350.40625 1116.3125 328.71875 1065.09375 328.71875L961.53125 328.34375C958.53125 327.96875 955.5625 330.96875 955.5625 334.3125V334.34375zM1033.6875 400.875C1033.6875 397.5 1036.6875 394.53125 1040.03125 394.90625L1049.75 395.28125C1068.8125 395.28125 1095.375 397.15625 1115.5625 416.96875C1125.65625 426.3125 1138.75 445.375 1138.75 478.65625C1138.75 506.6875 1130.15625 530.625 1115.1875 544.46875C1096.5 561.65625 1072.1875 563.53125 1052.75 563.53125L1039.28125 563.15625C1035.90625 563.15625 1033.3125 560.53125 1033.3125 557.1875V400.90625L1033.6875 400.875zM1326.03125 623.6875V400.875C1326.03125 397.5 1328.65625 394.90625 1332 394.90625H1413.5C1416.875 394.90625 1419.46875 392.28125 1419.46875 388.9375V334.71875C1419.46875 331.34375 1416.84375 328.75 1413.5 328.75H1253.875C1250.5 328.75 1247.90625 331.375 1247.90625 334.71875V623.71875C1247.90625 627.09375 1250.53125 629.6875 1253.875 629.6875H1319.6875C1323.4375 629.6875 1326.03125 627.0625 1326.03125 623.71875V623.6875zM1596.71875 563.125H1515.96875C1512.59375 563.125 1510 560.5 1510 557.15625V519.40625C1510 516.03125 1512.625 513.4375 1515.96875 513.4375H1591.875C1595.25 513.4375 1597.84375 510.8125 1597.84375 507.46875V453.25C1597.84375 449.875 1595.21875 447.28125 1591.875 447.28125H1515.96875C1512.59375 447.28125 1510 444.65625 1510 441.3125V400.9375C1510 397.5625 1512.625 394.96875 1515.96875 394.96875H1596.71875C1600.09375 394.96875 1602.6875 392.34375 1602.6875 389V334.78125C1602.6875 331.40625 1600.0625 328.8125 1596.71875 328.8125H1437.84375C1434.46875 328.8125 1431.875 331.4375 1431.875 334.78125V623.78125C1431.875 627.15625 1434.5 629.75 1437.84375 629.75H1596.71875C1600.09375 629.75 1602.6875 627.125 1602.6875 623.78125V569.5625C1602.6875 566.1875 1600.0625 563.21875 1596.71875 563.21875V563.125zM1650.15625 411.71875C1652.03125 415.09375 1656.5 416.21875 1659.5 413.59375C1675.9375 399.75 1698.75 387.8125 1723.0625 387.8125C1738.75 387.8125 1748.46875 392.6875 1753.34375 398.28125C1757.84375 402.78125 1761.1875 409.5 1761.1875 417.34375C1761.1875 423.3125 1758.9375 430.0625 1752.59375 435.28125C1744.75 442 1733.15625 445.375 1713.71875 450.96875L1693.53125 457.3125C1680.8125 461.4375 1662.5 468.15625 1650.15625 481.625C1634.84375 498.4375 1632.96875 519.375 1632.96875 535.09375C1632.96875 572.09375 1647.5625 594.53125 1660.625 607.625C1675.9375 622.96875 1701.375 636.03125 1738 636.03125C1766.03125 636.03125 1798.1875 627.8125 1825.46875 614.34375C1828.46875 612.84375 1829.59375 609.09375 1828.09375 606.125L1803.03125 557.15625C1801.15625 553.78125 1797.0625 552.65625 1794.0625 554.90625C1773.5 569.5 1757.8125 570.96875 1748.4375 570.96875C1740.59375 570.96875 1730.5 569.09375 1722.65625 562C1718.15625 557.5 1714.8125 552.65625 1714.8125 545.9375C1714.8125 540.6875 1715.5625 536.59375 1718.9375 532.46875C1721.1875 529.84375 1726.78125 524.25 1745.09375 519L1769.03125 511.90625C1788.09375 505.9375 1807.90625 499.1875 1823.625 482C1838.9375 465.9375 1843.0625 449.09375 1843.0625 428.15625C1843.0625 400.5 1836.34375 373.9375 1814.65625 352.25C1788.875 326.46875 1757.84375 321.59375 1725.6875 321.59375C1706.625 321.59375 1688.6875 323.46875 1666.625 331.6875C1662.125 333.1875 1645.3125 339.53125 1625.5 352.625C1622.875 354.5 1622.125 357.875 1623.625 360.46875L1650.15625 411.6875V411.71875zM595.90625 135.4375C598.15625 133.1875 598.15625 129.46875 596.28125 127.21875C586.1875 114.875 582.4375 111.15625 576.84375 105.90625L571.96875 101.03125L606 62.53125C609.375 58.40625 606.75 52.4375 601.5 52.4375H566.71875C564.84375 52.4375 563.34375 53.1875 562.21875 54.6875L547.25 71.875C545 74.5 541.28125 74.875 538.65625 72.625C526.6875 62.90625 504.25 47.9375 474.71875 47.9375C430.96875 47.9375 408.1875 78.21875 408.1875 108.5C408.1875 139.90625 432.5 156.34375 442.21875 162.34375L452.3125 168.3125C455.6875 170.1875 456.4375 174.65625 453.8125 177.65625C446.34375 186.25 437.375 200.09375 437.375 216.90625C437.375 243.4375 456.4375 269.625 495.6875 269.625C532.6875 269.625 552.5 245.3125 552.5 219.15625C552.5 203.8125 545.03125 185.875 522.59375 172.0625L519.96875 170.5625C516.59375 168.6875 515.84375 164.21875 518.46875 161.21875L544.25 131.6875C546.5 129.0625 550.59375 129.0625 553.21875 131.3125C561.0625 139.53125 566.6875 145.53125 570.78125 150.375C573.03125 153.375 577.125 153.375 579.75 150.75L595.8125 135.40625L595.90625 135.4375zM483 144.78125C481.125 147.03125 477.75 147.40625 475.15625 145.90625C460.9375 137.6875 449.375 126.46875 449.375 111.875C449.375 95.8125 462.84375 83.84375 480.40625 83.84375C494.25 83.84375 506.9375000000001 91.3125 514.8125 98.0625C517.4375 100.3125 517.8125 104.40625 515.5625 107.03125L483.03125 144.78125H483zM490.84375 192.65625C492.71875 190.03125 496.4375 189.65625 499.0625 191.53125L503.9375000000001 194.90625C515.53125 202.75 518.53125 211.34375 518.53125 218.46875C518.53125 228.9375 512.1875 239.40625 497.96875 239.40625C483 239.40625 476.28125 229.3125 476.28125 219.59375C476.28125 211.75 480.78125 205 485.25 199.40625L490.84375 192.6875V192.65625zM701.6875 264.4375H722.25C724.875 264.4375 727.125 262.9375 727.84375 260.6875L776.8125 142.9375C779.0625 138.0625 785.78125 137.6875 788.03125 142.9375L839.625 260.6875C840.75 262.9375 843 264.4375 845.21875 264.4375H865.78125C868.78125 264.4375 871.375 262.1875 871.75 259.1875L905.40625 59.5625C906.15625 55.8125 903.15625 52.46875 899.4375 52.46875H869.90625C866.90625 52.46875 864.3125 54.71875 863.9375 57.71875L848.59375 161.65625C847.84375 167.625 839.25 168.75 837 163.15625L790.28125 55.875C789.15625 53.625 786.90625 52.125 784.6875 52.125H778.71875C776.09375 52.125 773.84375 53.625 773.125 55.875L729 163.53125C726.75 169.125 718.15625 168.40625 717.40625 162.03125L700.21875 57.71875C699.84375 54.71875 697.21875 52.46875 694.25 52.46875H664.71875C660.96875 52.46875 658 55.84375 658.75 59.5625L695.75 259.1875C696.5 262.5625 698.75 264.4375 701.71875 264.4375H701.6875zM1138.375 158.25C1138.375 93.5625 1092.03125 47.59375 1025.09375 47.59375C958.15625 47.59375 911.8125 93.5625 911.8125 158.25C911.8125 222.9375 958.15625 269.28125 1025.09375 269.28125C1092.03125 269.28125 1138.375 222.9375 1138.375 158.25zM1095.75 158.25C1095.75 201.25 1066.59375 231.53125 1025.09375 231.53125C983.59375 231.53125 954.4375 200.875 954.4375 158.25C954.4375 115.25 983.59375 84.96875 1025.09375 84.96875C1066.59375 85.34375 1095.75 115.25 1095.75 158.25zM1219.875 264.4375C1249.03125 264.4375 1264 256.96875 1274.09375 248.375C1290.15625 234.53125 1295.03125 216.59375 1295.03125 200.53125C1295.03125 179.96875 1286.8125 161.65625 1270.34375 150.4375C1266.59375 147.8125 1261.75 145.1875 1255.375 143.34375C1251.25 142.21875 1249.78125 137.375 1252.375 134L1305.84375 61.84375C1308.84375 57.71875 1305.84375 52.125 1300.96875 52.125H1265.09375C1262.84375 52.125 1260.96875 53.25 1259.875 54.75L1204.90625 137.375H1200.03125V58.5C1200.03125 55.125 1197.40625 52.53125 1194.0625 52.53125H1164.90625C1161.53125 52.53125 1158.9375 55.15625 1158.9375 58.5V258.125C1158.9375 261.5 1161.5625 264.09375 1164.90625 264.09375H1219.875V264.4375zM1200.0625 173.1875C1200.0625 169.8125 1202.6875 167.21875 1206.03125 167.21875H1211.625C1219.46875 167.21875 1252.375 168.34375 1252.375 199.375C1252.375 230.78125 1219.84375 231.15625 1212.375 231.15625H1206.03125C1202.65625 231.15625 1200.0625 228.53125 1200.0625 225.1875V173.21875V173.1875zM1432.59375 228.90625H1368.28125C1364.90625 228.90625 1362.3125 226.28125 1362.3125 222.9375V187.78125C1362.3125 184.40625 1364.9375 181.8125 1368.28125 181.8125H1429.21875C1432.59375 181.8125 1435.1875 179.1875 1435.1875 175.84375V152.65625C1435.1875 149.28125 1432.5625 146.6875 1429.21875 146.6875H1368.28125C1364.90625 146.6875 1362.3125 144.0625 1362.3125 140.71875V94.375C1362.3125 91 1364.9375 88.40625 1368.28125 88.40625H1432.21875C1435.59375 88.40625 1438.1875 85.78125 1438.1875 82.4375V59.25C1438.1875 55.875 1435.5625 53.28125 1432.21875 53.28125H1327.15625C1323.78125 53.28125 1321.1875 55.90625 1321.1875 59.25V258.875C1321.1875 262.25 1323.8125 264.84375 1327.15625 264.84375H1432.59375C1435.96875 264.84375 1438.5625 262.21875 1438.5625 258.875V235.6875C1438.5625 231.5625 1435.9375 228.96875 1432.59375 228.96875V228.90625z" />
    <glyph glyph-name="phone1"
      unicode="&#xE013;"
      horiz-adv-x="1000" d="M162.499375 754.15625L254.155625 845.8125C266.655625 854.15625 279.1556250000001 858.3125 291.655625 854.15625C299.999375 850 308.311875 841.65625 312.4993750000001 833.3125C337.5 783.3125 366.65625 724.96875 395.84375 674.96875C408.34375 654.125 400 633.3125 387.5 620.8125L345.84375 579.15625C341.6875 575 337.5 570.8125 341.6875 562.5C345.84375 545.84375 354.1875 533.34375 362.53125 516.65625C379.1875 487.5 412.53125 454.15625 433.375 429.15625C454.21875 412.5 458.375 404.15625 479.21875 387.5C504.2187500000001 366.65625 525.0625 350 554.21875 341.65625C558.375 337.5 558.375 337.5 566.71875 337.5C570.875 337.5 575.0625 337.5 579.21875 341.65625C591.71875 354.15625 608.375 375 625.0625 387.5C641.71875 404.15625 666.71875 408.34375 683.40625 395.84375C729.25 366.6875 783.40625 337.5 833.40625 312.5C841.75 308.34375 850.0625 300 854.25 291.65625C858.40625 279.15625 854.25 266.65625 845.90625 258.3125C825.0625 237.46875 791.75 204.15625 770.90625 183.3125C758.40625 170.8125 770.90625 183.3125 758.40625 170.8125C745.90625 154.15625 725.0625 149.96875 704.25 149.96875C704.25 149.96875 704.25 149.96875 700.09375 149.96875C662.59375 149.96875 629.25 158.3125 595.9375 170.8125C533.4375 195.8125 475.09375 229.15625 425.09375 270.8125C395.9375 291.65625 366.75 320.8125 341.75 345.8125L325.09375 362.46875C287.593125 399.96875 254.249375 441.625 225.093125 487.46875C195.936875 533.3125 170.936875 579.125 158.436875 629.125C150.093125 645.78125 145.936875 670.78125 145.936875 695.78125C145.936875 712.4375 145.936875 724.9375 154.280625 737.4375C158.436875 745.78125 158.436875 749.9375 162.624375 754.09375L162.499375 754.15625z" />
    <glyph glyph-name="pinterest"
      unicode="&#xE014;"
      horiz-adv-x="1000" d="M500.0375 906.25C721.609375 906.25 898.046875 729.811875 906.253125 512.340625C910.35625 282.5625 721.609375 89.7125 487.728125 93.815625C270.2565625000001 97.9187500000001 89.7153125 278.4593749999999 93.8184375 504.134375C97.921875 729.811875 282.5662500000001 906.25 500.0375 906.25zM475.415625 389.2468750000001C475.415625 389.2468750000001 479.521875 389.2468750000001 475.415625 389.2468750000001C479.521875 389.2468750000001 479.521875 389.2468750000001 475.415625 389.2468750000001C487.728125 376.9343750000001 495.934375 368.728125 508.24375 360.521875C528.759375 352.3156250000001 549.275 348.2125000000001 569.790625 348.2125000000001C598.5125 352.3156250000001 627.2375 360.521875 651.85625 376.9343750000001C680.578125 397.453125 701.09375 426.175 717.50625 454.896875C733.9187499999999 495.9281250000001 742.125 536.9625000000001 742.125 577.99375C742.125 614.921875 733.9187499999999 647.746875 713.403125 680.571875C676.475 738.0184375 623.13125 766.7409375 553.3781250000001 774.9471874999999C528.759375 779.0503125 504.140625 774.9471874999999 479.521875 770.8440625000001C438.4875 762.6375 401.559375 750.328125 368.734375 725.70875C311.28875 684.678125 274.36 610.81875 286.669375 528.753125C290.7728125 508.2375 298.9790625 487.721875 307.185625 471.309375C319.4937500000001 454.896875 331.8062500000001 442.5875 352.3218750000001 434.38125C360.528125 430.278125 368.734375 434.38125 368.734375 442.5875C376.940625 454.896875 376.940625 463.103125 381.04375 475.4125C381.04375 479.515625 381.04375 483.61875 376.940625 487.721875L372.8375 491.8249999999999C364.63125 504.134375 356.425 516.4437499999999 356.425 528.753125C352.3218750000001 549.271875 352.3218750000001 569.7875 356.425 590.3031249999999C368.734375 643.64375 397.45625 680.571875 446.69375 705.1928125C487.728125 725.70875 532.8625000000001 725.70875 577.9968749999999 709.2959375C602.615625 701.089375 623.13125 684.678125 639.546875 664.159375C651.85625 643.64375 660.0625 623.128125 660.0625 598.5093750000001C660.0625 561.58125 655.959375 524.65 643.6500000000001 487.721875C635.44375 467.2062500000001 627.2375 450.79375 610.821875 434.38125C598.5125 417.96875 582.0999999999999 409.7625000000001 561.584375 405.6593750000001C549.275 405.6593750000001 536.965625 405.6593750000001 524.65625 413.865625C504.140625 426.175 495.934375 446.690625 500.0375 471.309375C504.140625 487.721875 508.24375 508.2375 516.4499999999999 524.65C520.5531249999999 541.065625 528.759375 557.478125 528.759375 577.99375C532.8625000000001 590.3031249999999 532.8625000000001 606.715625 524.65625 619.025C516.4499999999999 631.334375 508.24375 639.540625 491.83125 643.64375C475.415625 647.746875 459.003125 639.540625 446.69375 627.23125C434.384375 619.025 430.28125 602.6125 422.075 590.3031249999999C413.8687500000001 561.58125 413.8687500000001 532.859375 426.178125 504.134375C426.178125 500.03125 426.178125 495.9281250000001 426.178125 495.9281250000001C413.8687500000001 442.5875 401.559375 389.2468750000001 389.25 335.903125C381.04375 311.284375 376.940625 286.6656250000001 376.940625 262.046875C376.940625 237.428125 376.940625 216.909375 381.04375 192.2906250000001C381.04375 188.1875 381.04375 184.084375 385.146875 184.084375C389.25 184.084375 389.25 184.084375 393.3531250000001 188.1875C405.6625 204.6 417.971875 221.0124999999999 426.178125 237.428125C438.4875 257.94375 450.796875 282.5625 454.9 307.18125C459.003125 331.8 467.209375 356.4187500000001 471.3125 376.9343750000001C475.415625 385.14375 475.415625 389.2468750000001 475.415625 389.2468750000001z" />
    <glyph glyph-name="right-chevron"
      unicode="&#xE015;"
      horiz-adv-x="1000" d="M700 916.65625H533.34375L104.188125 529.15625C87.531875 512.5 87.531875 483.3125 104.188125 466.65625L533.34375 83.3125H700L270.844375 470.8125C254.188125 487.46875 254.188125 516.65625 270.844375 533.3125L700 916.65625V916.65625zM591.65625 125H550L166.656875 470.84375C150.000625 487.5 150.000625 516.6875 166.656875 533.34375L550 875H591.65625L208.3128125 529.15625C191.6565625 512.5 191.6565625 483.3125 208.3128125 466.65625L591.65625 125zM908.34375 916.65625H741.6875L312.53125 529.15625C295.8753125 512.5 295.8753125 483.3125 312.53125 466.65625L741.6875 83.3125H908.34375L479.1875 470.8125C462.53125 487.46875 462.53125 516.65625 479.1875 533.3125L908.34375 916.65625V916.65625zM800 125H758.34375L375 470.84375C358.34375 487.5 358.34375 516.6875 375 533.34375L758.34375 875H800L416.65625 529.15625C400 512.5 400 483.3125 416.65625 466.65625L800 125z" />
    <glyph glyph-name="sans-serif-closed-quote"
      unicode="&#xE016;"
      horiz-adv-x="1000" d="M435 843.75V620.3125C435 535 418.75 457.8125 390.3125 384.6875C361.875 315.625 313.125 246.5625 240 177.5L114.0625 275C154.6875 315.625 183.125 356.25 203.4375 392.8125C223.75 429.375 240 465.9375 244.0625 502.5H93.75V843.75H435zM906.25 843.75V620.3125C906.25 535 890 457.8125 861.5625 384.6875C833.125 315.625 784.375 246.5625 711.25 177.5L585.3125 275C625.9375 315.625 654.375 356.25 674.6875 392.8125C695 429.375 711.25 465.9375 715.3125 502.5H556.875V843.75H906.25z" />
    <glyph glyph-name="sans-serif-open-quote"
      unicode="&#xE017;"
      horiz-adv-x="1000" d="M435 514.6875V177.5H93.75V400.9375C93.75 486.25 110 563.4375 138.4375 632.5C166.875 697.5 215.625 766.5625 288.75 839.6875L414.6875 742.1875C374.0625 701.5625 345.625 660.9375 325.3125 624.375C305 587.8125 288.75 551.25 284.6875 514.6875H435zM906.25 514.6875V177.5H565V400.9375C565 486.25 581.25 563.4375 609.6875 632.5C638.125 701.5625 686.875 770.625 760 843.75L885.9375 746.25C845.3125 705.625 816.875 665 796.5625 628.4375C776.25 591.875 760 555.3125 755.9375 518.75H906.25V514.6875z" />
    <glyph glyph-name="search"
      unicode="&#xE018;"
      horiz-adv-x="1000" d="M900 129.15625L595.84375 433.3125C641.6875 483.3125 666.6875 549.96875 666.6875 624.96875C666.6875 787.46875 537.53125 916.625 375.03125 916.625C212.53125 916.625 83.375 787.46875 83.375 624.96875C83.375 462.46875 212.53125 333.3125 375.03125 333.3125C450.03125 333.3125 516.6875 358.3125 566.6875 404.15625L870.84375 100C879.1875 91.65625 891.6875 91.65625 900 100C908.3125 108.34375 908.34375 120.84375 900 129.15625V129.15625zM375 375C237.4996875 375 125 487.5 125 625C125 762.5 237.4996875 875 375 875C512.5 875 625 762.5 625 625C625 487.5 512.5 375 375 375z" />
    <glyph glyph-name="serif-closed-quote"
      unicode="&#xE019;"
      horiz-adv-x="1000" d="M420.384375 707.7574999999999C436.715625 687.34375 444.88125 658.7625 453.046875 630.1812500000001C461.2125 597.51875 465.29375 564.85625 465.29375 532.19375C465.29375 458.7 444.88125 389.290625 408.134375 332.128125C371.3875 274.96875 314.2281250000001 225.975 240.735 189.228125L220.3203125 225.975C261.149375 242.30625 297.895625 270.884375 330.559375 303.55C363.221875 340.29375 379.553125 377.040625 383.6375000000001 413.7875C387.71875 430.11875 391.803125 446.4500000000001 391.803125 462.78125C391.803125 479.115625 387.71875 491.3625 383.6375000000001 503.6125C350.975 470.9499999999999 310.1443750000001 450.5343750000001 261.149375 450.5343750000001C212.154375 450.5343750000001 171.3253125 466.8656249999999 138.6621875 495.446875C110.0815625 524.0250000000001 93.75 564.85625 93.75 617.934375C93.75 666.9281249999999 110.0815625 707.7574999999999 142.745 736.3378125C175.4084375 764.9184375 216.2375 781.25 269.3153125 781.25C338.725 781.25 391.803125 756.7525 420.384375 707.7574999999999zM861.3375 707.7574999999999C877.66875 687.34375 885.8343749999999 658.7625 894 630.1812500000001C902.165625 597.51875 906.25 564.85625 906.25 532.19375C906.25 458.7 885.8343749999999 389.290625 849.0906249999999 332.128125C812.34375 270.884375 755.18125 225.975 681.690625 189.228125L665.359375 221.890625C706.1875 238.2218750000001 742.934375 266.803125 775.596875 299.465625C808.259375 336.2125 824.590625 372.959375 828.6750000000001 409.7062500000001C832.75625 426.0374999999999 836.840625 442.36875 836.840625 458.7C836.840625 475.03125 832.75625 487.28125 828.6750000000001 499.528125C796.0125 466.8656249999999 755.18125 446.4500000000001 706.1875 446.4500000000001C657.19375 446.4500000000001 616.3625000000001 462.78125 583.7 491.3625C551.0374999999999 519.9437499999999 534.7062500000001 560.7718749999999 534.7062500000001 613.85C534.7062500000001 662.846875 551.0374999999999 703.6746875 583.7 732.255C616.3625000000001 764.9184375 657.19375 777.1671875 710.26875 777.1671875C779.68125 781.25 832.75625 756.7525 861.3375 707.7574999999999z" />
    <glyph glyph-name="serif-open-quote"
      unicode="&#xE01A;"
      horiz-adv-x="1000" d="M142.2575 263.8375C126.0884375 284.0500000000001 118.00375 312.34375 109.9190625 340.640625C97.7921875 377.0218749999999 93.75 409.359375 93.75 441.696875C93.75 514.459375 113.9615625 583.1781249999999 150.3421875 639.76875C186.7225 700.4043750000001 243.3146875 744.869375 316.075 781.25L336.2875 740.8271875C295.864375 724.6578125 259.48375 700.4043750000001 227.145625 664.025C198.849375 627.64375 178.638125 591.2625 174.595625 554.8812499999999C170.5534375 538.7125 166.51125 522.54375 166.51125 506.375C166.51125 490.20625 170.5534375 478.078125 174.595625 465.9499999999999C206.9340625 498.290625 247.356875 518.5 295.864375 518.5C344.371875 518.5 384.79375 502.33125 417.134375 474.0375C449.471875 445.740625 465.640625 405.315625 465.640625 352.76875C465.640625 304.259375 449.471875 263.8375 417.134375 235.540625C384.79375 203.203125 344.371875 191.0750000000001 291.8221875 191.0750000000001C223.103125 191.0750000000001 170.5534375 215.328125 142.2575 263.8375zM578.825 263.8375C562.65625 284.0500000000001 554.5718750000001 312.34375 546.4875000000001 340.640625C538.4031249999999 372.9781250000001 534.359375 405.3187499999999 534.359375 437.65625C534.359375 510.415625 554.5718750000001 579.134375 590.9499999999999 635.728125C627.33125 696.361875 683.925 740.8271875 756.6843749999999 777.2078125L776.896875 740.8271875C736.475 724.6578125 700.09375 696.361875 667.75625 664.025C635.4156250000001 627.64375 619.2468749999999 591.2625 615.20625 554.8812499999999C611.1625 538.7125 607.121875 522.54375 607.121875 506.375C607.121875 490.20625 611.1625 478.078125 615.20625 465.9499999999999C647.5437499999999 498.290625 687.965625 518.5 736.475 518.5C784.9812499999999 518.5 825.403125 502.33125 857.74375 474.0375C890.0812500000001 445.740625 906.25 405.315625 906.25 352.76875C906.25 304.259375 890.0812500000001 263.8375 857.74375 235.540625C825.403125 203.203125 784.9812499999999 191.0750000000001 732.43125 191.0750000000001C659.671875 191.0750000000001 607.121875 215.328125 578.825 263.8375z" />
    <glyph glyph-name="shopping-cart"
      unicode="&#xE01B;"
      horiz-adv-x="1000" d="M358.34375 229.15625C358.34375 206.15625 339.6875 187.5 316.6875 187.5C293.6875 187.5 275.0309375 206.15625 275.0309375 229.15625C275.0309375 252.15625 293.6875 270.8125 316.6875 270.8125C339.6875 270.8125 358.34375 252.15625 358.34375 229.15625zM754.15625 229.15625C754.15625 206.15625 735.5 187.5 712.5 187.5C689.5 187.5 670.84375 206.15625 670.84375 229.15625C670.84375 252.15625 689.5 270.8125 712.5 270.8125C735.5 270.8125 754.15625 252.15625 754.15625 229.15625zM758.34375 395.84375C779.1875 395.84375 795.84375 412.5 800 433.34375L829.15625 683.34375C833.3125 708.3440625000001 812.5 729.1878125 787.5 729.1878125H329.15625L333.3125 687.5315625000001H787.46875L754.125 437.53125H329.125L287.4684375 775.0315625000001C283.3121875 795.8753125 266.6246875 812.5315625000001 245.8121875 812.5315625000001H170.8121875V770.8753125000001H249.9684375L254.1246875 729.2190625000001L291.6246875 425.0625L258.2809375 379.21875C237.4371875 350.0625 258.2809375 312.5625 291.6246875 312.5625H795.78125V354.21875H287.4371875000001L316.59375 395.875H758.25L758.34375 395.84375z" />
    <glyph glyph-name="sort"
      unicode="&#xE01C;"
      horiz-adv-x="1000" d="M745.84375 541.65625H254.1875C216.6875 541.65625 200.03125 583.3125 220.84375 608.3125L466.6875 895.8125C483.34375 916.65625 512.53125 916.65625 529.1875 895.8125L775.03125 608.3125C800.03125 583.3125 779.1875 541.65625 745.875 541.65625H745.84375zM254.1559375 458.34375H741.65625C779.15625 458.34375 795.8125 416.6875 775 391.6875L529.15625 104.1875C512.5 83.34375 483.3125 83.34375 466.65625 104.1875L220.8121875 391.6875C199.9684375 416.6875 220.8121875 458.34375 254.1559375 458.34375V458.34375z" />
    <glyph glyph-name="star"
      unicode="&#xE01D;"
      horiz-adv-x="1000" d="M520.84375 804.15625L587.5 608.3125C591.65625 599.96875 600 595.8125 608.34375 595.8125L816.6875 591.65625C837.53125 591.65625 845.84375 566.65625 829.1875 554.15625L662.53125 429.15625C654.1875 425 654.1875 416.65625 654.1875 408.3125L712.53125 212.46875C716.6875 191.625 695.875 179.125 679.1875 187.46875L508.34375 304.125C500 308.28125 491.6875 308.28125 483.34375 304.125L312.5 187.46875C295.8440625 174.96875 275.0003125 191.625 279.1565625 212.46875L337.5 408.3125C341.65625 416.65625 337.5 424.96875 329.15625 429.15625L162.5003125 554.15625C158.3440625 566.65625 166.6565625 591.65625 183.3440625 591.65625L391.6875 595.8125C400.03125 595.8125 408.34375 599.96875 412.53125 608.3125L479.1875 804.15625C487.53125 820.8125 512.53125 820.8125 520.84375 804.15625z" />
    <glyph glyph-name="subtract"
      unicode="&#xE01E;"
      horiz-adv-x="1000" d="M729.15625 479.15625H270.813125C258.313125 479.15625 249.969375 487.5 249.969375 500C249.969375 512.5 258.313125 520.84375 270.813125 520.84375H729.15625C741.65625 520.84375 750 512.5 750 500C750 487.5 741.65625 479.15625 729.15625 479.15625z" />
    <glyph glyph-name="up-chevron"
      unicode="&#xE01F;"
      horiz-adv-x="1000" d="M470.84375 729.1559374999999C487.5 745.8121874999999 516.6875 745.8121874999999 533.34375 729.1559374999999L916.6875 300V466.65625L529.1875 895.8121874999999C512.53125 912.4684375 483.34375 912.4684375 466.6875 895.8121874999999L83.3434375 466.65625V300L470.84375 729.1559374999999V729.1559374999999zM529.15625 791.6559374999999C512.5 808.3121874999999 483.3125 808.3121874999999 466.65625 791.6559374999999L124.9996875 408.3125V449.96875L470.84375 833.3121874999999C487.5 849.9684374999999 516.6875 849.9684374999999 533.34375 833.3121874999999L879.1875 449.96875V408.3125L529.1875 791.6559374999999H529.15625zM470.84375 520.84375C487.5 537.5 516.6875 537.5 533.34375 520.84375L916.6875 91.6875V258.34375L529.1875 687.5C512.53125 704.15625 483.34375 704.15625 466.6875 687.5L83.3434375 258.34375V91.6875L470.84375 520.84375V520.84375zM529.15625 583.34375C512.5 600 483.3125 600 466.65625 583.34375L124.9996875 200V241.65625L470.84375 625C487.5 641.65625 516.6875 641.65625 533.34375 625L879.1875 241.65625V200L529.1875 583.34375H529.15625z" />
  </font>
</defs>
</svg>
